<?xml version="1.0" encoding="UTF-8" standalone="no"?>
<!DOCTYPE svg PUBLIC "-//W3C//DTD SVG 1.1//EN"
"http://www.w3.org/Graphics/SVG/1.1/DTD/svg11.dtd">


<!-- Page 1 -->
<svg x="0" y="0" width="1033" height="435" viewBox="0 0 1033 435" version="1.1" xmlns="http://www.w3.org/2000/svg" xmlns:xlink="http://www.w3.org/1999/xlink"
style="display: block;margin-left: auto;margin-right: auto;">
<defs>
<clipPath id="c0_1"><path d="M0,435.2V0H1033.6V435.2Z" /></clipPath>

<style type="text/css"><![CDATA[

.g0_1{
fill: #FFFFFF;
}
.g1_1{
fill: #F1F1F1;
}
.g2_1{
fill: none;
stroke: #000000;
stroke-width: 1.4666667;
stroke-linecap: butt;
stroke-linejoin: miter;
}
.g3_1{
fill: #A9D18E;
}
.g4_1{
fill: none;
stroke: #A9D18E;
stroke-width: 1.4666667;
stroke-linecap: butt;
stroke-linejoin: miter;
}
.g5_1{
fill: #C55A11;
}
.g6_1{
fill: none;
stroke: #C55A11;
stroke-width: 1.4666667;
stroke-linecap: butt;
stroke-linejoin: miter;
}

.s1_1{
font-size: 19.98px;
font-family: Calibri_5;
fill: TRANSPARENT;
}
text::-moz-selection {
	color: transparent;
	background: rgba(0, 106, 173, 0.4);
}
text::selection {
	color: transparent;
	background: rgba(0, 106, 173, 0.4);
}

]]></style>

</defs>
<path d="M0,0
L0,435
L1033,435
L1033,0 Z " 
fill="#FFFFFF" stroke="none" />
<g clip-path="url(#c0_1)">
<path fill-rule="evenodd" d="M0,435.2H1033.6V0H0V435.2Z" class="g0_1" />
</g>
<path fill-rule="evenodd" d="M671.6,315.2H925.5V84.9H671.6V315.2Z" class="g1_1" />
<path d="M671.6,315.2H925.5V84.9H671.6V315.2Z" class="g2_1" />
<path fill-rule="evenodd" d="M725.1,230.9L720.9,122.3l148.8,25.8l18.9,99.4l-48.2,25.8l-67.1,18.4L725.1,230.9Z" class="g3_1" />
<path d="M725.1,230.9L720.9,122.3l148.8,25.8l18.9,99.4l-48.2,25.8l-67.1,18.4L725.1,230.9Z" class="g4_1" />
<g clip-path="url(#c0_1)">
<g fill="#000000" >
<use xlink:href="#f0_j" transform="matrix(13.1,0,0,13.1,652,339)" />
<use xlink:href="#f0_c6" transform="matrix(13.1,0,0,13.1,662.6,339)" />
<use xlink:href="#f0_ae" transform="matrix(13.1,0,0,13.1,673.1,339)" />
<use xlink:href="#f0_c6" transform="matrix(13.1,0,0,13.1,689,339)" />
<use xlink:href="#f0_a8" transform="matrix(13.1,0,0,13.1,699.5,339)" />
<use xlink:href="#f0_c6" transform="matrix(13.1,0,0,13.1,704.1,339)" />
<use xlink:href="#f0_b5" transform="matrix(13.1,0,0,13.1,714.5,339)" />
<use xlink:href="#f0_1r" transform="matrix(13.1,0,0,13.1,727.1,339)" />
<use xlink:href="#f0_77" transform="matrix(13.1,0,0,13.1,735.5,339)" />
<use xlink:href="#f0_co" transform="matrix(13.1,0,0,13.1,744.7,339)" />
<use xlink:href="#f0_7z" transform="matrix(13.1,0,0,13.1,753.5,339)" />
<use xlink:href="#f0_b1" transform="matrix(13.1,0,0,13.1,763.4,339)" />
<use xlink:href="#f0_b5" transform="matrix(13.1,0,0,13.1,774.9,339)" />
<use xlink:href="#f0_77" transform="matrix(13.1,0,0,13.1,782.8,339)" />
<use xlink:href="#f0_ae" transform="matrix(13.1,0,0,13.1,792.4,339)" />
<use xlink:href="#f0_ay" transform="matrix(13.1,0,0,13.1,808.3,339)" />
<use xlink:href="#f0_a8" transform="matrix(13.1,0,0,13.1,818.7,339)" />
<use xlink:href="#f0_7z" transform="matrix(13.1,0,0,13.1,823.3,339)" />
<use xlink:href="#f0_7v" transform="matrix(13.1,0,0,13.1,833.2,339)" />
<use xlink:href="#f0_ci" transform="matrix(13.1,0,0,13.1,848.4,339)" />
<use xlink:href="#f0_9q" transform="matrix(13.1,0,0,13.1,862.7,339)" />
<use xlink:href="#f0_bf" transform="matrix(13.1,0,0,13.1,867.3,339)" />
<use xlink:href="#f0_9n" transform="matrix(13.1,0,0,13.1,874,339)" />
<use xlink:href="#f0_ay" transform="matrix(13.1,0,0,13.1,889,339)" />
<use xlink:href="#f0_am" transform="matrix(13.1,0,0,13.1,899.5,339)" />
<use xlink:href="#f0_9q" transform="matrix(13.1,0,0,13.1,910,339)" />
<use xlink:href="#f0_b5" transform="matrix(13.1,0,0,13.1,914.6,339)" />
<use xlink:href="#f0_b5" transform="matrix(13.1,0,0,13.1,922.4,339)" />
<use xlink:href="#f0_am" transform="matrix(13.1,0,0,13.1,930.3,339)" />
<use xlink:href="#f0_af" transform="matrix(13.1,0,0,13.1,940.7,339)" />
</g>
</g>
<text x="651" y="339" dx="0,0,0,-0.1,0,0,-0.1,0,0.2,0,-0.4,-0.3,0,0,0,0.1,0,0,-0.1,0,-0.1,0,0.2,0,0,0.1,0,0,0,-0.1,0,0,0.1,-0.1" class="s1_1">Cumulus Layer sampled with poisson</text>
<path fill-rule="evenodd" d="M733.5,143.6c0,-2.4,1.9,-4.3,4.3,-4.3c2.4,0,4.3,1.9,4.3,4.3c0,2.3,-1.9,4.2,-4.3,4.2c-2.4,0,-4.3,-1.9,-4.3,-4.2Z" class="g5_1" />
<path d="M733.5,143.6c0,-2.4,1.9,-4.3,4.3,-4.3c2.4,0,4.3,1.9,4.3,4.3c0,2.3,-1.9,4.2,-4.3,4.2c-2.4,0,-4.3,-1.9,-4.3,-4.2Z" class="g6_1" />
<path fill-rule="evenodd" d="M752.8,147.8c0,-2.4,1.9,-4.2,4.3,-4.2c2.4,0,4.3,1.8,4.3,4.2c0,2.3,-1.9,4.2,-4.3,4.2c-2.4,0,-4.3,-1.9,-4.3,-4.2Z" class="g5_1" />
<path d="M752.8,147.8c0,-2.4,1.9,-4.2,4.3,-4.2c2.4,0,4.3,1.8,4.3,4.2c0,2.3,-1.9,4.2,-4.3,4.2c-2.4,0,-4.3,-1.9,-4.3,-4.2Z" class="g6_1" />
<path fill-rule="evenodd" d="M737.7,165.9c0,-2.3,2,-4.2,4.3,-4.2c2.4,0,4.3,1.9,4.3,4.2c0,2.3,-1.9,4.2,-4.3,4.2c-2.3,0,-4.3,-1.9,-4.3,-4.2Z" class="g5_1" />
<path d="M737.7,165.9c0,-2.3,2,-4.2,4.3,-4.2c2.4,0,4.3,1.9,4.3,4.2c0,2.3,-1.9,4.2,-4.3,4.2c-2.3,0,-4.3,-1.9,-4.3,-4.2Z" class="g6_1" />
<path fill-rule="evenodd" d="M746.3,184.1c0,-2.4,1.9,-4.2,4.3,-4.2c2.3,0,4.2,1.8,4.2,4.2c0,2.3,-1.9,4.2,-4.2,4.2c-2.4,0,-4.3,-1.9,-4.3,-4.2Z" class="g5_1" />
<path d="M746.3,184.1c0,-2.4,1.9,-4.2,4.3,-4.2c2.3,0,4.2,1.8,4.2,4.2c0,2.3,-1.9,4.2,-4.2,4.2c-2.4,0,-4.3,-1.9,-4.3,-4.2Z" class="g6_1" />
<path fill-rule="evenodd" d="M761.4,170.1c0,-2.3,1.9,-4.2,4.2,-4.2c2.3,0,4.2,1.9,4.2,4.2c0,2.4,-1.9,4.3,-4.2,4.3c-2.3,0,-4.2,-1.9,-4.2,-4.3Z" class="g5_1" />
<path d="M761.4,170.1c0,-2.3,1.9,-4.2,4.2,-4.2c2.3,0,4.2,1.9,4.2,4.2c0,2.4,-1.9,4.3,-4.2,4.3c-2.3,0,-4.2,-1.9,-4.2,-4.3Z" class="g6_1" />
<path fill-rule="evenodd" d="M766.9,184.1c0,-2.4,1.9,-4.2,4.2,-4.2c2.3,0,4.2,1.8,4.2,4.2c0,2.3,-1.9,4.2,-4.2,4.2c-2.3,0,-4.2,-1.9,-4.2,-4.2Z" class="g5_1" />
<path d="M766.9,184.1c0,-2.4,1.9,-4.2,4.2,-4.2c2.3,0,4.2,1.8,4.2,4.2c0,2.3,-1.9,4.2,-4.2,4.2c-2.3,0,-4.2,-1.9,-4.2,-4.2Z" class="g6_1" />
<path fill-rule="evenodd" d="M772,155.5c0,-2.4,1.9,-4.2,4.3,-4.2c2.4,0,4.3,1.8,4.3,4.2c0,2.3,-1.9,4.2,-4.3,4.2c-2.4,0,-4.3,-1.9,-4.3,-4.2Z" class="g5_1" />
<path d="M772,155.5c0,-2.4,1.9,-4.2,4.3,-4.2c2.4,0,4.3,1.8,4.3,4.2c0,2.3,-1.9,4.2,-4.3,4.2c-2.4,0,-4.3,-1.9,-4.3,-4.2Z" class="g6_1" />
<path fill-rule="evenodd" d="M751.8,209.5c0,-2.4,1.9,-4.4,4.3,-4.4c2.3,0,4.2,2,4.2,4.4c0,2.3,-1.9,4.3,-4.2,4.3c-2.4,0,-4.3,-2,-4.3,-4.3Z" class="g5_1" />
<path d="M751.8,209.5c0,-2.4,1.9,-4.4,4.3,-4.4c2.3,0,4.2,2,4.2,4.4c0,2.3,-1.9,4.3,-4.2,4.3c-2.4,0,-4.3,-2,-4.3,-4.3Z" class="g6_1" />
<path fill-rule="evenodd" d="M771.1,213.8c0,-2.4,1.9,-4.2,4.2,-4.2c2.3,0,4.2,1.8,4.2,4.2c0,2.3,-1.9,4.2,-4.2,4.2c-2.3,0,-4.2,-1.9,-4.2,-4.2Z" class="g5_1" />
<path d="M771.1,213.8c0,-2.4,1.9,-4.2,4.2,-4.2c2.3,0,4.2,1.8,4.2,4.2c0,2.3,-1.9,4.2,-4.2,4.2c-2.3,0,-4.2,-1.9,-4.2,-4.2Z" class="g6_1" />
<path fill-rule="evenodd" d="M756.1,231.8c0,-2.4,1.9,-4.3,4.3,-4.3c2.4,0,4.3,1.9,4.3,4.3c0,2.4,-1.9,4.3,-4.3,4.3c-2.4,0,-4.3,-1.9,-4.3,-4.3Z" class="g5_1" />
<path d="M756.1,231.8c0,-2.4,1.9,-4.3,4.3,-4.3c2.4,0,4.3,1.9,4.3,4.3c0,2.4,-1.9,4.3,-4.3,4.3c-2.4,0,-4.3,-1.9,-4.3,-4.3Z" class="g6_1" />
<path fill-rule="evenodd" d="M764.7,202.8c0,-2.4,1.9,-4.2,4.2,-4.2c2.3,0,4.2,1.8,4.2,4.2c0,2.3,-1.9,4.2,-4.2,4.2c-2.3,0,-4.2,-1.9,-4.2,-4.2Z" class="g5_1" />
<path d="M764.7,202.8c0,-2.4,1.9,-4.2,4.2,-4.2c2.3,0,4.2,1.8,4.2,4.2c0,2.3,-1.9,4.2,-4.2,4.2c-2.3,0,-4.2,-1.9,-4.2,-4.2Z" class="g6_1" />
<path fill-rule="evenodd" d="M779.5,236.1c0,-2.3,2,-4.2,4.3,-4.2c2.4,0,4.4,1.9,4.4,4.2c0,2.4,-2,4.3,-4.4,4.3c-2.3,0,-4.3,-1.9,-4.3,-4.3Z" class="g5_1" />
<path d="M779.5,236.1c0,-2.3,2,-4.2,4.3,-4.2c2.4,0,4.4,1.9,4.4,4.2c0,2.4,-2,4.3,-4.4,4.3c-2.3,0,-4.3,-1.9,-4.3,-4.3Z" class="g6_1" />
<path fill-rule="evenodd" d="M785,202.8c0,-2.4,2,-4.2,4.3,-4.2c2.4,0,4.3,1.8,4.3,4.2c0,2.3,-1.9,4.2,-4.3,4.2c-2.3,0,-4.3,-1.9,-4.3,-4.2Z" class="g5_1" />
<path d="M785,202.8c0,-2.4,2,-4.2,4.3,-4.2c2.4,0,4.3,1.8,4.3,4.2c0,2.3,-1.9,4.2,-4.3,4.2c-2.3,0,-4.3,-1.9,-4.3,-4.2Z" class="g6_1" />
<path fill-rule="evenodd" d="M790.4,221.5c0,-2.4,1.8,-4.2,4.2,-4.2c2.3,0,4.2,1.8,4.2,4.2c0,2.3,-1.9,4.2,-4.2,4.2c-2.4,0,-4.2,-1.9,-4.2,-4.2Z" class="g5_1" />
<path d="M790.4,221.5c0,-2.4,1.8,-4.2,4.2,-4.2c2.3,0,4.2,1.8,4.2,4.2c0,2.3,-1.9,4.2,-4.2,4.2c-2.4,0,-4.2,-1.9,-4.2,-4.2Z" class="g6_1" />
<path fill-rule="evenodd" d="M812.7,156c0,-2.3,1.9,-4.2,4.2,-4.2c2.4,0,4.2,1.9,4.2,4.2c0,2.3,-1.8,4.2,-4.2,4.2c-2.3,0,-4.2,-1.9,-4.2,-4.2Z" class="g5_1" />
<path d="M812.7,156c0,-2.3,1.9,-4.2,4.2,-4.2c2.4,0,4.2,1.9,4.2,4.2c0,2.3,-1.8,4.2,-4.2,4.2c-2.3,0,-4.2,-1.9,-4.2,-4.2Z" class="g6_1" />
<path fill-rule="evenodd" d="M832,160.2c0,-2.3,1.9,-4.2,4.2,-4.2c2.3,0,4.2,1.9,4.2,4.2c0,2.4,-1.9,4.3,-4.2,4.3c-2.3,0,-4.2,-1.9,-4.2,-4.3Z" class="g5_1" />
<path d="M832,160.2c0,-2.3,1.9,-4.2,4.2,-4.2c2.3,0,4.2,1.9,4.2,4.2c0,2.4,-1.9,4.3,-4.2,4.3c-2.3,0,-4.2,-1.9,-4.2,-4.3Z" class="g6_1" />
<path fill-rule="evenodd" d="M816.9,178.4c0,-2.3,1.9,-4.2,4.2,-4.2c2.4,0,4.3,1.9,4.3,4.2c0,2.3,-1.9,4.2,-4.3,4.2c-2.3,0,-4.2,-1.9,-4.2,-4.2Z" class="g5_1" />
<path d="M816.9,178.4c0,-2.3,1.9,-4.2,4.2,-4.2c2.4,0,4.3,1.9,4.3,4.2c0,2.3,-1.9,4.2,-4.3,4.2c-2.3,0,-4.2,-1.9,-4.2,-4.2Z" class="g6_1" />
<path fill-rule="evenodd" d="M829.9,200.9c0,-2.3,1.9,-4.2,4.3,-4.2c2.3,0,4.2,1.9,4.2,4.2c0,2.4,-1.9,4.2,-4.2,4.2c-2.4,0,-4.3,-1.8,-4.3,-4.2Z" class="g5_1" />
<path d="M829.9,200.9c0,-2.3,1.9,-4.2,4.3,-4.2c2.3,0,4.2,1.9,4.2,4.2c0,2.4,-1.9,4.2,-4.2,4.2c-2.4,0,-4.3,-1.8,-4.3,-4.2Z" class="g6_1" />
<path fill-rule="evenodd" d="M840.4,182.7c0,-2.4,1.9,-4.3,4.2,-4.3c2.3,0,4.2,1.9,4.2,4.3c0,2.4,-1.9,4.3,-4.2,4.3c-2.3,0,-4.2,-1.9,-4.2,-4.3Z" class="g5_1" />
<path d="M840.4,182.7c0,-2.4,1.9,-4.3,4.2,-4.3c2.3,0,4.2,1.9,4.2,4.3c0,2.4,-1.9,4.3,-4.2,4.3c-2.3,0,-4.2,-1.9,-4.2,-4.3Z" class="g6_1" />
<path fill-rule="evenodd" d="M845.9,196.5c0,-2.3,1.9,-4.2,4.3,-4.2c2.4,0,4.3,1.9,4.3,4.2c0,2.4,-1.9,4.3,-4.3,4.3c-2.4,0,-4.3,-1.9,-4.3,-4.3Z" class="g5_1" />
<path d="M845.9,196.5c0,-2.3,1.9,-4.2,4.3,-4.2c2.4,0,4.3,1.9,4.3,4.2c0,2.4,-1.9,4.3,-4.3,4.3c-2.4,0,-4.3,-1.9,-4.3,-4.3Z" class="g6_1" />
<path fill-rule="evenodd" d="M851.2,168c0,-2.4,1.9,-4.3,4.2,-4.3c2.4,0,4.2,1.9,4.2,4.3c0,2.4,-1.8,4.3,-4.2,4.3c-2.3,0,-4.2,-1.9,-4.2,-4.3Z" class="g5_1" />
<path d="M851.2,168c0,-2.4,1.9,-4.3,4.2,-4.3c2.4,0,4.2,1.9,4.2,4.3c0,2.4,-1.8,4.3,-4.2,4.3c-2.3,0,-4.2,-1.9,-4.2,-4.3Z" class="g6_1" />
<path fill-rule="evenodd" d="M787.4,189.6c0,-2.4,1.9,-4.2,4.2,-4.2c2.4,0,4.2,1.8,4.2,4.2c0,2.3,-1.8,4.2,-4.2,4.2c-2.3,0,-4.2,-1.9,-4.2,-4.2Z" class="g5_1" />
<path d="M787.4,189.6c0,-2.4,1.9,-4.2,4.2,-4.2c2.4,0,4.2,1.8,4.2,4.2c0,2.3,-1.8,4.2,-4.2,4.2c-2.3,0,-4.2,-1.9,-4.2,-4.2Z" class="g6_1" />
<path fill-rule="evenodd" d="M799,204c0,-2.3,1.9,-4.2,4.2,-4.2c2.3,0,4.2,1.9,4.2,4.2c0,2.4,-1.9,4.3,-4.2,4.3c-2.3,0,-4.2,-1.9,-4.2,-4.3Z" class="g5_1" />
<path d="M799,204c0,-2.3,1.9,-4.2,4.2,-4.2c2.3,0,4.2,1.9,4.2,4.2c0,2.4,-1.9,4.3,-4.2,4.3c-2.3,0,-4.2,-1.9,-4.2,-4.3Z" class="g6_1" />
<path fill-rule="evenodd" d="M790.9,170.1c0,-2.3,1.9,-4.2,4.2,-4.2c2.3,0,4.2,1.9,4.2,4.2c0,2.4,-1.9,4.3,-4.2,4.3c-2.3,0,-4.2,-1.9,-4.2,-4.3Z" class="g5_1" />
<path d="M790.9,170.1c0,-2.3,1.9,-4.2,4.2,-4.2c2.3,0,4.2,1.9,4.2,4.2c0,2.4,-1.9,4.3,-4.2,4.3c-2.3,0,-4.2,-1.9,-4.2,-4.3Z" class="g6_1" />
<path fill-rule="evenodd" d="M814.9,194.2c0,-2.4,1.9,-4.3,4.2,-4.3c2.4,0,4.2,1.9,4.2,4.3c0,2.3,-1.8,4.2,-4.2,4.2c-2.3,0,-4.2,-1.9,-4.2,-4.2Z" class="g5_1" />
<path d="M814.9,194.2c0,-2.4,1.9,-4.3,4.2,-4.3c2.4,0,4.2,1.9,4.2,4.3c0,2.3,-1.8,4.2,-4.2,4.2c-2.3,0,-4.2,-1.9,-4.2,-4.2Z" class="g6_1" />
<path fill-rule="evenodd" d="M816.9,220.4c0,-2.4,1.9,-4.2,4.2,-4.2c2.4,0,4.3,1.8,4.3,4.2c0,2.3,-1.9,4.2,-4.3,4.2c-2.3,0,-4.2,-1.9,-4.2,-4.2Z" class="g5_1" />
<path d="M816.9,220.4c0,-2.4,1.9,-4.2,4.2,-4.2c2.4,0,4.3,1.8,4.3,4.2c0,2.3,-1.9,4.2,-4.3,4.2c-2.3,0,-4.2,-1.9,-4.2,-4.2Z" class="g6_1" />
<path fill-rule="evenodd" d="M732.2,220.4c0,-2.4,1.9,-4.2,4.3,-4.2c2.3,0,4.2,1.8,4.2,4.2c0,2.3,-1.9,4.2,-4.2,4.2c-2.4,0,-4.3,-1.9,-4.3,-4.2Z" class="g5_1" />
<path d="M732.2,220.4c0,-2.4,1.9,-4.2,4.3,-4.2c2.3,0,4.2,1.8,4.2,4.2c0,2.3,-1.9,4.2,-4.2,4.2c-2.4,0,-4.3,-1.9,-4.3,-4.2Z" class="g6_1" />
<path fill-rule="evenodd" d="M806.1,240.1c0,-2.4,1.9,-4.3,4.2,-4.3c2.4,0,4.2,1.9,4.2,4.3c0,2.4,-1.8,4.3,-4.2,4.3c-2.3,0,-4.2,-1.9,-4.2,-4.3Z" class="g5_1" />
<path d="M806.1,240.1c0,-2.4,1.9,-4.3,4.2,-4.3c2.4,0,4.2,1.9,4.2,4.3c0,2.4,-1.8,4.3,-4.2,4.3c-2.3,0,-4.2,-1.9,-4.2,-4.3Z" class="g6_1" />
<path fill-rule="evenodd" d="M793.6,259.8c0,-2.3,1.9,-4.2,4.3,-4.2c2.3,0,4.2,1.9,4.2,4.2c0,2.3,-1.9,4.2,-4.2,4.2c-2.4,0,-4.3,-1.9,-4.3,-4.2Z" class="g5_1" />
<path d="M793.6,259.8c0,-2.3,1.9,-4.2,4.3,-4.2c2.3,0,4.2,1.9,4.2,4.2c0,2.3,-1.9,4.2,-4.2,4.2c-2.4,0,-4.3,-1.9,-4.3,-4.2Z" class="g6_1" />
<path fill-rule="evenodd" d="M744.1,244.2c0,-2.3,1.7,-4.2,3.6,-4.2c2,0,3.6,1.9,3.6,4.2c0,2.3,-1.6,4.2,-3.6,4.2c-1.9,0,-3.6,-1.9,-3.6,-4.2Z" class="g5_1" />
<path d="M744.1,244.2c0,-2.3,1.7,-4.2,3.6,-4.2c2,0,3.6,1.9,3.6,4.2c0,2.3,-1.6,4.2,-3.6,4.2c-1.9,0,-3.6,-1.9,-3.6,-4.2Z" class="g6_1" />
<path fill-rule="evenodd" d="M767.4,259.7c0,-2.3,1.7,-4.1,3.7,-4.1c2,0,3.7,1.8,3.7,4.1c0,2.3,-1.7,4.1,-3.7,4.1c-2,0,-3.7,-1.8,-3.7,-4.1Z" class="g5_1" />
<path d="M767.4,259.7c0,-2.3,1.7,-4.1,3.7,-4.1c2,0,3.7,1.8,3.7,4.1c0,2.3,-1.7,4.1,-3.7,4.1c-2,0,-3.7,-1.8,-3.7,-4.1Z" class="g6_1" />
<path fill-rule="evenodd" d="M781.6,248.7c0,-2.3,1.6,-4.1,3.5,-4.1c2,0,3.6,1.8,3.6,4.1c0,2.3,-1.6,4.1,-3.6,4.1c-1.9,0,-3.5,-1.8,-3.5,-4.1Z" class="g5_1" />
<path d="M781.6,248.7c0,-2.3,1.6,-4.1,3.5,-4.1c2,0,3.6,1.8,3.6,4.1c0,2.3,-1.6,4.1,-3.6,4.1c-1.9,0,-3.5,-1.8,-3.5,-4.1Z" class="g6_1" />
<path fill-rule="evenodd" d="M828.1,237.1c0,-2.2,1.6,-4.1,3.6,-4.1c2,0,3.6,1.9,3.6,4.1c0,2.3,-1.6,4.2,-3.6,4.2c-2,0,-3.6,-1.9,-3.6,-4.2Z" class="g5_1" />
<path d="M828.1,237.1c0,-2.2,1.6,-4.1,3.6,-4.1c2,0,3.6,1.9,3.6,4.1c0,2.3,-1.6,4.2,-3.6,4.2c-2,0,-3.6,-1.9,-3.6,-4.2Z" class="g6_1" />
<path fill-rule="evenodd" d="M822.6,256.9c0,-2.2,1.7,-4.1,3.7,-4.1c2,0,3.6,1.9,3.6,4.1c0,2.3,-1.6,4.2,-3.6,4.2c-2,0,-3.7,-1.9,-3.7,-4.2Z" class="g5_1" />
<path d="M822.6,256.9c0,-2.2,1.7,-4.1,3.7,-4.1c2,0,3.6,1.9,3.6,4.1c0,2.3,-1.6,4.2,-3.6,4.2c-2,0,-3.7,-1.9,-3.7,-4.2Z" class="g6_1" />
<path fill-rule="evenodd" d="M836.2,215.5c0,-2.3,1.6,-4.1,3.6,-4.1c1.9,0,3.5,1.8,3.5,4.1c0,2.3,-1.6,4.1,-3.5,4.1c-2,0,-3.6,-1.8,-3.6,-4.1Z" class="g5_1" />
<path d="M836.2,215.5c0,-2.3,1.6,-4.1,3.6,-4.1c1.9,0,3.5,1.8,3.5,4.1c0,2.3,-1.6,4.1,-3.5,4.1c-2,0,-3.6,-1.8,-3.6,-4.1Z" class="g6_1" />
<path fill-rule="evenodd" d="M850.1,229.8c0,-2.3,1.7,-4.1,3.7,-4.1c2,0,3.6,1.8,3.6,4.1c0,2.3,-1.6,4.1,-3.6,4.1c-2,0,-3.7,-1.8,-3.7,-4.1Z" class="g5_1" />
<path d="M850.1,229.8c0,-2.3,1.7,-4.1,3.7,-4.1c2,0,3.6,1.8,3.6,4.1c0,2.3,-1.6,4.1,-3.6,4.1c-2,0,-3.7,-1.8,-3.7,-4.1Z" class="g6_1" />
<path fill-rule="evenodd" d="M809.8,210.9c0,-2.3,1.6,-4.1,3.6,-4.1c1.9,0,3.5,1.8,3.5,4.1c0,2.3,-1.6,4.2,-3.5,4.2c-2,0,-3.6,-1.9,-3.6,-4.2Z" class="g5_1" />
<path d="M809.8,210.9c0,-2.3,1.6,-4.1,3.6,-4.1c1.9,0,3.5,1.8,3.5,4.1c0,2.3,-1.6,4.2,-3.5,4.2c-2,0,-3.6,-1.9,-3.6,-4.2Z" class="g6_1" />
<path fill-rule="evenodd" d="M868.1,239.9c0,-2.3,1.6,-4.1,3.6,-4.1c1.9,0,3.5,1.8,3.5,4.1c0,2.3,-1.6,4.1,-3.5,4.1c-2,0,-3.6,-1.8,-3.6,-4.1Z" class="g5_1" />
<path d="M868.1,239.9c0,-2.3,1.6,-4.1,3.6,-4.1c1.9,0,3.5,1.8,3.5,4.1c0,2.3,-1.6,4.1,-3.5,4.1c-2,0,-3.6,-1.8,-3.6,-4.1Z" class="g6_1" />
<path fill-rule="evenodd" d="M860.8,212.8c0,-2.3,1.6,-4.2,3.6,-4.2c2,0,3.7,1.9,3.7,4.2c0,2.2,-1.7,4.1,-3.7,4.1c-2,0,-3.6,-1.9,-3.6,-4.1Z" class="g5_1" />
<path d="M860.8,212.8c0,-2.3,1.6,-4.2,3.6,-4.2c2,0,3.7,1.9,3.7,4.2c0,2.2,-1.7,4.1,-3.7,4.1c-2,0,-3.6,-1.9,-3.6,-4.1Z" class="g6_1" />
<path fill-rule="evenodd" d="M731.3,195.3c0,-2.2,1.6,-4.1,3.6,-4.1c2,0,3.6,1.9,3.6,4.1c0,2.3,-1.6,4.2,-3.6,4.2c-2,0,-3.6,-1.9,-3.6,-4.2Z" class="g5_1" />
<path d="M731.3,195.3c0,-2.2,1.6,-4.1,3.6,-4.1c2,0,3.6,1.9,3.6,4.1c0,2.3,-1.6,4.2,-3.6,4.2c-2,0,-3.6,-1.9,-3.6,-4.2Z" class="g6_1" />
<image preserveAspectRatio="none" x="82" y="69" width="503" height="273" xlink:href="1/img/1.png" />

<defs>
<path d="M482,-11c0,0,-94,0,-170,31c0,0,-76,31,-129,92c0,0,-53,61,-82,151c0,0,-29,90,-29,207c0,0,0,120,31,214c0,0,31,94,87,159c0,0,56,65,134,100c0,0,78,34,173,34c0,0,41,0,81,-8c0,0,39,-8,73,-19c0,0,33,-12,60,-28c0,0,26,-15,36,-25c0,0,10,-10,13,-15c0,0,3,-6,5,-13c0,0,1,-7,3,-17c0,0,1,-9,1,-23c0,0,0,-15,-2,-25c0,0,-1,-11,-4,-18c0,0,-3,-7,-7,-10c0,0,-4,-4,-10,-4c0,0,-11,0,-30,15c0,0,-18,14,-48,32c0,0,-29,17,-71,32c0,0,-42,14,-101,14c0,0,-64,0,-117,-25c0,0,-52,-26,-90,-76c0,0,-37,-50,-57,-122c0,0,-21,-72,-21,-164c0,0,0,-92,20,-163c0,0,20,-70,57,-117c0,0,36,-48,90,-72c0,0,54,-24,122,-24c0,0,57,0,100,14c0,0,43,14,73,32c0,0,30,17,50,31c0,0,19,15,30,15c0,0,5,0,9,-3c0,0,4,-2,6,-8c0,0,2,-7,3,-18c0,0,2,-11,2,-28c0,0,0,-12,-1,-21c0,0,-1,-9,-3,-16c0,0,-2,-6,-5,-12c0,0,-3,-5,-10,-12c0,0,-8,-8,-31,-23c0,0,-24,-15,-60,-30C663,23,628,8,582,-1c0,0,-46,-10,-100,-10Z" 
id="f0_j"
transform="scale(0.001,-0.001)" />

<path d="M351,-13c0,0,-67,0,-113,22c0,0,-46,22,-75,60c0,0,-28,39,-40,90c0,0,-13,51,-13,124V690c0,0,0,6,3,10c0,0,3,4,10,7c0,0,8,4,20,5c0,0,11,1,29,1c0,0,18,0,30,-1c0,0,12,-1,19,-5c0,0,7,-3,10,-7c0,0,3,-4,3,-10V299c0,0,0,-59,9,-94c0,0,8,-36,26,-61c0,0,18,-24,44,-38c0,0,27,-14,63,-14c0,0,46,0,92,33c0,0,46,32,98,95V690c0,0,0,6,2,10c0,0,3,4,10,7c0,0,8,4,19,5c0,0,12,1,30,1c0,0,18,0,30,-1c0,0,12,-1,19,-5c0,0,7,-3,10,-7c0,0,3,-4,3,-10V18c0,0,0,-6,-2,-10c0,0,-3,-4,-10,-7c0,0,-6,-2,-17,-3c0,0,-11,-2,-27,-2c0,0,-17,0,-28,2c0,0,-10,1,-17,3c0,0,-6,3,-8,7c0,0,-3,4,-3,10v89c0,0,-57,-63,-113,-92c0,0,-56,-28,-113,-28Z" 
id="f0_c6"
transform="scale(0.001,-0.001)" />

<path d="M176,-4c0,0,-18,0,-30,2c0,0,-12,1,-19,3c0,0,-7,3,-10,7c0,0,-3,4,-3,10V690c0,0,0,6,3,10c0,0,2,4,9,7c0,0,6,4,17,5c0,0,10,1,27,1c0,0,17,0,28,-1c0,0,10,-1,16,-5c0,0,6,-3,9,-7c0,0,3,-4,3,-10V601c0,0,56,64,110,94c0,0,53,30,108,30c0,0,42,0,75,-10c0,0,33,-10,58,-28c0,0,26,-17,44,-42c0,0,18,-24,30,-55c0,0,33,37,63,63c0,0,31,26,59,41c0,0,28,16,54,23c0,0,27,8,53,8c0,0,65,0,109,-23c0,0,44,-23,71,-61c0,0,28,-38,39,-89c0,0,12,-52,12,-108V18c0,0,0,-6,-3,-10c0,0,-3,-4,-10,-7c0,0,-7,-2,-19,-3c0,0,-12,-2,-29,-2c0,0,-19,0,-31,2c0,0,-12,1,-19,3c0,0,-7,3,-10,7c0,0,-3,4,-3,10V427c0,0,0,43,-8,78c0,0,-7,35,-23,61c0,0,-17,25,-42,38c0,0,-25,14,-60,14c0,0,-42,0,-85,-33c0,0,-43,-33,-94,-96V18c0,0,0,-6,-3,-10c0,0,-3,-4,-11,-7c0,0,-7,-2,-19,-3c0,0,-11,-2,-29,-2c0,0,-18,0,-30,2c0,0,-12,1,-19,3c0,0,-7,3,-10,7c0,0,-3,4,-3,10V427c0,0,0,43,-8,78c0,0,-8,35,-24,61c0,0,-17,25,-42,38c0,0,-25,14,-59,14c0,0,-43,0,-86,-33c0,0,-44,-33,-95,-96V18c0,0,0,-6,-3,-10c0,0,-2,-4,-9,-7c0,0,-7,-2,-19,-3c0,0,-12,-2,-30,-2Z" 
id="f0_ae"
transform="scale(0.001,-0.001)" />

<path d="M176,-4c0,0,-18,0,-30,2c0,0,-12,1,-19,3c0,0,-7,3,-10,7c0,0,-3,4,-3,10v997c0,0,0,6,3,11c0,0,3,4,10,7c0,0,7,3,19,5c0,0,12,1,30,1c0,0,18,0,30,-1c0,0,12,-2,19,-5c0,0,7,-3,9,-7c0,0,3,-5,3,-11V18c0,0,0,-6,-3,-10c0,0,-2,-4,-9,-7c0,0,-7,-2,-19,-3c0,0,-12,-2,-30,-2Z" 
id="f0_a8"
transform="scale(0.001,-0.001)" />

<path d="M272,-13c0,0,-35,0,-68,6c0,0,-32,6,-58,13c0,0,-26,9,-44,18c0,0,-17,10,-26,17c0,0,-8,8,-12,21c0,0,-3,14,-3,37c0,0,0,14,1,24c0,0,2,9,4,15c0,0,2,6,6,9c0,0,4,3,10,3c0,0,8,0,24,-11c0,0,16,-10,39,-22c0,0,24,-12,56,-22c0,0,32,-10,74,-10c0,0,31,0,56,7c0,0,26,6,44,19c0,0,19,14,29,34c0,0,10,20,10,47c0,0,0,29,-14,48c0,0,-15,19,-39,34c0,0,-24,15,-53,27c0,0,-30,11,-62,24c0,0,-32,13,-62,29c0,0,-30,16,-54,39c0,0,-24,23,-38,55c0,0,-15,32,-15,77c0,0,0,40,16,76c0,0,15,36,45,63c0,0,31,28,77,44c0,0,46,17,107,17c0,0,27,0,54,-5c0,0,26,-5,48,-11c0,0,22,-7,37,-15c0,0,15,-8,23,-14c0,0,8,-6,11,-11c0,0,2,-4,3,-10c0,0,1,-5,2,-14c0,0,2,-8,2,-20c0,0,0,-12,-2,-22c0,0,-1,-9,-3,-15c0,0,-3,-6,-7,-8c0,0,-3,-3,-8,-3c0,0,-7,0,-19,8c0,0,-13,8,-33,18c0,0,-20,9,-47,17c0,0,-28,9,-63,9c0,0,-31,0,-55,-7c0,0,-24,-7,-39,-20c0,0,-15,-13,-23,-31c0,0,-8,-18,-8,-39c0,0,0,-29,15,-49c0,0,15,-20,39,-35c0,0,24,-15,54,-27c0,0,31,-11,62,-24c0,0,32,-13,63,-29c0,0,31,-15,55,-38c0,0,24,-22,38,-53c0,0,15,-32,15,-75c0,0,0,-51,-19,-92c0,0,-19,-40,-54,-68C463,42,428,15,379,1c0,0,-48,-14,-107,-14Z" 
id="f0_b5"
transform="scale(0.001,-0.001)" />

<path d="M176,0c0,0,-17,0,-33,12c0,0,-15,11,-15,40V946c0,0,0,6,3,11c0,0,3,4,11,7c0,0,7,2,20,4c0,0,12,2,30,2c0,0,19,0,31,-2c0,0,13,-2,20,-4c0,0,7,-3,10,-7c0,0,3,-5,3,-11V111H603c0,0,6,0,11,-3c0,0,5,-3,8,-10c0,0,4,-6,5,-16c0,0,2,-11,2,-26c0,0,0,-15,-2,-25c0,0,-1,-10,-5,-17c0,0,-3,-7,-8,-11c0,0,-5,-3,-11,-3Z" 
id="f0_1r"
transform="scale(0.001,-0.001)" />

<path d="M321,82c0,0,48,0,90,25c0,0,41,24,87,75V325H392c0,0,-50,0,-88,-9c0,0,-37,-9,-62,-25c0,0,-24,-17,-36,-41c0,0,-11,-23,-11,-54c0,0,0,-52,33,-83c0,0,33,-31,93,-31ZM301,-13c0,0,-53,0,-96,13c0,0,-43,14,-73,40c0,0,-30,26,-47,64c0,0,-17,38,-17,87c0,0,0,56,24,98c0,0,23,42,66,69c0,0,43,28,106,42c0,0,63,14,141,14h93v52c0,0,0,39,-9,69c0,0,-8,30,-26,50c0,0,-18,20,-47,30c0,0,-30,10,-72,10c0,0,-46,0,-82,-11c0,0,-36,-11,-63,-24c0,0,-27,-13,-46,-24c0,0,-18,-11,-27,-11c0,0,-6,0,-10,3c0,0,-5,3,-8,9c0,0,-3,6,-5,16c0,0,-1,9,-1,20c0,0,0,19,2,30c0,0,3,11,13,20c0,0,10,10,35,23c0,0,24,13,56,24c0,0,32,10,70,17c0,0,38,8,77,8c0,0,73,0,123,-17c0,0,51,-16,82,-48c0,0,32,-32,46,-79c0,0,14,-47,14,-110V18c0,0,0,-9,-6,-14c0,0,-6,-4,-16,-6c0,0,-11,-2,-31,-2c0,0,-19,0,-31,2c0,0,-12,2,-17,6c0,0,-5,5,-5,13V85c0,0,-44,-47,-98,-73c0,0,-54,-25,-115,-25Z" 
id="f0_77"
transform="scale(0.001,-0.001)" />

<path d="M252,-271c0,0,-19,0,-31,2c0,0,-12,2,-18,6c0,0,-7,5,-8,12c0,0,0,8,4,18L292,0c0,0,-7,3,-13,10c0,0,-6,6,-8,14L31,665c0,0,-6,16,-6,25c0,0,0,9,6,14c0,0,6,5,20,7c0,0,13,2,36,2c0,0,22,0,35,-1c0,0,12,-1,20,-4c0,0,7,-3,11,-9c0,0,3,-6,7,-15L351,145h3L539,687c0,0,4,14,10,18c0,0,7,4,19,6c0,0,13,2,37,2c0,0,21,0,34,-2c0,0,14,-2,20,-7c0,0,6,-5,6,-14c0,0,0,-9,-4,-23L420,0L330,-246c0,0,-4,-12,-22,-18c0,0,-19,-7,-56,-7Z" 
id="f0_co"
transform="scale(0.001,-0.001)" />

<path d="M564,420c0,0,2,98,-43,153c0,0,-46,56,-134,56c0,0,-46,0,-80,-18c0,0,-35,-17,-58,-45c0,0,-23,-29,-36,-67c0,0,-12,-37,-14,-79ZM405,-13c0,0,-83,0,-145,22c0,0,-62,24,-105,69c0,0,-42,46,-64,114c0,0,-22,69,-22,160c0,0,0,87,23,156c0,0,22,69,64,117c0,0,43,48,102,74c0,0,60,26,134,26c0,0,79,0,135,-26c0,0,55,-25,91,-68c0,0,36,-43,53,-101c0,0,16,-58,16,-123V384c0,0,0,-29,-14,-41c0,0,-15,-13,-33,-13H199c0,0,0,-56,11,-100c0,0,12,-45,38,-77c0,0,26,-33,68,-50c0,0,41,-17,102,-17c0,0,48,0,85,8c0,0,37,8,65,17c0,0,27,10,44,18c0,0,18,8,27,8c0,0,5,0,9,-3c0,0,4,-2,7,-8c0,0,2,-5,3,-14c0,0,1,-9,1,-23c0,0,0,-9,-1,-16c0,0,0,-8,-2,-13c0,0,-1,-6,-3,-10c0,0,-3,-5,-7,-9c0,0,-4,-4,-24,-13c0,0,-20,-10,-53,-18c0,0,-32,-9,-74,-16c0,0,-42,-7,-90,-7Z" 
id="f0_7z"
transform="scale(0.001,-0.001)" />

<path d="M176,-4c0,0,-18,0,-30,2c0,0,-12,1,-19,3c0,0,-7,3,-10,7c0,0,-3,4,-3,10V690c0,0,0,6,3,10c0,0,2,4,9,7c0,0,6,4,17,5c0,0,10,1,27,1c0,0,17,0,28,-1c0,0,10,-1,16,-5c0,0,6,-3,9,-7c0,0,3,-4,3,-10V592c0,0,27,41,51,66c0,0,25,26,46,41c0,0,22,14,43,20c0,0,21,6,43,6c0,0,10,0,22,-2c0,0,12,-1,26,-4c0,0,13,-3,24,-6c0,0,11,-4,15,-8c0,0,5,-4,6,-7c0,0,2,-3,3,-9c0,0,1,-5,1,-15c0,0,0,-10,0,-27c0,0,0,-16,0,-28c0,0,-1,-11,-3,-17c0,0,-2,-6,-6,-10c0,0,-3,-3,-9,-3c0,0,-6,0,-15,3c0,0,-8,4,-19,7c0,0,-11,3,-24,6c0,0,-14,3,-29,3c0,0,-19,0,-37,-7c0,0,-18,-8,-37,-25c0,0,-20,-18,-42,-46c0,0,-21,-29,-48,-70V18c0,0,0,-6,-3,-10c0,0,-2,-4,-9,-7c0,0,-7,-2,-19,-3c0,0,-12,-2,-30,-2Z" 
id="f0_b1"
transform="scale(0.001,-0.001)" />

<path d="M429,92c0,0,47,0,80,22c0,0,33,23,54,60c0,0,20,38,30,84c0,0,10,46,10,93c0,0,0,52,-8,100c0,0,-8,48,-27,86c0,0,-19,37,-51,60c0,0,-32,22,-80,22c0,0,-24,0,-47,-7c0,0,-23,-7,-47,-23c0,0,-24,-15,-50,-40c0,0,-26,-25,-56,-62V220c0,0,51,-62,97,-95c0,0,45,-33,95,-33ZM176,-271c0,0,-18,0,-30,2c0,0,-12,1,-19,4c0,0,-7,3,-10,8c0,0,-3,4,-3,10V690c0,0,0,6,3,10c0,0,2,5,9,8c0,0,6,3,17,4c0,0,10,1,25,1c0,0,16,0,26,-1c0,0,10,-1,17,-4c0,0,6,-3,9,-7c0,0,3,-4,3,-11V601c0,0,30,31,59,54c0,0,28,23,57,39c0,0,28,15,59,23c0,0,30,8,63,8c0,0,74,0,125,-29c0,0,52,-28,84,-77c0,0,32,-50,47,-115c0,0,15,-65,15,-139c0,0,0,-88,-19,-158c0,0,-19,-70,-56,-119c0,0,-37,-49,-91,-75c0,0,-55,-26,-125,-26c0,0,-30,0,-55,6c0,0,-25,6,-50,18c0,0,-24,13,-48,32c0,0,-24,19,-51,46V-247c0,0,0,-6,-3,-10c0,0,-2,-5,-9,-8c0,0,-7,-3,-19,-4c0,0,-12,-2,-30,-2Z" 
id="f0_ay"
transform="scale(0.001,-0.001)" />

<path d="M366,92c0,0,25,0,48,7c0,0,22,6,46,22c0,0,24,16,50,41c0,0,26,24,56,61V492c0,0,-51,62,-97,94c0,0,-47,33,-98,33c0,0,-47,0,-79,-22c0,0,-33,-23,-54,-59c0,0,-20,-37,-30,-83c0,0,-9,-47,-9,-94c0,0,0,-51,8,-100c0,0,8,-48,27,-86c0,0,19,-38,52,-60c0,0,32,-23,80,-23ZM345,-13c0,0,-74,0,-127,28c0,0,-52,29,-84,78c0,0,-33,49,-48,115c0,0,-15,66,-15,139c0,0,0,86,19,156c0,0,19,70,55,119c0,0,37,50,91,76c0,0,54,27,125,27c0,0,59,0,108,-26c0,0,49,-26,97,-76v390c0,0,0,5,2,10c0,0,3,4,10,7c0,0,8,3,19,5c0,0,12,1,30,1c0,0,18,0,30,-1c0,0,12,-2,19,-5c0,0,7,-3,10,-7c0,0,3,-5,3,-10V18c0,0,0,-6,-2,-10c0,0,-3,-5,-9,-7c0,0,-7,-2,-17,-3c0,0,-10,-2,-25,-2c0,0,-16,0,-26,2c0,0,-11,1,-18,3c0,0,-6,2,-9,7c0,0,-3,4,-3,10v90c0,0,-53,-58,-110,-90c0,0,-58,-31,-125,-31Z" 
id="f0_7v"
transform="scale(0.001,-0.001)" />

<path d="M324,-4c0,0,-23,0,-37,2c0,0,-15,1,-24,3c0,0,-9,3,-14,8c0,0,-4,6,-7,13L46,660c0,0,-4,11,-5,18c0,0,-2,8,-2,13c0,0,0,7,3,11c0,0,3,4,10,7c0,0,8,2,19,3c0,0,12,1,30,1c0,0,20,0,33,-1c0,0,13,-1,20,-4c0,0,6,-3,9,-8c0,0,3,-4,5,-11L330,136l2,-7l1,7L482,689c0,0,1,7,5,11c0,0,3,5,10,8c0,0,6,3,18,4c0,0,12,1,31,1c0,0,18,0,29,-1c0,0,12,-1,18,-4c0,0,7,-3,10,-7c0,0,3,-5,5,-11L768,136l1,-7l1,7L930,689c0,0,1,7,5,11c0,0,3,5,10,8c0,0,7,3,20,4c0,0,12,1,31,1c0,0,18,0,29,-1c0,0,11,-1,17,-4c0,0,6,-3,9,-6c0,0,3,-4,3,-11c0,0,0,-5,-2,-13c0,0,-1,-7,-5,-18L849,22c0,0,-2,-8,-7,-13c0,0,-5,-6,-13,-9c0,0,-9,-2,-24,-3c0,0,-15,-1,-37,-1c0,0,-23,0,-39,2c0,0,-15,1,-25,3c0,0,-9,3,-14,8c0,0,-4,6,-6,13L543,510l-2,6l-2,-6L409,22c0,0,-3,-8,-7,-13c0,0,-5,-6,-15,-9c0,0,-10,-2,-25,-3c0,0,-15,-1,-38,-1Z" 
id="f0_ci"
transform="scale(0.001,-0.001)" />

<path d="M176,-4c0,0,-18,0,-30,2c0,0,-12,1,-19,3c0,0,-7,3,-10,7c0,0,-3,4,-3,10V690c0,0,0,5,3,9c0,0,3,5,10,8c0,0,7,3,19,4c0,0,12,2,30,2c0,0,18,0,30,-2c0,0,12,-1,19,-4c0,0,7,-3,9,-8c0,0,3,-4,3,-9V18c0,0,0,-6,-3,-10c0,0,-2,-4,-9,-7c0,0,-7,-2,-19,-3c0,0,-12,-2,-30,-2Zm-1,846c0,0,-43,0,-59,15c0,0,-16,15,-16,58c0,0,0,43,16,59c0,0,17,16,61,16c0,0,43,0,59,-16c0,0,16,-15,16,-58c0,0,0,-43,-16,-58c0,0,-17,-16,-61,-16Z" 
id="f0_9q"
transform="scale(0.001,-0.001)" />

<path d="M339,-13c0,0,-52,0,-90,13c0,0,-37,14,-61,42c0,0,-24,28,-34,71c0,0,-11,43,-11,101V607H49c0,0,-11,0,-18,12c0,0,-7,12,-7,39c0,0,0,14,2,24c0,0,2,10,5,16c0,0,3,7,8,9c0,0,5,3,11,3h93V870c0,0,0,5,2,9c0,0,3,5,10,8c0,0,7,4,19,5c0,0,12,2,30,2c0,0,19,0,31,-2c0,0,11,-1,18,-5c0,0,7,-3,10,-8c0,0,3,-4,3,-9V710H438c0,0,6,0,10,-3c0,0,5,-2,8,-9c0,0,4,-6,5,-16c0,0,1,-10,1,-24c0,0,0,-27,-6,-39c0,0,-7,-12,-18,-12H266V232c0,0,0,-69,20,-105c0,0,21,-35,74,-35c0,0,17,0,30,3c0,0,14,4,24,7c0,0,10,4,18,7c0,0,7,4,13,4c0,0,4,0,7,-2c0,0,4,-2,6,-7c0,0,2,-5,3,-14c0,0,1,-9,1,-23c0,0,0,-22,-2,-34c0,0,-3,-13,-9,-19c0,0,-6,-6,-18,-11c0,0,-12,-4,-28,-8c0,0,-15,-3,-32,-5c0,0,-17,-3,-34,-3Z" 
id="f0_bf"
transform="scale(0.001,-0.001)" />

<path d="M176,-4c0,0,-18,0,-30,2c0,0,-12,1,-19,3c0,0,-7,3,-10,7c0,0,-3,4,-3,10v997c0,0,0,6,3,11c0,0,3,4,10,7c0,0,7,3,19,5c0,0,12,1,30,1c0,0,18,0,30,-1c0,0,12,-2,19,-5c0,0,7,-3,9,-7c0,0,3,-5,3,-10V614c0,0,53,56,107,83c0,0,54,28,108,28c0,0,67,0,113,-23c0,0,46,-23,74,-61c0,0,29,-38,41,-89c0,0,12,-52,12,-124V18c0,0,0,-6,-3,-10c0,0,-3,-4,-9,-7c0,0,-7,-2,-19,-3c0,0,-12,-2,-30,-2c0,0,-19,0,-30,2c0,0,-12,1,-19,3c0,0,-7,3,-10,7c0,0,-3,4,-3,10V412c0,0,0,58,-9,93c0,0,-9,35,-26,61c0,0,-17,25,-44,38c0,0,-27,14,-63,14c0,0,-46,0,-93,-33c0,0,-46,-33,-97,-96V18c0,0,0,-6,-3,-10c0,0,-2,-4,-9,-7c0,0,-7,-2,-19,-3c0,0,-12,-2,-30,-2Z" 
id="f0_9n"
transform="scale(0.001,-0.001)" />

<path d="M401,90c0,0,54,0,93,19c0,0,40,20,65,55c0,0,26,35,37,84c0,0,12,48,12,106c0,0,0,55,-10,104c0,0,-10,48,-33,85c0,0,-23,36,-62,58c0,0,-40,21,-99,21c0,0,-54,0,-93,-20c0,0,-39,-19,-65,-54c0,0,-25,-36,-37,-85c0,0,-12,-48,-12,-106c0,0,0,-55,10,-103c0,0,10,-49,33,-85c0,0,24,-36,63,-58c0,0,39,-21,98,-21ZM395,-13c0,0,-82,0,-144,24c0,0,-61,25,-102,72c0,0,-41,47,-61,114c0,0,-21,67,-21,152c0,0,0,82,22,151c0,0,21,69,64,119c0,0,43,50,107,78c0,0,64,28,150,28c0,0,82,0,144,-25c0,0,61,-25,102,-72c0,0,41,-47,62,-114c0,0,20,-67,20,-151c0,0,0,-83,-21,-152c0,0,-22,-69,-65,-119C652,92,609,42,545,14c0,0,-65,-27,-150,-27Z" 
id="f0_am"
transform="scale(0.001,-0.001)" />

<path d="M176,-4c0,0,-18,0,-30,2c0,0,-12,1,-19,3c0,0,-7,3,-10,7c0,0,-3,4,-3,10V690c0,0,0,6,3,10c0,0,2,4,9,7c0,0,6,4,17,5c0,0,10,1,27,1c0,0,17,0,28,-1c0,0,10,-1,16,-5c0,0,6,-3,9,-7c0,0,3,-4,3,-10V601c0,0,56,64,112,94c0,0,57,30,114,30c0,0,67,0,113,-23c0,0,46,-23,74,-61c0,0,29,-38,41,-89c0,0,12,-52,12,-123V18c0,0,0,-6,-3,-10c0,0,-3,-4,-9,-7c0,0,-7,-2,-19,-3c0,0,-12,-2,-30,-2c0,0,-19,0,-30,2c0,0,-12,1,-19,3c0,0,-7,3,-10,7c0,0,-3,4,-3,10V412c0,0,0,58,-9,93c0,0,-9,35,-26,61c0,0,-17,25,-44,38c0,0,-27,14,-63,14c0,0,-46,0,-93,-33c0,0,-46,-33,-97,-96V18c0,0,0,-6,-3,-10c0,0,-2,-4,-9,-7c0,0,-7,-2,-19,-3c0,0,-12,-2,-30,-2Z" 
id="f0_af"
transform="scale(0.001,-0.001)" />


</defs>

<!-- Any embedded fonts defined here -->
<style type="text/css" ><![CDATA[

@font-face {
	font-family: Calibri_5;
	src: url("fonts/Calibri_5.woff") format("woff");
}

]]></style>

</svg>
