<?xml version="1.0" encoding="UTF-8" standalone="no"?>
<!DOCTYPE svg PUBLIC "-//W3C//DTD SVG 1.1//EN"
"http://www.w3.org/Graphics/SVG/1.1/DTD/svg11.dtd">


<!-- Page 1 -->
<svg x="0" y="0" width="1775" height="435" viewBox="0 0 1775 435" version="1.1" xmlns="http://www.w3.org/2000/svg" xmlns:xlink="http://www.w3.org/1999/xlink"
style="display: block;margin-left: auto;margin-right: auto;">
<defs>
<clipPath id="c0_1"><path d="M0,435.2V0H1775.4V435.2Z" /></clipPath>
<clipPath id="c1_1"><path d="M0,435.2V0H1775.4V435.2H0Z" /></clipPath>
<clipPath id="c2_1"><path d="M1775.4,435.2H0V0H1775.4V435.2Z" /></clipPath>

<style type="text/css"><![CDATA[

.g0_1{
fill: #FFFFFF;
}
.g1_1{
fill: #DAE3F3;
}
.g2_1{
fill: none;
stroke: #000000;
stroke-width: 1.4666667;
stroke-linecap: butt;
stroke-linejoin: miter;
}
.g3_1{
fill: #B4C7E7;
}
.g4_1{
fill: #9DC3E6;
}
.g5_1{
fill: none;
stroke: #70AD47;
stroke-width: 2.3833332;
stroke-linecap: butt;
stroke-linejoin: miter;
}
.g6_1{
fill: none;
stroke: #000000;
stroke-width: 0.73333335;
stroke-linecap: butt;
stroke-linejoin: miter;
}
.g7_1{
fill: none;
stroke: #4472C4;
stroke-width: 1.5277778;
stroke-linecap: butt;
stroke-linejoin: miter;
}
.g8_1{
fill: none;
stroke: #5B9BD5;
stroke-width: 1.4666667;
stroke-linecap: butt;
stroke-linejoin: miter;
}
.g9_1{
fill: #FF0000;
}
.g10_1{
fill: none;
stroke: #FF0000;
stroke-width: 1.4666667;
stroke-linecap: butt;
stroke-linejoin: miter;
}
.g11_1{
fill: none;
stroke: #000000;
stroke-width: 1.5277778;
stroke-linecap: butt;
stroke-linejoin: miter;
}

.s1_1{
font-size: 19.98px;
font-family: Calibri_5;
fill: TRANSPARENT;
}
.s2_1{
font-size: 17.97px;
font-family: Calibri_5;
fill: TRANSPARENT;
}
text::-moz-selection {
	color: transparent;
	background: rgba(0, 106, 173, 0.4);
}
text::selection {
	color: transparent;
	background: rgba(0, 106, 173, 0.4);
}

]]></style>

</defs>
<path d="M0,0
L0,435
L1775,435
L1775,0 Z " 
fill="#FFFFFF" stroke="none" />
<g clip-path="url(#c0_1)">
<path fill-rule="evenodd" d="M0,435.2H1775.4V0H0V435.2Z" class="g0_1" />
</g>
<path fill-rule="evenodd" d="M245.7,318.6H762.3V240.7H245.7v77.9Z" class="g1_1" />
<path d="M245.7,318.6H762.3V240.7H245.7v77.9Z" class="g2_1" />
<path fill-rule="evenodd" d="M245.7,287.8H762.3V209.9H245.7v77.9Z" class="g3_1" />
<path d="M245.7,287.8H762.3V209.9H245.7v77.9Z" class="g2_1" />
<path fill-rule="evenodd" d="M245.7,212.9H762.3v-78H245.7v78Z" class="g4_1" />
<path d="M245.7,212.9H762.3v-78H245.7v78ZM60.5,374.9L656.9,13.8M60.5,374.9l802.2,10.9" class="g2_1" />
<path d="M365.3,290.1h91.8" class="g5_1" />
<path d="M134.9,339.4L365.2,289.3M139.3,352.5L457.1,291.7" class="g6_1" />
<path d="M143.3,337.4l4.1,15.4" class="g5_1" />
<g clip-path="url(#c0_1)">
<g fill="#000000" >
<use xlink:href="#f0_2x" transform="matrix(13.1,0,0,13.1,22.5,405.9)" />
<use xlink:href="#f0_b5" transform="matrix(13.1,0,0,13.1,35.3,405.9)" />
<use xlink:href="#f0_7z" transform="matrix(13.1,0,0,13.1,43.2,405.9)" />
<use xlink:href="#f0_b1" transform="matrix(13.1,0,0,13.1,53.2,405.9)" />
<use xlink:href="#f0_ay" transform="matrix(13.1,0,0,13.1,64.5,405.9)" />
<use xlink:href="#f0_am" transform="matrix(13.1,0,0,13.1,75,405.9)" />
<use xlink:href="#f0_9q" transform="matrix(13.1,0,0,13.1,85.4,405.9)" />
<use xlink:href="#f0_af" transform="matrix(13.1,0,0,13.1,90,405.9)" />
<use xlink:href="#f0_bf" transform="matrix(13.1,0,0,13.1,100.2,405.9)" />
<use xlink:href="#f0_am" transform="matrix(13.1,0,0,13.1,111.5,405.9)" />
<use xlink:href="#f0_89" transform="matrix(13.1,0,0,13.1,122,405.9)" />
<use xlink:href="#f0_ch" transform="matrix(13.1,0,0,13.1,132.9,405.9)" />
<use xlink:href="#f0_9q" transform="matrix(13.1,0,0,13.1,141.9,405.9)" />
<use xlink:href="#f0_7z" transform="matrix(13.1,0,0,13.1,146.5,405.9)" />
<use xlink:href="#f0_ci" transform="matrix(13.1,0,0,13.1,156.2,405.9)" />
<use xlink:href="#f0_5" transform="matrix(13.1,0,0,13.1,52,430)" />
</g>
</g>
<text x="22" y="405" dx="0,0,0.1,0,0,-0.2,0,-0.1,0,-0.2,0.1,0,-0.1,0,0.3,0,-0.1,-0.2" class="s1_1">User point of view</text>
<g clip-path="url(#c0_1)">
<g fill="#000000" >
<use xlink:href="#f0_af" transform="matrix(13.1,0,0,13.1,63.6,430)" />
<use xlink:href="#f0_7v" transform="matrix(13.1,0,0,13.1,74,430)" />
<use xlink:href="#f0_b5" transform="matrix(13.1,0,0,13.1,89.2,430)" />
<use xlink:href="#f0_a5" transform="matrix(13.1,0,0,13.1,97.1,430)" />
<use xlink:href="#f0_7z" transform="matrix(13.1,0,0,13.1,105.7,430)" />
<use xlink:href="#f0_bf" transform="matrix(13.1,0,0,13.1,115.4,430)" />
<use xlink:href="#f0_7l" transform="matrix(13.1,0,0,13.1,122,430)" />
<use xlink:href="#f0_9n" transform="matrix(13.1,0,0,13.1,130.4,430)" />
<use xlink:href="#f0_13" transform="matrix(13.1,0,0,13.1,660.1,39.9)" />
</g>
</g>
<text x="52" y="429" dx="0,0,-0.1,0,0.2,0,-0.5,-0.2,-0.1,0" class="s1_1">And sketch</text>
<g clip-path="url(#c0_1)">
<g fill="#000000" >
<use xlink:href="#f0_b1" transform="matrix(13.1,0,0,13.1,669.2,39.9)" />
<use xlink:href="#f0_c6" transform="matrix(13.1,0,0,13.1,676.2,39.9)" />
<use xlink:href="#f0_b5" transform="matrix(13.1,0,0,13.1,686.7,39.9)" />
<use xlink:href="#f0_bf" transform="matrix(13.1,0,0,13.1,694.4,39.9)" />
<use xlink:href="#f0_c6" transform="matrix(13.1,0,0,13.1,701.1,39.9)" />
<use xlink:href="#f0_ae" transform="matrix(13.1,0,0,13.1,711.6,39.9)" />
<use xlink:href="#f0_a8" transform="matrix(13.1,0,0,13.1,732.1,39.9)" />
<use xlink:href="#f0_9q" transform="matrix(13.1,0,0,13.1,736.7,39.9)" />
<use xlink:href="#f0_ae" transform="matrix(13.1,0,0,13.1,741.3,39.9)" />
<use xlink:href="#f0_9q" transform="matrix(13.1,0,0,13.1,757.2,39.9)" />
<use xlink:href="#f0_bf" transform="matrix(13.1,0,0,13.1,761.8,39.9)" />
<use xlink:href="#f0_2g" transform="matrix(13.1,0,0,13.1,415.9,271)" />
</g>
</g>
<text x="660" y="39" dx="0,0,0,0,-0.2,0.1,0,0,0,0,0,0,0" class="s1_1">Frustum limit</text>
<g clip-path="url(#c0_1)">
<g fill="#000000" >
<use xlink:href="#f0_b1" transform="matrix(13.1,0,0,13.1,426.2,271)" />
<use xlink:href="#f0_am" transform="matrix(13.1,0,0,13.1,432.8,271)" />
<use xlink:href="#f0_a2" transform="matrix(13.1,0,0,13.1,443.2,271)" />
<use xlink:href="#f0_7z" transform="matrix(13.1,0,0,13.1,448,271)" />
<use xlink:href="#f0_7l" transform="matrix(13.1,0,0,13.1,457.9,271)" />
<use xlink:href="#f0_bf" transform="matrix(13.1,0,0,13.1,466.3,271)" />
<use xlink:href="#f0_7z" transform="matrix(13.1,0,0,13.1,472.9,271)" />
<use xlink:href="#f0_7v" transform="matrix(13.1,0,0,13.1,482.9,271)" />
<use xlink:href="#f0_b5" transform="matrix(13.1,0,0,13.1,497.9,271)" />
<use xlink:href="#f0_a5" transform="matrix(13.1,0,0,13.1,505.8,271)" />
<use xlink:href="#f0_7z" transform="matrix(13.1,0,0,13.1,514.4,271)" />
<use xlink:href="#f0_bf" transform="matrix(13.1,0,0,13.1,524.1,271)" />
<use xlink:href="#f0_7l" transform="matrix(13.1,0,0,13.1,530.7,271)" />
<use xlink:href="#f0_9n" transform="matrix(13.1,0,0,13.1,539.1,271)" />
<use xlink:href="#f0_am" transform="matrix(13.1,0,0,13.1,554,271)" />
<use xlink:href="#f0_af" transform="matrix(13.1,0,0,13.1,564.4,271)" />
<use xlink:href="#f0_bf" transform="matrix(13.1,0,0,13.1,574.7,271)" />
<use xlink:href="#f0_am" transform="matrix(13.1,0,0,13.1,581.3,271)" />
<use xlink:href="#f0_a8" transform="matrix(13.1,0,0,13.1,596.3,271)" />
<use xlink:href="#f0_77" transform="matrix(13.1,0,0,13.1,600.9,271)" />
<use xlink:href="#f0_co" transform="matrix(13.1,0,0,13.1,610,271)" />
<use xlink:href="#f0_7z" transform="matrix(13.1,0,0,13.1,618.8,271)" />
<use xlink:href="#f0_b1" transform="matrix(13.1,0,0,13.1,628.8,271)" />
<use xlink:href="#f0_13" transform="matrix(13.1,0,0,13.1,762.3,420.5)" />
</g>
</g>
<text x="415" y="271" dx="0,-0.1,-0.4,-0.1,0,-0.1,0,-0.1,0,0,0,0,-0.5,-0.2,-0.1,0,-0.1,-0.1,-0.1,-0.2,-0.1,-0.1,0,0,-0.4,-0.3,0" class="s1_1">Projected sketch onto layer</text>
<g clip-path="url(#c0_1)">
<g fill="#000000" >
<use xlink:href="#f0_b1" transform="matrix(13.1,0,0,13.1,771.5,420.5)" />
<use xlink:href="#f0_c6" transform="matrix(13.1,0,0,13.1,778.4,420.5)" />
<use xlink:href="#f0_b5" transform="matrix(13.1,0,0,13.1,788.9,420.5)" />
<use xlink:href="#f0_bf" transform="matrix(13.1,0,0,13.1,796.6,420.5)" />
<use xlink:href="#f0_c6" transform="matrix(13.1,0,0,13.1,803.3,420.5)" />
<use xlink:href="#f0_ae" transform="matrix(13.1,0,0,13.1,813.8,420.5)" />
<use xlink:href="#f0_a8" transform="matrix(13.1,0,0,13.1,834.4,420.5)" />
<use xlink:href="#f0_9q" transform="matrix(13.1,0,0,13.1,838.9,420.5)" />
<use xlink:href="#f0_ae" transform="matrix(13.1,0,0,13.1,843.5,420.5)" />
<use xlink:href="#f0_9q" transform="matrix(13.1,0,0,13.1,859.5,420.5)" />
<use xlink:href="#f0_bf" transform="matrix(13.1,0,0,13.1,864.1,420.5)" />
<use xlink:href="#f0_rz" transform="matrix(11.8,0,0,11.8,766.9,293.6)" />
</g>
</g>
<text x="762" y="420" dx="0,0,0,0,-0.2,0.1,0,0,0,0,0,0,0" class="s1_1">Frustum limit</text>
<g clip-path="url(#c0_1)">
<g fill="#000000" >
<use xlink:href="#f0_rx" transform="matrix(11.8,0,0,11.8,776,293.6)" />
<use xlink:href="#f0_rx" transform="matrix(11.8,0,0,11.8,785.2,293.6)" />
<use xlink:href="#f0_rx" transform="matrix(11.8,0,0,11.8,794.3,293.6)" />
<use xlink:href="#f0_ae" transform="matrix(11.8,0,0,11.8,803.5,293.6)" />
<use xlink:href="#f0_1r" transform="matrix(11.8,0,0,11.8,821.8,293.6)" />
<use xlink:href="#f0_am" transform="matrix(11.8,0,0,11.8,829.3,293.6)" />
<use xlink:href="#f0_ci" transform="matrix(11.8,0,0,11.8,838.8,293.6)" />
<use xlink:href="#f0_1r" transform="matrix(11.8,0,0,11.8,855.7,293.6)" />
<use xlink:href="#f0_77" transform="matrix(11.8,0,0,11.8,863.2,293.6)" />
<use xlink:href="#f0_co" transform="matrix(11.8,0,0,11.8,871.8,293.6)" />
<use xlink:href="#f0_7z" transform="matrix(11.8,0,0,11.8,879.9,293.6)" />
<use xlink:href="#f0_b1" transform="matrix(11.8,0,0,11.8,888.9,293.6)" />
<use xlink:href="#f0_s1" transform="matrix(11.8,0,0,11.8,766.9,216.3)" />
</g>
</g>
<text x="766" y="293" dx="0,0,0,0,0,-0.1,0,-0.1,0.1,0,0,-0.1,0,-0.1,0" class="s2_1">2000m Low Layer</text>
<g clip-path="url(#c0_1)">
<g fill="#000000" >
<use xlink:href="#f0_s2" transform="matrix(11.8,0,0,11.8,776,216.3)" />
<use xlink:href="#f0_rx" transform="matrix(11.8,0,0,11.8,785.2,216.3)" />
<use xlink:href="#f0_rx" transform="matrix(11.8,0,0,11.8,794.3,216.3)" />
<use xlink:href="#f0_ae" transform="matrix(11.8,0,0,11.8,803.5,216.3)" />
<use xlink:href="#f0_1x" transform="matrix(11.8,0,0,11.8,821.8,216.3)" />
<use xlink:href="#f0_9q" transform="matrix(11.8,0,0,11.8,837.2,216.3)" />
<use xlink:href="#f0_7v" transform="matrix(11.8,0,0,11.8,841.2,216.3)" />
<use xlink:href="#f0_7v" transform="matrix(11.8,0,0,11.8,850.6,216.3)" />
<use xlink:href="#f0_a8" transform="matrix(11.8,0,0,11.8,859.9,216.3)" />
<use xlink:href="#f0_7z" transform="matrix(11.8,0,0,11.8,863.9,216.3)" />
<use xlink:href="#f0_a8" transform="matrix(11.8,0,0,11.8,877.3,216.3)" />
<use xlink:href="#f0_77" transform="matrix(11.8,0,0,11.8,881.3,216.3)" />
<use xlink:href="#f0_co" transform="matrix(11.8,0,0,11.8,889.9,216.3)" />
<use xlink:href="#f0_7z" transform="matrix(11.8,0,0,11.8,898,216.3)" />
<use xlink:href="#f0_b1" transform="matrix(11.8,0,0,11.8,907,216.3)" />
<use xlink:href="#f0_ry" transform="matrix(11.8,0,0,11.8,766.3,140.3)" />
</g>
</g>
<text x="766" y="216" dx="0,0,0,0,0,-0.1,0,0,-0.1,-0.1,-0.1,-0.1,0,0.4,-0.1,0,-0.1,0" class="s2_1">4500m Middle layer</text>
<g clip-path="url(#c0_1)">
<g fill="#000000" >
<use xlink:href="#f0_rx" transform="matrix(11.8,0,0,11.8,775.4,140.3)" />
<use xlink:href="#f0_rx" transform="matrix(11.8,0,0,11.8,784.6,140.3)" />
<use xlink:href="#f0_rx" transform="matrix(11.8,0,0,11.8,793.7,140.3)" />
<use xlink:href="#f0_rx" transform="matrix(11.8,0,0,11.8,802.9,140.3)" />
<use xlink:href="#f0_ae" transform="matrix(11.8,0,0,11.8,812,140.3)" />
<use xlink:href="#f0_19" transform="matrix(11.8,0,0,11.8,830.4,140.3)" />
<use xlink:href="#f0_9q" transform="matrix(11.8,0,0,11.8,841.6,140.3)" />
<use xlink:href="#f0_9d" transform="matrix(11.8,0,0,11.8,845.6,140.3)" />
<use xlink:href="#f0_9n" transform="matrix(11.8,0,0,11.8,854,140.3)" />
<use xlink:href="#f0_a8" transform="matrix(11.8,0,0,11.8,867.6,140.3)" />
<use xlink:href="#f0_77" transform="matrix(11.8,0,0,11.8,871.6,140.3)" />
<use xlink:href="#f0_co" transform="matrix(11.8,0,0,11.8,880.2,140.3)" />
<use xlink:href="#f0_7z" transform="matrix(11.8,0,0,11.8,888.3,140.3)" />
<use xlink:href="#f0_b1" transform="matrix(11.8,0,0,11.8,897.2,140.3)" />
</g>
</g>
<text x="766" y="140" dx="0,0,0,0,0,0,-0.1,0,0,-0.1,0,-0.1,0.1,-0.1,0,-0.1,0" class="s2_1">10000m High layer</text>
<image preserveAspectRatio="none" x="1245" y="14" width="412" height="412" xlink:href="1/img/1.png" />
<g clip-path="url(#c1_1)">
<path d="M1305.9,94.5L1258.7,24.1L1337,56.7Z" class="g7_1" />
</g>
<path d="M1258.8,24l398.6,164M1258.8,24l256.4,382.4" class="g8_1" />
<path fill-rule="evenodd" d="M1429.3,278.7L1590.8,160.6l-195,-80.5l-35.5,94.5l69,104.1Z" class="g9_1" />
<path d="M1429.3,278.7L1590.8,160.6l-195,-80.5l-35.5,94.5l69,104.1Z" class="g10_1" />
<g clip-path="url(#c0_1)">
<g fill="#000000" >
<use xlink:href="#f0_j" transform="matrix(13.1,0,0,13.1,1401.6,173.6)" />
<use xlink:href="#f0_am" transform="matrix(13.1,0,0,13.1,1412.2,173.6)" />
<use xlink:href="#f0_af" transform="matrix(13.1,0,0,13.1,1422.7,173.6)" />
<use xlink:href="#f0_89" transform="matrix(13.1,0,0,13.1,1432.9,173.6)" />
<use xlink:href="#f0_a8" transform="matrix(13.1,0,0,13.1,1439,173.6)" />
<use xlink:href="#f0_9q" transform="matrix(13.1,0,0,13.1,1443.6,173.6)" />
<use xlink:href="#f0_7l" transform="matrix(13.1,0,0,13.1,1448.1,173.6)" />
<use xlink:href="#f0_bf" transform="matrix(13.1,0,0,13.1,1456.6,173.6)" />
<use xlink:href="#f0_ct" transform="matrix(13.1,0,0,13.1,1468.1,173.6)" />
<use xlink:href="#f0_am" transform="matrix(13.1,0,0,13.1,1475.6,173.6)" />
<use xlink:href="#f0_af" transform="matrix(13.1,0,0,13.1,1486.1,173.6)" />
<use xlink:href="#f0_7z" transform="matrix(13.1,0,0,13.1,1496.5,173.6)" />
<use xlink:href="#f0_2g" transform="matrix(13.1,0,0,13.1,1176.8,362.9)" />
</g>
</g>
<text x="1401" y="173" dx="0,0,-0.1,-0.2,0,0,-0.1,0,0,0.2,-0.4,-0.1,0" class="s1_1">Conflict zone</text>
<g clip-path="url(#c0_1)">
<g fill="#000000" >
<use xlink:href="#f0_24" transform="matrix(13.1,0,0,13.1,1187.1,362.9)" />
<use xlink:href="#f0_38" transform="matrix(13.1,0,0,13.1,1200.1,362.9)" />
<use xlink:href="#f0_ry" transform="matrix(13.1,0,0,13.1,1215.9,362.9)" />
<use xlink:href="#f0_2g" transform="matrix(13.1,0,0,13.1,1179.4,31.8)" />
</g>
</g>
<text x="1176" y="362" dx="0,-0.1,-0.2,0,-0.1" class="s1_1">POV 1</text>
<g clip-path="url(#c0_1)">
<g fill="#000000" >
<use xlink:href="#f0_24" transform="matrix(13.1,0,0,13.1,1189.7,31.8)" />
<use xlink:href="#f0_38" transform="matrix(13.1,0,0,13.1,1202.7,31.8)" />
<use xlink:href="#f0_rz" transform="matrix(13.1,0,0,13.1,1218.5,31.8)" />
</g>
</g>
<text x="1179" y="31" dx="0,-0.1,-0.2,0,-0.1" class="s1_1">POV 2</text>
<g clip-path="url(#c0_1)">
<path d="M1337,354.5l-66.7,52.3L1300,327.4Z" class="g7_1" />
</g>
<path d="M1270.3,406.7L1419.4,13.8M1270.3,406.4L1665.1,101" class="g8_1" />
<g clip-path="url(#c2_1)">
<path d="M145.2,377.6l-84.7,-4l72.8,-43.5Z" class="g11_1" />
</g>

<defs>
<path d="M483,-13c0,0,-80,0,-145,22c0,0,-66,24,-113,69c0,0,-47,45,-73,113c0,0,-25,68,-25,156V946c0,0,0,6,3,11c0,0,3,4,11,7c0,0,7,2,19,4c0,0,12,2,31,2c0,0,18,0,31,-2c0,0,13,-2,20,-4c0,0,7,-3,10,-7c0,0,3,-5,3,-11V363c0,0,0,-67,16,-117c0,0,16,-50,47,-83c0,0,31,-34,75,-50c0,0,44,-17,98,-17c0,0,56,0,100,16c0,0,43,17,74,49c0,0,30,33,46,82c0,0,16,48,16,113V946c0,0,0,6,3,11c0,0,3,4,10,7c0,0,8,2,20,4c0,0,13,2,31,2c0,0,18,0,30,-2c0,0,13,-2,20,-4c0,0,7,-3,10,-7c0,0,4,-5,4,-11V357c0,0,0,-88,-26,-157c0,0,-26,-69,-74,-117C755,83,708,36,639,11c0,0,-69,-24,-156,-24Z" 
id="f0_2x"
transform="scale(0.001,-0.001)" />

<path d="M272,-13c0,0,-35,0,-68,6c0,0,-32,6,-58,13c0,0,-26,9,-44,18c0,0,-17,10,-26,17c0,0,-8,8,-12,21c0,0,-3,14,-3,37c0,0,0,14,1,24c0,0,2,9,4,15c0,0,2,6,6,9c0,0,4,3,10,3c0,0,8,0,24,-11c0,0,16,-10,39,-22c0,0,24,-12,56,-22c0,0,32,-10,74,-10c0,0,31,0,56,7c0,0,26,6,44,19c0,0,19,14,29,34c0,0,10,20,10,47c0,0,0,29,-14,48c0,0,-15,19,-39,34c0,0,-24,15,-53,27c0,0,-30,11,-62,24c0,0,-32,13,-62,29c0,0,-30,16,-54,39c0,0,-24,23,-38,55c0,0,-15,32,-15,77c0,0,0,40,16,76c0,0,15,36,45,63c0,0,31,28,77,44c0,0,46,17,107,17c0,0,27,0,54,-5c0,0,26,-5,48,-11c0,0,22,-7,37,-15c0,0,15,-8,23,-14c0,0,8,-6,11,-11c0,0,2,-4,3,-10c0,0,1,-5,2,-14c0,0,2,-8,2,-20c0,0,0,-12,-2,-22c0,0,-1,-9,-3,-15c0,0,-3,-6,-7,-8c0,0,-3,-3,-8,-3c0,0,-7,0,-19,8c0,0,-13,8,-33,18c0,0,-20,9,-47,17c0,0,-28,9,-63,9c0,0,-31,0,-55,-7c0,0,-24,-7,-39,-20c0,0,-15,-13,-23,-31c0,0,-8,-18,-8,-39c0,0,0,-29,15,-49c0,0,15,-20,39,-35c0,0,24,-15,54,-27c0,0,31,-11,62,-24c0,0,32,-13,63,-29c0,0,31,-15,55,-38c0,0,24,-22,38,-53c0,0,15,-32,15,-75c0,0,0,-51,-19,-92c0,0,-19,-40,-54,-68C463,42,428,15,379,1c0,0,-48,-14,-107,-14Z" 
id="f0_b5"
transform="scale(0.001,-0.001)" />

<path d="M564,420c0,0,2,98,-43,153c0,0,-46,56,-134,56c0,0,-46,0,-80,-18c0,0,-35,-17,-58,-45c0,0,-23,-29,-36,-67c0,0,-12,-37,-14,-79ZM405,-13c0,0,-83,0,-145,22c0,0,-62,24,-105,69c0,0,-42,46,-64,114c0,0,-22,69,-22,160c0,0,0,87,23,156c0,0,22,69,64,117c0,0,43,48,102,74c0,0,60,26,134,26c0,0,79,0,135,-26c0,0,55,-25,91,-68c0,0,36,-43,53,-101c0,0,16,-58,16,-123V384c0,0,0,-29,-14,-41c0,0,-15,-13,-33,-13H199c0,0,0,-56,11,-100c0,0,12,-45,38,-77c0,0,26,-33,68,-50c0,0,41,-17,102,-17c0,0,48,0,85,8c0,0,37,8,65,17c0,0,27,10,44,18c0,0,18,8,27,8c0,0,5,0,9,-3c0,0,4,-2,7,-8c0,0,2,-5,3,-14c0,0,1,-9,1,-23c0,0,0,-9,-1,-16c0,0,0,-8,-2,-13c0,0,-1,-6,-3,-10c0,0,-3,-5,-7,-9c0,0,-4,-4,-24,-13c0,0,-20,-10,-53,-18c0,0,-32,-9,-74,-16c0,0,-42,-7,-90,-7Z" 
id="f0_7z"
transform="scale(0.001,-0.001)" />

<path d="M176,-4c0,0,-18,0,-30,2c0,0,-12,1,-19,3c0,0,-7,3,-10,7c0,0,-3,4,-3,10V690c0,0,0,6,3,10c0,0,2,4,9,7c0,0,6,4,17,5c0,0,10,1,27,1c0,0,17,0,28,-1c0,0,10,-1,16,-5c0,0,6,-3,9,-7c0,0,3,-4,3,-10V592c0,0,27,41,51,66c0,0,25,26,46,41c0,0,22,14,43,20c0,0,21,6,43,6c0,0,10,0,22,-2c0,0,12,-1,26,-4c0,0,13,-3,24,-6c0,0,11,-4,15,-8c0,0,5,-4,6,-7c0,0,2,-3,3,-9c0,0,1,-5,1,-15c0,0,0,-10,0,-27c0,0,0,-16,0,-28c0,0,-1,-11,-3,-17c0,0,-2,-6,-6,-10c0,0,-3,-3,-9,-3c0,0,-6,0,-15,3c0,0,-8,4,-19,7c0,0,-11,3,-24,6c0,0,-14,3,-29,3c0,0,-19,0,-37,-7c0,0,-18,-8,-37,-25c0,0,-20,-18,-42,-46c0,0,-21,-29,-48,-70V18c0,0,0,-6,-3,-10c0,0,-2,-4,-9,-7c0,0,-7,-2,-19,-3c0,0,-12,-2,-30,-2Z" 
id="f0_b1"
transform="scale(0.001,-0.001)" />

<path d="M429,92c0,0,47,0,80,22c0,0,33,23,54,60c0,0,20,38,30,84c0,0,10,46,10,93c0,0,0,52,-8,100c0,0,-8,48,-27,86c0,0,-19,37,-51,60c0,0,-32,22,-80,22c0,0,-24,0,-47,-7c0,0,-23,-7,-47,-23c0,0,-24,-15,-50,-40c0,0,-26,-25,-56,-62V220c0,0,51,-62,97,-95c0,0,45,-33,95,-33ZM176,-271c0,0,-18,0,-30,2c0,0,-12,1,-19,4c0,0,-7,3,-10,8c0,0,-3,4,-3,10V690c0,0,0,6,3,10c0,0,2,5,9,8c0,0,6,3,17,4c0,0,10,1,25,1c0,0,16,0,26,-1c0,0,10,-1,17,-4c0,0,6,-3,9,-7c0,0,3,-4,3,-11V601c0,0,30,31,59,54c0,0,28,23,57,39c0,0,28,15,59,23c0,0,30,8,63,8c0,0,74,0,125,-29c0,0,52,-28,84,-77c0,0,32,-50,47,-115c0,0,15,-65,15,-139c0,0,0,-88,-19,-158c0,0,-19,-70,-56,-119c0,0,-37,-49,-91,-75c0,0,-55,-26,-125,-26c0,0,-30,0,-55,6c0,0,-25,6,-50,18c0,0,-24,13,-48,32c0,0,-24,19,-51,46V-247c0,0,0,-6,-3,-10c0,0,-2,-5,-9,-8c0,0,-7,-3,-19,-4c0,0,-12,-2,-30,-2Z" 
id="f0_ay"
transform="scale(0.001,-0.001)" />

<path d="M401,90c0,0,54,0,93,19c0,0,40,20,65,55c0,0,26,35,37,84c0,0,12,48,12,106c0,0,0,55,-10,104c0,0,-10,48,-33,85c0,0,-23,36,-62,58c0,0,-40,21,-99,21c0,0,-54,0,-93,-20c0,0,-39,-19,-65,-54c0,0,-25,-36,-37,-85c0,0,-12,-48,-12,-106c0,0,0,-55,10,-103c0,0,10,-49,33,-85c0,0,24,-36,63,-58c0,0,39,-21,98,-21ZM395,-13c0,0,-82,0,-144,24c0,0,-61,25,-102,72c0,0,-41,47,-61,114c0,0,-21,67,-21,152c0,0,0,82,22,151c0,0,21,69,64,119c0,0,43,50,107,78c0,0,64,28,150,28c0,0,82,0,144,-25c0,0,61,-25,102,-72c0,0,41,-47,62,-114c0,0,20,-67,20,-151c0,0,0,-83,-21,-152c0,0,-22,-69,-65,-119C652,92,609,42,545,14c0,0,-65,-27,-150,-27Z" 
id="f0_am"
transform="scale(0.001,-0.001)" />

<path d="M176,-4c0,0,-18,0,-30,2c0,0,-12,1,-19,3c0,0,-7,3,-10,7c0,0,-3,4,-3,10V690c0,0,0,5,3,9c0,0,3,5,10,8c0,0,7,3,19,4c0,0,12,2,30,2c0,0,18,0,30,-2c0,0,12,-1,19,-4c0,0,7,-3,9,-8c0,0,3,-4,3,-9V18c0,0,0,-6,-3,-10c0,0,-2,-4,-9,-7c0,0,-7,-2,-19,-3c0,0,-12,-2,-30,-2Zm-1,846c0,0,-43,0,-59,15c0,0,-16,15,-16,58c0,0,0,43,16,59c0,0,17,16,61,16c0,0,43,0,59,-16c0,0,16,-15,16,-58c0,0,0,-43,-16,-58c0,0,-17,-16,-61,-16Z" 
id="f0_9q"
transform="scale(0.001,-0.001)" />

<path d="M176,-4c0,0,-18,0,-30,2c0,0,-12,1,-19,3c0,0,-7,3,-10,7c0,0,-3,4,-3,10V690c0,0,0,6,3,10c0,0,2,4,9,7c0,0,6,4,17,5c0,0,10,1,27,1c0,0,17,0,28,-1c0,0,10,-1,16,-5c0,0,6,-3,9,-7c0,0,3,-4,3,-10V601c0,0,56,64,112,94c0,0,57,30,114,30c0,0,67,0,113,-23c0,0,46,-23,74,-61c0,0,29,-38,41,-89c0,0,12,-52,12,-123V18c0,0,0,-6,-3,-10c0,0,-3,-4,-9,-7c0,0,-7,-2,-19,-3c0,0,-12,-2,-30,-2c0,0,-19,0,-30,2c0,0,-12,1,-19,3c0,0,-7,3,-10,7c0,0,-3,4,-3,10V412c0,0,0,58,-9,93c0,0,-9,35,-26,61c0,0,-17,25,-44,38c0,0,-27,14,-63,14c0,0,-46,0,-93,-33c0,0,-46,-33,-97,-96V18c0,0,0,-6,-3,-10c0,0,-2,-4,-9,-7c0,0,-7,-2,-19,-3c0,0,-12,-2,-30,-2Z" 
id="f0_af"
transform="scale(0.001,-0.001)" />

<path d="M339,-13c0,0,-52,0,-90,13c0,0,-37,14,-61,42c0,0,-24,28,-34,71c0,0,-11,43,-11,101V607H49c0,0,-11,0,-18,12c0,0,-7,12,-7,39c0,0,0,14,2,24c0,0,2,10,5,16c0,0,3,7,8,9c0,0,5,3,11,3h93V870c0,0,0,5,2,9c0,0,3,5,10,8c0,0,7,4,19,5c0,0,12,2,30,2c0,0,19,0,31,-2c0,0,11,-1,18,-5c0,0,7,-3,10,-8c0,0,3,-4,3,-9V710H438c0,0,6,0,10,-3c0,0,5,-2,8,-9c0,0,4,-6,5,-16c0,0,1,-10,1,-24c0,0,0,-27,-6,-39c0,0,-7,-12,-18,-12H266V232c0,0,0,-69,20,-105c0,0,21,-35,74,-35c0,0,17,0,30,3c0,0,14,4,24,7c0,0,10,4,18,7c0,0,7,4,13,4c0,0,4,0,7,-2c0,0,4,-2,6,-7c0,0,2,-5,3,-14c0,0,1,-9,1,-23c0,0,0,-22,-2,-34c0,0,-3,-13,-9,-19c0,0,-6,-6,-18,-11c0,0,-12,-4,-28,-8c0,0,-15,-3,-32,-5c0,0,-17,-3,-34,-3Z" 
id="f0_bf"
transform="scale(0.001,-0.001)" />

<path d="M209,-4c0,0,-18,0,-30,2c0,0,-12,1,-19,3c0,0,-7,3,-10,7c0,0,-3,4,-3,10V607H52c0,0,-12,0,-18,12c0,0,-6,12,-6,39c0,0,0,14,2,24c0,0,1,10,4,16c0,0,3,7,8,9c0,0,4,3,10,3h95v69c0,0,0,71,13,121c0,0,13,50,40,82c0,0,27,33,67,48c0,0,41,15,96,15c0,0,26,0,51,-5c0,0,25,-4,38,-10c0,0,13,-6,18,-10c0,0,4,-5,7,-12c0,0,3,-7,5,-17c0,0,1,-10,1,-24c0,0,0,-15,-2,-23c0,0,-1,-9,-3,-14c0,0,-2,-5,-5,-7c0,0,-3,-2,-8,-2c0,0,-5,0,-13,3c0,0,-7,4,-19,8c0,0,-11,4,-26,7c0,0,-15,4,-36,4c0,0,-27,0,-47,-9c0,0,-19,-9,-31,-28c0,0,-12,-19,-17,-50c0,0,-5,-30,-5,-73V710H421c0,0,6,0,10,-3c0,0,4,-2,7,-9c0,0,4,-6,6,-16c0,0,2,-10,2,-24c0,0,0,-27,-7,-39c0,0,-7,-12,-18,-12H271V18c0,0,0,-6,-3,-10c0,0,-3,-4,-11,-7c0,0,-7,-2,-19,-3c0,0,-12,-2,-29,-2Z" 
id="f0_89"
transform="scale(0.001,-0.001)" />

<path d="M346,-4c0,0,-23,0,-38,2c0,0,-15,1,-24,3c0,0,-9,3,-15,8c0,0,-5,6,-8,13L33,660c0,0,-3,9,-5,15c0,0,-2,7,-2,11c0,0,0,3,0,5c0,0,0,6,3,11c0,0,3,4,10,7c0,0,7,2,18,3c0,0,12,1,29,1c0,0,22,0,35,-1c0,0,13,-1,20,-4c0,0,7,-3,10,-8c0,0,4,-4,7,-11L347,135l3,-9l2,9L540,689c0,0,1,7,5,11c0,0,3,5,11,8c0,0,7,3,19,4c0,0,12,1,32,1c0,0,18,0,29,-1c0,0,11,-1,17,-4c0,0,7,-3,9,-7c0,0,3,-4,3,-10c0,0,0,-3,-1,-6c0,0,0,-4,-1,-7c0,0,0,-4,-2,-8c0,0,-1,-5,-2,-10L430,22c0,0,-3,-8,-8,-13c0,0,-5,-6,-15,-9c0,0,-9,-2,-24,-3c0,0,-15,-1,-37,-1Z" 
id="f0_ch"
transform="scale(0.001,-0.001)" />

<path d="M324,-4c0,0,-23,0,-37,2c0,0,-15,1,-24,3c0,0,-9,3,-14,8c0,0,-4,6,-7,13L46,660c0,0,-4,11,-5,18c0,0,-2,8,-2,13c0,0,0,7,3,11c0,0,3,4,10,7c0,0,8,2,19,3c0,0,12,1,30,1c0,0,20,0,33,-1c0,0,13,-1,20,-4c0,0,6,-3,9,-8c0,0,3,-4,5,-11L330,136l2,-7l1,7L482,689c0,0,1,7,5,11c0,0,3,5,10,8c0,0,6,3,18,4c0,0,12,1,31,1c0,0,18,0,29,-1c0,0,12,-1,18,-4c0,0,7,-3,10,-7c0,0,3,-5,5,-11L768,136l1,-7l1,7L930,689c0,0,1,7,5,11c0,0,3,5,10,8c0,0,7,3,20,4c0,0,12,1,31,1c0,0,18,0,29,-1c0,0,11,-1,17,-4c0,0,6,-3,9,-6c0,0,3,-4,3,-11c0,0,0,-5,-2,-13c0,0,-1,-7,-5,-18L849,22c0,0,-2,-8,-7,-13c0,0,-5,-6,-13,-9c0,0,-9,-2,-24,-3c0,0,-15,-1,-37,-1c0,0,-23,0,-39,2c0,0,-15,1,-25,3c0,0,-9,3,-14,8c0,0,-4,6,-6,13L543,510l-2,6l-2,-6L409,22c0,0,-3,-8,-7,-13c0,0,-5,-6,-15,-9c0,0,-10,-2,-25,-3c0,0,-15,-1,-38,-1Z" 
id="f0_ci"
transform="scale(0.001,-0.001)" />

<path d="M604,356L436,837h-1L269,356ZM87,-4c0,0,-22,0,-36,2C51,-2,37,0,32,4c0,0,-6,5,-6,15c0,0,1,10,7,27L357,943c0,0,3,8,7,13c0,0,5,6,15,9c0,0,9,3,23,4c0,0,15,1,37,1c0,0,24,0,40,-1c0,0,16,-1,25,-4c0,0,10,-3,15,-9c0,0,5,-5,8,-14L851,45c0,0,6,-16,7,-26c0,0,0,-10,-6,-16c0,0,-6,-4,-20,-5c0,0,-14,-2,-37,-2c0,0,-23,0,-37,1c0,0,-14,1,-21,3c0,0,-7,3,-10,7c0,0,-3,5,-6,11L638,253H236L157,21c0,0,-2,-6,-6,-11c0,0,-3,-5,-10,-9c0,0,-7,-2,-21,-3c0,0,-13,-2,-33,-2Z" 
id="f0_5"
transform="scale(0.001,-0.001)" />

<path d="M366,92c0,0,25,0,48,7c0,0,22,6,46,22c0,0,24,16,50,41c0,0,26,24,56,61V492c0,0,-51,62,-97,94c0,0,-47,33,-98,33c0,0,-47,0,-79,-22c0,0,-33,-23,-54,-59c0,0,-20,-37,-30,-83c0,0,-9,-47,-9,-94c0,0,0,-51,8,-100c0,0,8,-48,27,-86c0,0,19,-38,52,-60c0,0,32,-23,80,-23ZM345,-13c0,0,-74,0,-127,28c0,0,-52,29,-84,78c0,0,-33,49,-48,115c0,0,-15,66,-15,139c0,0,0,86,19,156c0,0,19,70,55,119c0,0,37,50,91,76c0,0,54,27,125,27c0,0,59,0,108,-26c0,0,49,-26,97,-76v390c0,0,0,5,2,10c0,0,3,4,10,7c0,0,8,3,19,5c0,0,12,1,30,1c0,0,18,0,30,-1c0,0,12,-2,19,-5c0,0,7,-3,10,-7c0,0,3,-5,3,-10V18c0,0,0,-6,-2,-10c0,0,-3,-5,-9,-7c0,0,-7,-2,-17,-3c0,0,-10,-2,-25,-2c0,0,-16,0,-26,2c0,0,-11,1,-18,3c0,0,-6,2,-9,7c0,0,-3,4,-3,10v90c0,0,-53,-58,-110,-90c0,0,-58,-31,-125,-31Z" 
id="f0_7v"
transform="scale(0.001,-0.001)" />

<path d="M176,-4c0,0,-18,0,-30,2c0,0,-12,1,-19,3c0,0,-7,3,-10,7c0,0,-3,4,-3,10v997c0,0,0,6,3,11c0,0,3,4,10,7c0,0,7,3,19,5c0,0,12,1,30,1c0,0,18,0,30,-1c0,0,12,-2,19,-5c0,0,7,-3,9,-7c0,0,3,-5,3,-11V408L492,687c0,0,6,7,12,12c0,0,7,5,16,8c0,0,10,4,22,5c0,0,13,1,31,1c0,0,19,0,31,-1c0,0,13,-1,21,-4c0,0,8,-3,11,-7c0,0,3,-4,3,-11c0,0,0,-9,-4,-18c0,0,-5,-8,-16,-20L375,408L648,54c0,0,10,-13,14,-20c0,0,4,-8,4,-15c0,0,0,-6,-3,-10c0,0,-3,-5,-10,-8c0,0,-7,-2,-20,-3c0,0,-13,-2,-32,-2c0,0,-20,0,-33,1c0,0,-13,1,-22,3c0,0,-9,3,-15,7c0,0,-5,5,-10,12L237,391V18c0,0,0,-6,-3,-10c0,0,-2,-4,-9,-7c0,0,-7,-2,-19,-3c0,0,-12,-2,-30,-2Z" 
id="f0_a5"
transform="scale(0.001,-0.001)" />

<path d="M367,-13c0,0,-73,0,-129,23c0,0,-56,24,-93,70c0,0,-38,46,-58,112c0,0,-20,67,-20,154c0,0,0,99,25,171c0,0,24,71,66,116c0,0,42,46,99,68c0,0,58,22,124,22c0,0,32,0,62,-6c0,0,31,-6,56,-16c0,0,25,-10,45,-22c0,0,20,-13,29,-22c0,0,9,-9,12,-14c0,0,3,-5,6,-13c0,0,2,-7,3,-16c0,0,0,-9,0,-22c0,0,0,-29,-6,-41c0,0,-7,-11,-17,-11c0,0,-11,0,-25,12c0,0,-15,12,-37,27c0,0,-23,15,-55,28c0,0,-31,12,-75,12c0,0,-88,0,-136,-68c0,0,-47,-68,-47,-198c0,0,0,-65,12,-114c0,0,12,-49,36,-81c0,0,24,-33,59,-49c0,0,35,-16,79,-16c0,0,43,0,75,13c0,0,32,14,56,30c0,0,23,16,39,29c0,0,16,13,25,13c0,0,5,0,9,-3c0,0,4,-3,7,-10c0,0,2,-7,3,-18c0,0,1,-11,1,-26c0,0,0,-12,0,-22c0,0,-1,-9,-3,-15c0,0,-2,-7,-4,-12c0,0,-3,-4,-12,-14c0,0,-10,-9,-32,-23c0,0,-22,-14,-50,-24C496,11,468,0,435,-6c0,0,-33,-7,-68,-7Z" 
id="f0_7l"
transform="scale(0.001,-0.001)" />

<path d="M176,-4c0,0,-18,0,-30,2c0,0,-12,1,-19,3c0,0,-7,3,-10,7c0,0,-3,4,-3,10v997c0,0,0,6,3,11c0,0,3,4,10,7c0,0,7,3,19,5c0,0,12,1,30,1c0,0,18,0,30,-1c0,0,12,-2,19,-5c0,0,7,-3,9,-7c0,0,3,-5,3,-10V614c0,0,53,56,107,83c0,0,54,28,108,28c0,0,67,0,113,-23c0,0,46,-23,74,-61c0,0,29,-38,41,-89c0,0,12,-52,12,-124V18c0,0,0,-6,-3,-10c0,0,-3,-4,-9,-7c0,0,-7,-2,-19,-3c0,0,-12,-2,-30,-2c0,0,-19,0,-30,2c0,0,-12,1,-19,3c0,0,-7,3,-10,7c0,0,-3,4,-3,10V412c0,0,0,58,-9,93c0,0,-9,35,-26,61c0,0,-17,25,-44,38c0,0,-27,14,-63,14c0,0,-46,0,-93,-33c0,0,-46,-33,-97,-96V18c0,0,0,-6,-3,-10c0,0,-2,-4,-9,-7c0,0,-7,-2,-19,-3c0,0,-12,-2,-30,-2Z" 
id="f0_9n"
transform="scale(0.001,-0.001)" />

<path d="M192,-4c0,0,-18,0,-30,2c0,0,-13,2,-20,3c0,0,-8,3,-11,8c0,0,-3,5,-3,10V913c0,0,0,29,15,40c0,0,16,12,33,12H610c0,0,5,0,10,-3c0,0,5,-3,9,-10c0,0,4,-6,5,-17c0,0,2,-11,2,-25c0,0,0,-14,-2,-24c0,0,-1,-11,-5,-17c0,0,-4,-7,-9,-9c0,0,-5,-3,-10,-3H256V528H591c0,0,5,0,10,-3c0,0,5,-2,8,-8c0,0,4,-6,6,-16c0,0,1,-10,1,-26c0,0,0,-14,-1,-24c0,0,-2,-10,-6,-17c0,0,-3,-6,-8,-9c0,0,-5,-4,-10,-4H256V19c0,0,0,-5,-3,-10c0,0,-3,-5,-10,-8c0,0,-7,-1,-19,-3c0,0,-12,-2,-32,-2Z" 
id="f0_13"
transform="scale(0.001,-0.001)" />

<path d="M351,-13c0,0,-67,0,-113,22c0,0,-46,22,-75,60c0,0,-28,39,-40,90c0,0,-13,51,-13,124V690c0,0,0,6,3,10c0,0,3,4,10,7c0,0,8,4,20,5c0,0,11,1,29,1c0,0,18,0,30,-1c0,0,12,-1,19,-5c0,0,7,-3,10,-7c0,0,3,-4,3,-10V299c0,0,0,-59,9,-94c0,0,8,-36,26,-61c0,0,18,-24,44,-38c0,0,27,-14,63,-14c0,0,46,0,92,33c0,0,46,32,98,95V690c0,0,0,6,2,10c0,0,3,4,10,7c0,0,8,4,19,5c0,0,12,1,30,1c0,0,18,0,30,-1c0,0,12,-1,19,-5c0,0,7,-3,10,-7c0,0,3,-4,3,-10V18c0,0,0,-6,-2,-10c0,0,-3,-4,-10,-7c0,0,-6,-2,-17,-3c0,0,-11,-2,-27,-2c0,0,-17,0,-28,2c0,0,-10,1,-17,3c0,0,-6,3,-8,7c0,0,-3,4,-3,10v89c0,0,-57,-63,-113,-92c0,0,-56,-28,-113,-28Z" 
id="f0_c6"
transform="scale(0.001,-0.001)" />

<path d="M176,-4c0,0,-18,0,-30,2c0,0,-12,1,-19,3c0,0,-7,3,-10,7c0,0,-3,4,-3,10V690c0,0,0,6,3,10c0,0,2,4,9,7c0,0,6,4,17,5c0,0,10,1,27,1c0,0,17,0,28,-1c0,0,10,-1,16,-5c0,0,6,-3,9,-7c0,0,3,-4,3,-10V601c0,0,56,64,110,94c0,0,53,30,108,30c0,0,42,0,75,-10c0,0,33,-10,58,-28c0,0,26,-17,44,-42c0,0,18,-24,30,-55c0,0,33,37,63,63c0,0,31,26,59,41c0,0,28,16,54,23c0,0,27,8,53,8c0,0,65,0,109,-23c0,0,44,-23,71,-61c0,0,28,-38,39,-89c0,0,12,-52,12,-108V18c0,0,0,-6,-3,-10c0,0,-3,-4,-10,-7c0,0,-7,-2,-19,-3c0,0,-12,-2,-29,-2c0,0,-19,0,-31,2c0,0,-12,1,-19,3c0,0,-7,3,-10,7c0,0,-3,4,-3,10V427c0,0,0,43,-8,78c0,0,-7,35,-23,61c0,0,-17,25,-42,38c0,0,-25,14,-60,14c0,0,-42,0,-85,-33c0,0,-43,-33,-94,-96V18c0,0,0,-6,-3,-10c0,0,-3,-4,-11,-7c0,0,-7,-2,-19,-3c0,0,-11,-2,-29,-2c0,0,-18,0,-30,2c0,0,-12,1,-19,3c0,0,-7,3,-10,7c0,0,-3,4,-3,10V427c0,0,0,43,-8,78c0,0,-8,35,-24,61c0,0,-17,25,-42,38c0,0,-25,14,-59,14c0,0,-43,0,-86,-33c0,0,-44,-33,-95,-96V18c0,0,0,-6,-3,-10c0,0,-2,-4,-9,-7c0,0,-7,-2,-19,-3c0,0,-12,-2,-30,-2Z" 
id="f0_ae"
transform="scale(0.001,-0.001)" />

<path d="M176,-4c0,0,-18,0,-30,2c0,0,-12,1,-19,3c0,0,-7,3,-10,7c0,0,-3,4,-3,10v997c0,0,0,6,3,11c0,0,3,4,10,7c0,0,7,3,19,5c0,0,12,1,30,1c0,0,18,0,30,-1c0,0,12,-2,19,-5c0,0,7,-3,9,-7c0,0,3,-5,3,-11V18c0,0,0,-6,-3,-10c0,0,-2,-4,-9,-7c0,0,-7,-2,-19,-3c0,0,-12,-2,-30,-2Z" 
id="f0_a8"
transform="scale(0.001,-0.001)" />

<path d="M372,472c0,0,58,0,97,15c0,0,38,15,65,42c0,0,26,26,39,63c0,0,14,37,14,80c0,0,0,59,-22,99c0,0,-23,39,-55,59c0,0,-32,19,-67,24c0,0,-35,5,-68,5H256V472ZM192,-4c0,0,-18,0,-31,2c0,0,-12,2,-19,3c0,0,-8,3,-11,8c0,0,-3,4,-3,10V910c0,0,0,30,16,42c0,0,15,13,35,13H386c0,0,31,0,60,-3c0,0,28,-2,68,-11c0,0,39,-8,80,-32c0,0,40,-23,69,-58c0,0,28,-34,43,-79c0,0,16,-45,16,-100c0,0,0,-72,-24,-130c0,0,-24,-58,-69,-100c0,0,-44,-41,-109,-63c0,0,-64,-22,-154,-22H256V19c0,0,0,-6,-3,-10c0,0,-3,-5,-10,-8c0,0,-7,-1,-20,-3c0,0,-12,-2,-31,-2Z" 
id="f0_2g"
transform="scale(0.001,-0.001)" />

<path d="M53,-271c0,0,-23,0,-40,3c0,0,-16,3,-25,7c0,0,-9,4,-12,9c0,0,-4,4,-5,11c0,0,-2,6,-2,13c0,0,0,7,0,16c0,0,0,14,1,24c0,0,1,9,4,15c0,0,2,6,6,9c0,0,3,3,8,3c0,0,5,0,17,-2c0,0,13,-2,30,-2c0,0,24,0,42,7c0,0,17,8,28,24c0,0,12,17,17,44c0,0,5,27,5,81V690c0,0,0,5,3,9c0,0,3,5,10,8c0,0,7,3,19,4c0,0,12,2,30,2c0,0,18,0,30,-2c0,0,12,-1,19,-4c0,0,7,-3,10,-8c0,0,3,-4,3,-9V-10c0,0,0,-74,-11,-120c0,0,-11,-46,-35,-77c0,0,-24,-32,-61,-48c0,0,-38,-16,-91,-16ZM188,842c0,0,-43,0,-59,15c0,0,-16,15,-16,58c0,0,0,43,16,59c0,0,17,16,61,16c0,0,44,0,59,-16c0,0,16,-15,16,-58c0,0,0,-43,-17,-58c0,0,-16,-16,-60,-16Z" 
id="f0_a2"
transform="scale(0.001,-0.001)" />

<path d="M321,82c0,0,48,0,90,25c0,0,41,24,87,75V325H392c0,0,-50,0,-88,-9c0,0,-37,-9,-62,-25c0,0,-24,-17,-36,-41c0,0,-11,-23,-11,-54c0,0,0,-52,33,-83c0,0,33,-31,93,-31ZM301,-13c0,0,-53,0,-96,13c0,0,-43,14,-73,40c0,0,-30,26,-47,64c0,0,-17,38,-17,87c0,0,0,56,24,98c0,0,23,42,66,69c0,0,43,28,106,42c0,0,63,14,141,14h93v52c0,0,0,39,-9,69c0,0,-8,30,-26,50c0,0,-18,20,-47,30c0,0,-30,10,-72,10c0,0,-46,0,-82,-11c0,0,-36,-11,-63,-24c0,0,-27,-13,-46,-24c0,0,-18,-11,-27,-11c0,0,-6,0,-10,3c0,0,-5,3,-8,9c0,0,-3,6,-5,16c0,0,-1,9,-1,20c0,0,0,19,2,30c0,0,3,11,13,20c0,0,10,10,35,23c0,0,24,13,56,24c0,0,32,10,70,17c0,0,38,8,77,8c0,0,73,0,123,-17c0,0,51,-16,82,-48c0,0,32,-32,46,-79c0,0,14,-47,14,-110V18c0,0,0,-9,-6,-14c0,0,-6,-4,-16,-6c0,0,-11,-2,-31,-2c0,0,-19,0,-31,2c0,0,-12,2,-17,6c0,0,-5,5,-5,13V85c0,0,-44,-47,-98,-73c0,0,-54,-25,-115,-25Z" 
id="f0_77"
transform="scale(0.001,-0.001)" />

<path d="M252,-271c0,0,-19,0,-31,2c0,0,-12,2,-18,6c0,0,-7,5,-8,12c0,0,0,8,4,18L292,0c0,0,-7,3,-13,10c0,0,-6,6,-8,14L31,665c0,0,-6,16,-6,25c0,0,0,9,6,14c0,0,6,5,20,7c0,0,13,2,36,2c0,0,22,0,35,-1c0,0,12,-1,20,-4c0,0,7,-3,11,-9c0,0,3,-6,7,-15L351,145h3L539,687c0,0,4,14,10,18c0,0,7,4,19,6c0,0,13,2,37,2c0,0,21,0,34,-2c0,0,14,-2,20,-7c0,0,6,-5,6,-14c0,0,0,-9,-4,-23L420,0L330,-246c0,0,-4,-12,-22,-18c0,0,-19,-7,-56,-7Z" 
id="f0_co"
transform="scale(0.001,-0.001)" />

<path d="M128,0c0,0,-11,0,-19,3c0,0,-8,2,-13,8c0,0,-6,6,-8,17c0,0,-3,11,-3,28c0,0,0,15,1,26c0,0,1,11,5,20c0,0,4,8,9,17c0,0,6,8,15,18L302,336c0,0,65,68,104,123c0,0,39,54,61,99c0,0,21,45,28,81c0,0,6,37,6,69c0,0,0,32,-10,61c0,0,-11,29,-30,50c0,0,-20,22,-50,35c0,0,-30,12,-69,12c0,0,-45,0,-81,-12c0,0,-37,-13,-64,-28c0,0,-27,-15,-45,-27c0,0,-19,-13,-28,-13c0,0,-5,0,-9,3c0,0,-4,3,-7,10c0,0,-2,6,-4,18c0,0,-1,11,-1,26c0,0,0,12,0,20c0,0,1,8,3,14c0,0,2,6,5,11c0,0,3,5,12,13c0,0,9,8,31,21c0,0,22,14,55,27c0,0,33,13,73,22c0,0,40,9,84,9c0,0,70,0,123,-20c0,0,53,-20,87,-54c0,0,35,-34,52,-80c0,0,17,-46,17,-97c0,0,0,-46,-8,-92c0,0,-8,-46,-35,-99c0,0,-26,-54,-76,-119c0,0,-50,-65,-133,-151L240,109H660c0,0,6,0,12,-4c0,0,5,-3,9,-10c0,0,5,-7,6,-17c0,0,2,-10,2,-23c0,0,0,-13,-2,-24c0,0,-1,-10,-5,-17c0,0,-3,-7,-9,-11c0,0,-5,-3,-12,-3Z" 
id="f0_rz"
transform="scale(0.001,-0.001)" />

<path d="M385,92c0,0,42,0,74,13c0,0,31,14,54,39c0,0,23,25,38,60c0,0,15,35,24,77c0,0,9,43,12,92c0,0,3,50,3,103c0,0,0,73,-5,130c0,0,-5,57,-15,101c0,0,-10,44,-26,76c0,0,-16,32,-39,52c0,0,-22,21,-51,30c0,0,-29,9,-64,9c0,0,-64,0,-103,-30c0,0,-40,-29,-63,-82c0,0,-23,-52,-31,-122c0,0,-8,-70,-8,-150c0,0,0,-108,11,-184c0,0,11,-76,36,-123c0,0,24,-48,62,-69c0,0,37,-22,91,-22ZM378,-13c0,0,-91,0,-154,32c0,0,-62,32,-100,95c0,0,-38,63,-54,155c0,0,-16,92,-16,212c0,0,0,110,18,202c0,0,18,92,58,158c0,0,40,66,106,103c0,0,66,36,161,36c0,0,92,0,154,-33c0,0,62,-32,100,-95c0,0,39,-63,55,-155c0,0,16,-92,16,-212c0,0,0,-111,-18,-203c0,0,-17,-91,-58,-157C646,125,605,59,540,22c0,0,-66,-35,-162,-35Z" 
id="f0_rx"
transform="scale(0.001,-0.001)" />

<path d="M176,0c0,0,-17,0,-33,12c0,0,-15,11,-15,40V946c0,0,0,6,3,11c0,0,3,4,11,7c0,0,7,2,20,4c0,0,12,2,30,2c0,0,19,0,31,-2c0,0,13,-2,20,-4c0,0,7,-3,10,-7c0,0,3,-5,3,-11V111H603c0,0,6,0,11,-3c0,0,5,-3,8,-10c0,0,4,-6,5,-16c0,0,2,-11,2,-26c0,0,0,-15,-2,-25c0,0,-1,-10,-5,-17c0,0,-3,-7,-8,-11c0,0,-5,-3,-11,-3Z" 
id="f0_1r"
transform="scale(0.001,-0.001)" />

<path d="M469,327V857h-2L153,327ZM530,-4c0,0,-18,0,-30,2c0,0,-12,1,-19,3c0,0,-7,3,-9,7c0,0,-3,4,-3,10V221H71c0,0,-9,0,-15,2c0,0,-6,2,-11,8c0,0,-5,6,-7,17c0,0,-2,12,-2,30c0,0,0,14,1,25c0,0,1,11,3,20c0,0,2,10,6,18c0,0,4,9,9,18L403,947c0,0,3,6,10,10c0,0,7,5,19,8c0,0,11,3,27,4c0,0,17,1,39,1c0,0,25,0,43,-2c0,0,18,-2,29,-5c0,0,12,-3,18,-8c0,0,6,-4,6,-11V327H702c0,0,13,0,21,-13c0,0,8,-13,8,-40c0,0,0,-25,-8,-39c0,0,-7,-14,-21,-14H594V18c0,0,0,-6,-3,-10c0,0,-3,-4,-11,-7c0,0,-7,-2,-19,-3c0,0,-12,-2,-31,-2Z" 
id="f0_s1"
transform="scale(0.001,-0.001)" />

<path d="M324,-13c0,0,-44,0,-85,7c0,0,-40,6,-71,14c0,0,-32,10,-52,18c0,0,-20,9,-25,15c0,0,-6,5,-8,9c0,0,-3,5,-4,11c0,0,-2,6,-3,16c0,0,-1,10,-1,23c0,0,0,13,1,23c0,0,1,10,4,16c0,0,3,7,8,10c0,0,4,3,9,3c0,0,7,0,23,-10c0,0,16,-9,42,-20c0,0,27,-11,66,-20c0,0,39,-10,93,-10c0,0,49,0,91,12c0,0,42,12,72,37c0,0,30,26,47,64c0,0,18,38,18,94c0,0,0,46,-15,81c0,0,-14,36,-45,59c0,0,-30,24,-76,35c0,0,-46,12,-111,12c0,0,-45,0,-78,-5c0,0,-33,-4,-61,-4c0,0,-21,0,-30,10c0,0,-9,9,-9,37V917c0,0,0,24,12,36c0,0,11,12,33,12H596c0,0,6,0,12,-3c0,0,6,-4,9,-10c0,0,4,-7,6,-17c0,0,2,-11,2,-25c0,0,0,-27,-8,-42c0,0,-7,-14,-21,-14H236V583c0,0,26,4,53,5c0,0,28,1,63,1c0,0,83,0,145,-20c0,0,62,-20,103,-56c0,0,42,-36,63,-88c0,0,21,-51,21,-114c0,0,0,-78,-26,-138c0,0,-26,-61,-74,-102C584,71,537,30,471,8c0,0,-66,-21,-147,-21Z" 
id="f0_s2"
transform="scale(0.001,-0.001)" />

<path d="M189,-4c0,0,-18,0,-30,2c0,0,-12,2,-19,3c0,0,-7,3,-9,8c0,0,-3,4,-3,10V907c0,0,0,31,16,45c0,0,17,13,37,13h78c0,0,24,0,41,-4c0,0,18,-5,32,-15c0,0,13,-9,22,-24c0,0,9,-15,16,-35L649,188h4L944,884c0,0,8,23,18,39c0,0,9,15,21,25c0,0,11,9,26,13c0,0,14,4,32,4h82c0,0,11,0,21,-3c0,0,10,-4,17,-11c0,0,7,-7,12,-18c0,0,4,-10,4,-26V19c0,0,0,-6,-3,-10c0,0,-3,-5,-10,-8c0,0,-8,-1,-19,-3c0,0,-12,-2,-30,-2c0,0,-18,0,-30,2c0,0,-12,2,-19,3c0,0,-7,3,-10,8c0,0,-3,4,-3,10V860h-2L707,15c0,0,-2,-5,-6,-9c0,0,-4,-3,-12,-6c0,0,-8,-2,-18,-3c0,0,-11,-1,-26,-1c0,0,-16,0,-27,2c0,0,-11,1,-19,3c0,0,-7,2,-11,6c0,0,-4,4,-6,8L253,860V19c0,0,0,-6,-3,-10c0,0,-3,-5,-11,-8c0,0,-7,-1,-19,-3c0,0,-12,-2,-31,-2Z" 
id="f0_1x"
transform="scale(0.001,-0.001)" />

<path d="M161,0c0,0,-5,0,-10,3c0,0,-4,2,-8,8c0,0,-5,6,-7,16c0,0,-2,9,-2,24c0,0,0,13,2,23c0,0,2,9,6,16c0,0,3,6,8,9c0,0,5,4,11,4H362V837L176,726c0,0,-15,-8,-23,-9c0,0,-1,-1,-3,-1c-3,0,-8,1,-11,4c0,0,-5,5,-7,16c0,0,-2,11,-2,28c0,0,0,13,1,22c0,0,1,9,4,15c0,0,2,6,6,10c0,0,4,5,11,9L374,963c0,0,3,2,7,4c0,0,5,1,11,3c0,0,7,1,16,2c0,0,9,0,22,0c0,0,18,0,30,-2c0,0,12,-1,19,-4c0,0,7,-2,9,-6c0,0,2,-5,2,-9V103H665c0,0,6,0,11,-4c0,0,5,-3,8,-9c0,0,4,-7,6,-16c0,0,2,-10,2,-23c0,0,0,-15,-3,-24c0,0,-2,-10,-6,-16c0,0,-3,-6,-8,-8c0,0,-5,-3,-10,-3Z" 
id="f0_ry"
transform="scale(0.001,-0.001)" />

<path d="M192,-4c0,0,-18,0,-30,2c0,0,-13,2,-20,3c0,0,-8,3,-11,8c0,0,-3,4,-3,10V946c0,0,0,6,3,11c0,0,3,4,11,7c0,0,7,2,20,4c0,0,12,2,30,2c0,0,19,0,31,-2c0,0,13,-2,20,-4c0,0,7,-3,10,-7c0,0,3,-5,3,-11V559H696V946c0,0,0,6,3,10c0,0,3,5,10,8c0,0,8,2,20,4c0,0,11,2,31,2c0,0,18,0,30,-2c0,0,12,-2,20,-4c0,0,7,-3,10,-7c0,0,3,-5,3,-11V19c0,0,0,-6,-3,-10c0,0,-3,-5,-10,-8c0,0,-8,-1,-20,-3c0,0,-12,-2,-30,-2c0,0,-20,0,-31,2c0,0,-12,2,-20,3c0,0,-7,3,-10,8c0,0,-3,4,-3,10V448H256V19c0,0,0,-6,-3,-10c0,0,-3,-5,-10,-8c0,0,-7,-1,-20,-3c0,0,-12,-2,-31,-2Z" 
id="f0_19"
transform="scale(0.001,-0.001)" />

<path d="M346,-177c0,0,56,0,94,11c0,0,37,11,60,28c0,0,24,18,34,41c0,0,10,23,10,49c0,0,0,43,-36,65c0,0,-35,23,-95,25L239,48c0,0,-24,-19,-39,-35c0,0,-15,-16,-24,-31c0,0,-9,-16,-12,-30c0,0,-4,-15,-4,-31c0,0,0,-48,49,-73c0,0,50,-25,137,-25Zm-6,512c0,0,36,0,63,12c0,0,27,12,44,32c0,0,18,21,26,48c0,0,9,27,9,56c0,0,0,69,-38,107c0,0,-37,39,-107,39c0,0,-35,0,-62,-12c0,0,-26,-12,-44,-33c0,0,-17,-21,-26,-48c0,0,-8,-28,-8,-58c0,0,0,-66,37,-104c0,0,38,-39,106,-39Zm0,-606c0,0,-81,0,-138,14c0,0,-57,14,-94,38c0,0,-36,24,-52,57c0,0,-17,33,-17,72c0,0,0,24,6,47c0,0,6,24,18,43c0,0,13,21,31,40c0,0,18,19,42,38c0,0,-36,19,-54,47c0,0,-17,28,-17,61c0,0,0,45,18,81c0,0,19,36,46,64c0,0,-23,28,-36,62c0,0,-14,35,-14,84c0,0,0,58,20,104c0,0,19,45,53,77c0,0,35,31,83,48c0,0,48,17,105,17c0,0,30,0,57,-4c0,0,26,-3,49,-9H649c0,0,13,0,19,-12c0,0,7,-13,7,-38c0,0,0,-26,-7,-37c0,0,-7,-12,-19,-12H553c0,0,26,-27,37,-60c0,0,10,-32,10,-68c0,0,0,-58,-18,-103c0,0,-19,-45,-54,-76c0,0,-34,-31,-82,-47c0,0,-48,-16,-106,-16c0,0,-41,0,-78,10c0,0,-37,11,-57,28c0,0,-14,-14,-22,-31c0,0,-9,-17,-9,-39c0,0,0,-27,24,-44c0,0,25,-17,65,-18l175,-8c0,0,50,-1,92,-14c0,0,41,-12,72,-35c0,0,31,-22,48,-55c0,0,17,-34,17,-76c0,0,0,-47,-20,-88c0,0,-19,-42,-59,-74c0,0,-40,-31,-102,-50c0,0,-61,-18,-146,-18Z" 
id="f0_9d"
transform="scale(0.001,-0.001)" />

<path d="M482,-11c0,0,-94,0,-170,31c0,0,-76,31,-129,92c0,0,-53,61,-82,151c0,0,-29,90,-29,207c0,0,0,120,31,214c0,0,31,94,87,159c0,0,56,65,134,100c0,0,78,34,173,34c0,0,41,0,81,-8c0,0,39,-8,73,-19c0,0,33,-12,60,-28c0,0,26,-15,36,-25c0,0,10,-10,13,-15c0,0,3,-6,5,-13c0,0,1,-7,3,-17c0,0,1,-9,1,-23c0,0,0,-15,-2,-25c0,0,-1,-11,-4,-18c0,0,-3,-7,-7,-10c0,0,-4,-4,-10,-4c0,0,-11,0,-30,15c0,0,-18,14,-48,32c0,0,-29,17,-71,32c0,0,-42,14,-101,14c0,0,-64,0,-117,-25c0,0,-52,-26,-90,-76c0,0,-37,-50,-57,-122c0,0,-21,-72,-21,-164c0,0,0,-92,20,-163c0,0,20,-70,57,-117c0,0,36,-48,90,-72c0,0,54,-24,122,-24c0,0,57,0,100,14c0,0,43,14,73,32c0,0,30,17,50,31c0,0,19,15,30,15c0,0,5,0,9,-3c0,0,4,-2,6,-8c0,0,2,-7,3,-18c0,0,2,-11,2,-28c0,0,0,-12,-1,-21c0,0,-1,-9,-3,-16c0,0,-2,-6,-5,-12c0,0,-3,-5,-10,-12c0,0,-8,-8,-31,-23c0,0,-24,-15,-60,-30C663,23,628,8,582,-1c0,0,-46,-10,-100,-10Z" 
id="f0_j"
transform="scale(0.001,-0.001)" />

<path d="M102,0C102,0,87,0,77,10C77,10,66,21,66,45V71c0,0,0,10,2,18c0,0,1,9,4,17c0,0,3,8,9,17c0,0,5,10,12,22L390,606H102c0,0,-12,0,-19,13c0,0,-7,12,-7,39c0,0,0,14,2,24c0,0,1,10,5,16c0,0,3,7,8,9c0,0,5,3,11,3H487c0,0,9,0,15,-2c0,0,6,-3,11,-8c0,0,4,-5,7,-13c0,0,3,-8,3,-21V642c0,0,0,-10,-2,-19c0,0,-1,-9,-4,-18c0,0,-3,-8,-9,-18c0,0,-5,-10,-12,-22L201,104H516c0,0,6,0,11,-3c0,0,4,-3,8,-9c0,0,3,-6,5,-16c0,0,3,-10,3,-24c0,0,0,-14,-3,-24c0,0,-2,-10,-5,-16c0,0,-3,-7,-8,-9c0,0,-5,-3,-11,-3Z" 
id="f0_ct"
transform="scale(0.001,-0.001)" />

<path d="M503,98c0,0,85,0,142,31c0,0,58,31,93,85c0,0,35,53,50,123c0,0,15,70,15,148c0,0,0,83,-15,153c0,0,-14,70,-48,122c0,0,-34,52,-91,81c0,0,-57,29,-140,29c0,0,-84,0,-141,-31c0,0,-56,-31,-92,-84c0,0,-35,-52,-51,-122c0,0,-15,-69,-15,-146c0,0,0,-85,14,-157c0,0,14,-71,48,-123c0,0,34,-52,90,-80c0,0,56,-29,141,-29ZM497,-13c0,0,-109,0,-189,32c0,0,-79,32,-131,94c0,0,-52,62,-77,154c0,0,-26,91,-26,211c0,0,0,114,28,207c0,0,28,93,83,159c0,0,55,65,138,100c0,0,83,36,193,36c0,0,107,0,186,-32c0,0,79,-32,132,-94c0,0,52,-61,78,-152c0,0,26,-91,26,-208c0,0,0,-117,-28,-211c0,0,-28,-94,-82,-160C828,123,773,57,690,22c0,0,-83,-35,-193,-35Z" 
id="f0_24"
transform="scale(0.001,-0.001)" />

<path d="M435,-4c0,0,-16,0,-28,0c0,0,-13,1,-22,2c0,0,-9,2,-15,3c0,0,-6,2,-11,5c0,0,-4,3,-7,7c0,0,-3,4,-5,10L32,920c0,0,-6,16,-7,26c0,0,0,11,7,16c0,0,6,5,21,6c0,0,15,2,41,2c0,0,21,0,33,-1c0,0,12,-1,19,-4c0,0,7,-3,10,-8c0,0,3,-5,6,-12L439,132h1L709,943c0,0,3,8,6,13c0,0,3,6,10,9c0,0,7,3,21,4c0,0,13,1,36,1c0,0,23,0,36,-2c0,0,14,-2,18,-7c0,0,5,-5,4,-15c0,0,-1,-10,-7,-27L518,22c0,0,-3,-8,-8,-13c0,0,-5,-6,-14,-9c0,0,-10,-2,-24,-3c0,0,-15,-1,-37,-1Z" 
id="f0_38"
transform="scale(0.001,-0.001)" />


</defs>

<!-- Any embedded fonts defined here -->
<style type="text/css" ><![CDATA[

@font-face {
	font-family: Calibri_5;
	src: url("fonts/Calibri_5.woff") format("woff");
}

]]></style>

</svg>
