<?xml version="1.0" encoding="UTF-8" standalone="no"?>
<!DOCTYPE svg PUBLIC "-//W3C//DTD SVG 1.1//EN"
"http://www.w3.org/Graphics/SVG/1.1/DTD/svg11.dtd">


<!-- Page 1 -->
<svg x="0" y="0" width="1466" height="305" viewBox="0 0 1466 305" version="1.1" xmlns="http://www.w3.org/2000/svg" xmlns:xlink="http://www.w3.org/1999/xlink"
style="display: block;margin-left: auto;margin-right: auto;">
<defs>
<clipPath id="c0_1"><path d="M0,305.4V0H1466.7V305.4Z" /></clipPath>

<style type="text/css"><![CDATA[

.g0_1{
fill: #FFFFFF;
}
.g1_1{
fill: #DAE3F3;
}
.g2_1{
fill: none;
stroke: #000000;
stroke-width: 1.4666667;
stroke-linecap: butt;
stroke-linejoin: miter;
}
.g3_1{
fill: #B4C7E7;
}
.g4_1{
fill: #9DC3E6;
}
.g5_1{
fill: none;
stroke: #000000;
stroke-width: 1.0999999;
stroke-linecap: butt;
stroke-linejoin: round;
}
.g6_1{
fill: #D6DCE5;
}
.g7_1{
fill: none;
stroke: #000000;
stroke-width: 1.4666667;
stroke-linecap: butt;
stroke-linejoin: miter;
stroke-miterlimit: 8;
}

.s1_1{
font-size: 18.00px;
font-family: Calibri_7;
fill: TRANSPARENT;
}
.s2_1{
font-size: 17.97px;
font-family: Calibri_7;
fill: TRANSPARENT;
}
.s3_1{
font-size: 17.97px;
font-family: Calibri-Italic_9;
fill: TRANSPARENT;
}
text::-moz-selection {
	color: transparent;
	background: rgba(0, 106, 173, 0.4);
}
text::selection {
	color: transparent;
	background: rgba(0, 106, 173, 0.4);
}

]]></style>

</defs>
<path d="M0,0
L0,305
L1466,305
L1466,0 Z " 
fill="#FFFFFF" stroke="none" />
<g clip-path="url(#c0_1)">
<path fill-rule="evenodd" d="M0,305.4H1466.7V0H0V305.4Z" class="g0_1" />
</g>
<path fill-rule="evenodd" d="M276.5,284.7H793.1V206.6H276.5v78.1Z" class="g1_1" />
<path d="M276.5,284.7H793.1V206.6H276.5v78.1Z" class="g2_1" />
<path fill-rule="evenodd" d="M276.5,206.6H793.1V128.7H276.5v77.9Z" class="g3_1" />
<path d="M276.5,206.6H793.1V128.7H276.5v77.9Z" class="g2_1" />
<path fill-rule="evenodd" d="M276.5,131.6H793.1V53.5H276.5v78.1Z" class="g4_1" />
<path d="M276.5,131.6H793.1V53.5H276.5v78.1Z" class="g2_1" />
<g clip-path="url(#c0_1)">
<g fill="#000000" >
<use xlink:href="#f0_rz" transform="matrix(11.8,0,0,11.8,646.1,267.8)" />
<use xlink:href="#f0_rx" transform="matrix(11.8,0,0,11.8,655.2,267.8)" />
<use xlink:href="#f0_rx" transform="matrix(11.8,0,0,11.8,664.4,267.8)" />
<use xlink:href="#f0_rx" transform="matrix(11.8,0,0,11.8,673.5,267.8)" />
<use xlink:href="#f0_ae" transform="matrix(11.8,0,0,11.8,682.7,267.8)" />
<use xlink:href="#f0_1r" transform="matrix(11.8,0,0,11.8,701.1,267.8)" />
<use xlink:href="#f0_am" transform="matrix(11.8,0,0,11.8,708.6,267.8)" />
<use xlink:href="#f0_ci" transform="matrix(11.8,0,0,11.8,718.1,267.8)" />
<use xlink:href="#f0_1r" transform="matrix(11.8,0,0,11.8,735,267.8)" />
<use xlink:href="#f0_77" transform="matrix(11.8,0,0,11.8,742.5,267.8)" />
<use xlink:href="#f0_co" transform="matrix(11.8,0,0,11.8,751.1,267.8)" />
<use xlink:href="#f0_7z" transform="matrix(11.8,0,0,11.8,759.2,267.8)" />
<use xlink:href="#f0_b1" transform="matrix(11.8,0,0,11.8,768.1,267.8)" />
<use xlink:href="#f0_s1" transform="matrix(11.8,0,0,11.8,636.5,189.8)" />
</g>
</g>
<text x="646" y="267" dx="0,0,0.1,0,0.1,-0.1,0,-0.1,0,0,0,-0.1,0,-0.1,0" class="s1_1">2000m Low Layer</text>
<g clip-path="url(#c0_1)">
<g fill="#000000" >
<use xlink:href="#f0_s2" transform="matrix(11.8,0,0,11.8,645.6,189.8)" />
<use xlink:href="#f0_rx" transform="matrix(11.8,0,0,11.8,654.8,189.8)" />
<use xlink:href="#f0_rx" transform="matrix(11.8,0,0,11.8,663.9,189.8)" />
<use xlink:href="#f0_ae" transform="matrix(11.8,0,0,11.8,673.1,189.8)" />
<use xlink:href="#f0_1x" transform="matrix(11.8,0,0,11.8,691.5,189.8)" />
<use xlink:href="#f0_9q" transform="matrix(11.8,0,0,11.8,706.9,189.8)" />
<use xlink:href="#f0_7v" transform="matrix(11.8,0,0,11.8,710.9,189.8)" />
<use xlink:href="#f0_7v" transform="matrix(11.8,0,0,11.8,720.2,189.8)" />
<use xlink:href="#f0_a8" transform="matrix(11.8,0,0,11.8,729.6,189.8)" />
<use xlink:href="#f0_7z" transform="matrix(11.8,0,0,11.8,733.6,189.8)" />
<use xlink:href="#f0_a8" transform="matrix(11.8,0,0,11.8,747.3,189.8)" />
<use xlink:href="#f0_77" transform="matrix(11.8,0,0,11.8,751.4,189.8)" />
<use xlink:href="#f0_co" transform="matrix(11.8,0,0,11.8,760,189.8)" />
<use xlink:href="#f0_7z" transform="matrix(11.8,0,0,11.8,768.1,189.8)" />
<use xlink:href="#f0_b1" transform="matrix(11.8,0,0,11.8,777,189.8)" />
<use xlink:href="#f0_ry" transform="matrix(11.8,0,0,11.8,641.3,114.7)" />
</g>
</g>
<text x="636" y="189" dx="0,0,0.1,0,0.1,-0.1,0,0,-0.1,-0.1,-0.1,-0.1,0,0.7,-0.1,0,-0.1,0" class="s1_1">4500m Middle layer</text>
<g clip-path="url(#c0_1)">
<g fill="#000000" >
<use xlink:href="#f0_rx" transform="matrix(11.8,0,0,11.8,650.4,114.7)" />
<use xlink:href="#f0_rx" transform="matrix(11.8,0,0,11.8,659.6,114.7)" />
<use xlink:href="#f0_rx" transform="matrix(11.8,0,0,11.8,668.7,114.7)" />
<use xlink:href="#f0_rx" transform="matrix(11.8,0,0,11.8,677.9,114.7)" />
<use xlink:href="#f0_ae" transform="matrix(11.8,0,0,11.8,687,114.7)" />
<use xlink:href="#f0_19" transform="matrix(11.8,0,0,11.8,705.4,114.7)" />
<use xlink:href="#f0_9q" transform="matrix(11.8,0,0,11.8,716.6,114.7)" />
<use xlink:href="#f0_9d" transform="matrix(11.8,0,0,11.8,720.6,114.7)" />
<use xlink:href="#f0_9n" transform="matrix(11.8,0,0,11.8,729,114.7)" />
<use xlink:href="#f0_a8" transform="matrix(11.8,0,0,11.8,742.7,114.7)" />
<use xlink:href="#f0_77" transform="matrix(11.8,0,0,11.8,746.8,114.7)" />
<use xlink:href="#f0_co" transform="matrix(11.8,0,0,11.8,755.4,114.7)" />
<use xlink:href="#f0_7z" transform="matrix(11.8,0,0,11.8,763.5,114.7)" />
<use xlink:href="#f0_b1" transform="matrix(11.8,0,0,11.8,772.4,114.7)" />
<use xlink:href="#f0_5" transform="matrix(11.8,0,0,11.8,348.3,33.6)" />
</g>
</g>
<text x="641" y="114" dx="0,0,0,0,0,0,-0.1,0,0,-0.1,0,-0.1,0.3,-0.1,0,-0.1,0" class="s2_1">10000m High layer</text>
<g clip-path="url(#c0_1)">
<g fill="#000000" >
<use xlink:href="#f0_bf" transform="matrix(11.8,0,0,11.8,358.7,33.6)" />
<use xlink:href="#f0_ae" transform="matrix(11.8,0,0,11.8,364.8,33.6)" />
<use xlink:href="#f0_am" transform="matrix(11.8,0,0,11.8,379.1,33.6)" />
<use xlink:href="#f0_b5" transform="matrix(11.8,0,0,11.8,388.6,33.6)" />
<use xlink:href="#f0_ay" transform="matrix(11.8,0,0,11.8,395.6,33.6)" />
<use xlink:href="#f0_9n" transform="matrix(11.8,0,0,11.8,404.9,33.6)" />
<use xlink:href="#f0_7z" transform="matrix(11.8,0,0,11.8,414.3,33.6)" />
<use xlink:href="#f0_b1" transform="matrix(11.8,0,0,11.8,423.2,33.6)" />
<use xlink:href="#f0_7z" transform="matrix(11.8,0,0,11.8,429.5,33.6)" />
<use xlink:href="#f0_1x" transform="matrix(11.8,0,0,11.8,443.2,33.6)" />
<use xlink:href="#f0_am" transform="matrix(11.8,0,0,11.8,458.6,33.6)" />
<use xlink:href="#f0_7v" transform="matrix(11.8,0,0,11.8,468.2,33.6)" />
<use xlink:href="#f0_7z" transform="matrix(11.8,0,0,11.8,477.5,33.6)" />
<use xlink:href="#f0_a8" transform="matrix(11.8,0,0,11.8,486.4,33.6)" />
<use xlink:href="#f0_oj" transform="matrix(11.8,0,0,11.8,495,33.6)" />
<use xlink:href="#f0_1r" transform="matrix(11.8,0,0,11.8,504.5,33.6)" />
<use xlink:href="#f0_77" transform="matrix(11.8,0,0,11.8,512.1,33.6)" />
<use xlink:href="#f0_co" transform="matrix(11.8,0,0,11.8,520.7,33.6)" />
<use xlink:href="#f0_7z" transform="matrix(11.8,0,0,11.8,528.7,33.6)" />
<use xlink:href="#f0_b1" transform="matrix(11.8,0,0,11.8,537.7,33.6)" />
<use xlink:href="#f0_b5" transform="matrix(11.8,0,0,11.8,544,33.6)" />
<use xlink:href="#f1_j" transform="matrix(11.8,0,0,11.8,308.7,250)" />
</g>
</g>
<text x="348" y="33" dx="0,0,0.1,-0.1,0.1,-0.1,-0.1,-0.1,0,0,0,0.7,0,0.1,-0.1,0,-0.1,0.4,0,0,0,0,-0.1,0,0" class="s2_1">Atmosphere Model - Layers</text>
<g clip-path="url(#c0_1)">
<g fill="#000000" >
<use xlink:href="#f1_c6" transform="matrix(11.8,0,0,11.8,318,250)" />
<use xlink:href="#f1_ae" transform="matrix(11.8,0,0,11.8,327.2,250)" />
<use xlink:href="#f1_c6" transform="matrix(11.8,0,0,11.8,341.5,250)" />
<use xlink:href="#f1_a8" transform="matrix(11.8,0,0,11.8,350.6,250)" />
<use xlink:href="#f1_c6" transform="matrix(11.8,0,0,11.8,354.7,250)" />
<use xlink:href="#f1_b5" transform="matrix(11.8,0,0,11.8,363.8,250)" />
<use xlink:href="#f1_7l" transform="matrix(11.8,0,0,11.8,375,250)" />
<use xlink:href="#f1_a8" transform="matrix(11.8,0,0,11.8,382.4,250)" />
<use xlink:href="#f1_am" transform="matrix(11.8,0,0,11.8,386.5,250)" />
<use xlink:href="#f1_c6" transform="matrix(11.8,0,0,11.8,395.7,250)" />
<use xlink:href="#f1_7v" transform="matrix(11.8,0,0,11.8,404.9,250)" />
<use xlink:href="#f1_b5" transform="matrix(11.8,0,0,11.8,414,250)" />
<use xlink:href="#f1_5" transform="matrix(11.8,0,0,11.8,308.7,182.3)" />
</g>
</g>
<text x="308" y="249" dx="0,0,-0.1,0.1,-0.1,-0.1,-0.1,0,0.1,0,-0.1,0,-0.1,-0.1" class="s3_1">Cumulus clouds</text>
<g clip-path="url(#c0_1)">
<g fill="#000000" >
<use xlink:href="#f1_a8" transform="matrix(11.8,0,0,11.8,319.1,182.3)" />
<use xlink:href="#f1_bf" transform="matrix(11.8,0,0,11.8,323.2,182.3)" />
<use xlink:href="#f1_am" transform="matrix(11.8,0,0,11.8,329.2,182.3)" />
<use xlink:href="#f1_7l" transform="matrix(11.8,0,0,11.8,342.6,182.3)" />
<use xlink:href="#f1_a8" transform="matrix(11.8,0,0,11.8,350,182.3)" />
<use xlink:href="#f1_am" transform="matrix(11.8,0,0,11.8,354.1,182.3)" />
<use xlink:href="#f1_c6" transform="matrix(11.8,0,0,11.8,363.3,182.3)" />
<use xlink:href="#f1_7v" transform="matrix(11.8,0,0,11.8,372.4,182.3)" />
<use xlink:href="#f1_b5" transform="matrix(11.8,0,0,11.8,381.6,182.3)" />
<use xlink:href="#f1_j" transform="matrix(11.8,0,0,11.8,308.7,104.6)" />
</g>
</g>
<text x="308" y="182" dx="0,0,0,0,-0.1,0.1,0,-0.1,0,-0.1,-0.1" class="s3_1">Alto clouds</text>
<g clip-path="url(#c0_1)">
<g fill="#000000" >
<use xlink:href="#f1_9q" transform="matrix(11.8,0,0,11.8,318,104.6)" />
<use xlink:href="#f1_b1" transform="matrix(11.8,0,0,11.8,322,104.6)" />
<use xlink:href="#f1_b1" transform="matrix(11.8,0,0,11.8,328.3,104.6)" />
<use xlink:href="#f1_c6" transform="matrix(11.8,0,0,11.8,334.5,104.6)" />
<use xlink:href="#f1_b5" transform="matrix(11.8,0,0,11.8,343.6,104.6)" />
<use xlink:href="#f1_7l" transform="matrix(11.8,0,0,11.8,354.7,104.6)" />
<use xlink:href="#f1_a8" transform="matrix(11.8,0,0,11.8,362.2,104.6)" />
<use xlink:href="#f1_am" transform="matrix(11.8,0,0,11.8,366.2,104.6)" />
<use xlink:href="#f1_c6" transform="matrix(11.8,0,0,11.8,375.4,104.6)" />
<use xlink:href="#f1_7v" transform="matrix(11.8,0,0,11.8,384.5,104.6)" />
<use xlink:href="#f1_b5" transform="matrix(11.8,0,0,11.8,393.7,104.6)" />
<use xlink:href="#f0_j" transform="matrix(11.8,0,0,11.8,1169.8,33.6)" />
</g>
</g>
<text x="308" y="104" dx="0,0,-0.1,0.1,0.1,-0.1,0,0,0,-0.1,0,-0.1,-0.1" class="s3_1">Cirrus clouds</text>
<g clip-path="url(#c0_1)">
<g fill="#000000" >
<use xlink:href="#f0_a8" transform="matrix(11.8,0,0,11.8,1179.4,33.6)" />
<use xlink:href="#f0_am" transform="matrix(11.8,0,0,11.8,1183.4,33.6)" />
<use xlink:href="#f0_c6" transform="matrix(11.8,0,0,11.8,1192.9,33.6)" />
<use xlink:href="#f0_7v" transform="matrix(11.8,0,0,11.8,1202.2,33.6)" />
<use xlink:href="#f0_1x" transform="matrix(11.8,0,0,11.8,1216.2,33.6)" />
<use xlink:href="#f0_am" transform="matrix(11.8,0,0,11.8,1231.5,33.6)" />
<use xlink:href="#f0_7v" transform="matrix(11.8,0,0,11.8,1241.1,33.6)" />
<use xlink:href="#f0_7z" transform="matrix(11.8,0,0,11.8,1250.4,33.6)" />
<use xlink:href="#f0_a8" transform="matrix(11.8,0,0,11.8,1259.4,33.6)" />
</g>
</g>
<text x="1169" y="33" dx="0,0,-0.1,0.1,-0.1,-0.1,0.5,0,0.1,-0.1,0" class="s2_1">Cloud Model</text>
<path d="M1106.1,213h214.6V49.3H1106.1V213Z" class="g5_1" />
<g clip-path="url(#c0_1)">
<g fill="#000000" >
<use xlink:href="#f0_j" transform="matrix(11.8,0,0,11.8,1117.1,71.7)" />
<use xlink:href="#f0_a8" transform="matrix(11.8,0,0,11.8,1126.7,71.7)" />
<use xlink:href="#f0_am" transform="matrix(11.8,0,0,11.8,1130.7,71.7)" />
<use xlink:href="#f0_c6" transform="matrix(11.8,0,0,11.8,1140.2,71.7)" />
<use xlink:href="#f0_7v" transform="matrix(11.8,0,0,11.8,1149.6,71.7)" />
<use xlink:href="#f0_2t" transform="matrix(11.8,0,0,11.8,1158.9,71.7)" />
<use xlink:href="#f0_co" transform="matrix(11.8,0,0,11.8,1167.6,71.7)" />
<use xlink:href="#f0_ay" transform="matrix(11.8,0,0,11.8,1175.8,71.7)" />
<use xlink:href="#f0_7z" transform="matrix(11.8,0,0,11.8,1185.1,71.7)" />
<use xlink:href="#f0_bf" transform="matrix(11.8,0,0,11.8,1199.1,71.7)" />
<use xlink:href="#f0_co" transform="matrix(11.8,0,0,11.8,1205.1,71.7)" />
<use xlink:href="#f0_ay" transform="matrix(11.8,0,0,11.8,1213.3,71.7)" />
<use xlink:href="#f0_7z" transform="matrix(11.8,0,0,11.8,1222.6,71.7)" />
<use xlink:href="#f0_nr" transform="matrix(11.8,0,0,11.8,1231.5,71.7)" />
<use xlink:href="#f0_ch" transform="matrix(11.8,0,0,11.8,1117.1,114.8)" />
</g>
</g>
<text x="1117" y="71" dx="0,0,-0.1,0.1,-0.1,-0.1,0,0,-0.1,0,1,0,0,-0.1,0" class="s2_1">CloudType type;</text>
<g clip-path="url(#c0_1)">
<g fill="#000000" >
<use xlink:href="#f0_7z" transform="matrix(11.8,0,0,11.8,1125.2,114.8)" />
<use xlink:href="#f0_7l" transform="matrix(11.8,0,0,11.8,1134.2,114.8)" />
<use xlink:href="#f0_bf" transform="matrix(11.8,0,0,11.8,1141.7,114.8)" />
<use xlink:href="#f0_am" transform="matrix(11.8,0,0,11.8,1147.7,114.8)" />
<use xlink:href="#f0_b1" transform="matrix(11.8,0,0,11.8,1157.3,114.8)" />
<use xlink:href="#f0_ud" transform="matrix(11.8,0,0,11.8,1163.5,114.8)" />
<use xlink:href="#f0_2n" transform="matrix(11.8,0,0,11.8,1172.5,114.8)" />
<use xlink:href="#f0_ay" transform="matrix(11.8,0,0,11.8,1180.7,114.8)" />
<use xlink:href="#f0_9n" transform="matrix(11.8,0,0,11.8,1190.1,114.8)" />
<use xlink:href="#f0_7z" transform="matrix(11.8,0,0,11.8,1199.4,114.8)" />
<use xlink:href="#f0_b1" transform="matrix(11.8,0,0,11.8,1208.4,114.8)" />
<use xlink:href="#f0_7z" transform="matrix(11.8,0,0,11.8,1214.7,114.8)" />
<use xlink:href="#f0_ue" transform="matrix(11.8,0,0,11.8,1223.7,114.8)" />
<use xlink:href="#f0_b5" transform="matrix(11.8,0,0,11.8,1237.4,114.8)" />
<use xlink:href="#f0_9n" transform="matrix(11.8,0,0,11.8,1244.4,114.8)" />
<use xlink:href="#f0_77" transform="matrix(11.8,0,0,11.8,1253.7,114.8)" />
<use xlink:href="#f0_ay" transform="matrix(11.8,0,0,11.8,1262.4,114.8)" />
<use xlink:href="#f0_7z" transform="matrix(11.8,0,0,11.8,1271.7,114.8)" />
<use xlink:href="#f0_nr" transform="matrix(11.8,0,0,11.8,1280.7,114.8)" />
<use xlink:href="#f0_ch" transform="matrix(11.8,0,0,11.8,1117.1,136.4)" />
</g>
</g>
<text x="1117" y="114" dx="0,-0.1,0,-0.1,0,0.1,0,0,0,-0.1,-0.1,0,0,0,0,0.7,-0.1,-0.1,0,-0.1,0" class="s1_1">vector&lt;Sphere&gt; shape;</text>
<g clip-path="url(#c0_1)">
<g fill="#000000" >
<use xlink:href="#f0_7z" transform="matrix(11.8,0,0,11.8,1125.2,136.4)" />
<use xlink:href="#f0_7l" transform="matrix(11.8,0,0,11.8,1134.1,136.4)" />
<use xlink:href="#f0_bf" transform="matrix(11.8,0,0,11.8,1141.7,136.4)" />
<use xlink:href="#f0_am" transform="matrix(11.8,0,0,11.8,1147.8,136.4)" />
<use xlink:href="#f0_b1" transform="matrix(11.8,0,0,11.8,1157.2,136.4)" />
<use xlink:href="#f0_ud" transform="matrix(11.8,0,0,11.8,1163.5,136.4)" />
<use xlink:href="#f0_7v" transform="matrix(11.8,0,0,11.8,1172.5,136.4)" />
<use xlink:href="#f0_am" transform="matrix(11.8,0,0,11.8,1181.9,136.4)" />
<use xlink:href="#f0_c6" transform="matrix(11.8,0,0,11.8,1191.4,136.4)" />
<use xlink:href="#f0_7k" transform="matrix(11.8,0,0,11.8,1200.7,136.4)" />
<use xlink:href="#f0_a8" transform="matrix(11.8,0,0,11.8,1210.2,136.4)" />
<use xlink:href="#f0_7z" transform="matrix(11.8,0,0,11.8,1214.3,136.4)" />
<use xlink:href="#f0_ue" transform="matrix(11.8,0,0,11.8,1223.2,136.4)" />
<use xlink:href="#f0_7v" transform="matrix(11.8,0,0,11.8,1237.2,136.4)" />
<use xlink:href="#f0_7z" transform="matrix(11.8,0,0,11.8,1246.6,136.4)" />
<use xlink:href="#f0_af" transform="matrix(11.8,0,0,11.8,1255.5,136.4)" />
<use xlink:href="#f0_b5" transform="matrix(11.8,0,0,11.8,1265,136.4)" />
<use xlink:href="#f0_9q" transform="matrix(11.8,0,0,11.8,1271.9,136.4)" />
<use xlink:href="#f0_bf" transform="matrix(11.8,0,0,11.8,1275.9,136.4)" />
<use xlink:href="#f0_9q" transform="matrix(11.8,0,0,11.8,1281.9,136.4)" />
<use xlink:href="#f0_7z" transform="matrix(11.8,0,0,11.8,1286,136.4)" />
<use xlink:href="#f0_b5" transform="matrix(11.8,0,0,11.8,1295.1,136.4)" />
<use xlink:href="#f0_nr" transform="matrix(11.8,0,0,11.8,1302.1,136.4)" />
<use xlink:href="#f0_7v" transform="matrix(11.8,0,0,11.8,1117.1,179.7)" />
</g>
</g>
<text x="1117" y="136" dx="0,-0.1,0,0,0,0,0,0,0,0,-0.1,0.1,-0.1,0,0.1,1,-0.1,0,0,-0.1,-0.1,0,-0.1,0.2,0" class="s2_1">vector&lt;double&gt; densities;</text>
<g clip-path="url(#c0_1)">
<g fill="#000000" >
<use xlink:href="#f0_am" transform="matrix(11.8,0,0,11.8,1126.5,179.7)" />
<use xlink:href="#f0_c6" transform="matrix(11.8,0,0,11.8,1136,179.7)" />
<use xlink:href="#f0_7k" transform="matrix(11.8,0,0,11.8,1145.3,179.7)" />
<use xlink:href="#f0_a8" transform="matrix(11.8,0,0,11.8,1154.7,179.7)" />
<use xlink:href="#f0_7z" transform="matrix(11.8,0,0,11.8,1158.7,179.7)" />
<use xlink:href="#f0_ae" transform="matrix(11.8,0,0,11.8,1172.5,179.7)" />
<use xlink:href="#f0_77" transform="matrix(11.8,0,0,11.8,1186.8,179.7)" />
<use xlink:href="#f0_cn" transform="matrix(11.8,0,0,11.8,1195.4,179.7)" />
<use xlink:href="#f0_39" transform="matrix(11.8,0,0,11.8,1203.1,179.7)" />
<use xlink:href="#f0_9q" transform="matrix(11.8,0,0,11.8,1219.1,179.7)" />
<use xlink:href="#f0_7v" transform="matrix(11.8,0,0,11.8,1223.1,179.7)" />
<use xlink:href="#f0_bf" transform="matrix(11.8,0,0,11.8,1232.5,179.7)" />
<use xlink:href="#f0_9n" transform="matrix(11.8,0,0,11.8,1238.5,179.7)" />
<use xlink:href="#f0_nr" transform="matrix(11.8,0,0,11.8,1247.9,179.7)" />
<use xlink:href="#f0_7v" transform="matrix(11.8,0,0,11.8,1117.1,201.4)" />
</g>
</g>
<text x="1117" y="179" dx="0,-0.1,0.1,-0.1,-0.1,-0.1,0,0.8,-0.1,0,-0.1,0,-0.1,-0.1,0,0" class="s2_1">double maxWidth;</text>
<g clip-path="url(#c0_1)">
<g fill="#000000" >
<use xlink:href="#f0_am" transform="matrix(11.8,0,0,11.8,1126.5,201.4)" />
<use xlink:href="#f0_c6" transform="matrix(11.8,0,0,11.8,1136,201.4)" />
<use xlink:href="#f0_7k" transform="matrix(11.8,0,0,11.8,1145.3,201.4)" />
<use xlink:href="#f0_a8" transform="matrix(11.8,0,0,11.8,1154.7,201.4)" />
<use xlink:href="#f0_7z" transform="matrix(11.8,0,0,11.8,1158.7,201.4)" />
<use xlink:href="#f0_ae" transform="matrix(11.8,0,0,11.8,1172.5,201.4)" />
<use xlink:href="#f0_77" transform="matrix(11.8,0,0,11.8,1186.8,201.4)" />
<use xlink:href="#f0_cn" transform="matrix(11.8,0,0,11.8,1195.4,201.4)" />
<use xlink:href="#f0_19" transform="matrix(11.8,0,0,11.8,1203.1,201.4)" />
<use xlink:href="#f0_7z" transform="matrix(11.8,0,0,11.8,1214.3,201.4)" />
<use xlink:href="#f0_9q" transform="matrix(11.8,0,0,11.8,1223.3,201.4)" />
<use xlink:href="#f0_9d" transform="matrix(11.8,0,0,11.8,1227.3,201.4)" />
<use xlink:href="#f0_9n" transform="matrix(11.8,0,0,11.8,1235.8,201.4)" />
<use xlink:href="#f0_bf" transform="matrix(11.8,0,0,11.8,1245.1,201.4)" />
<use xlink:href="#f0_nr" transform="matrix(11.8,0,0,11.8,1251.2,201.4)" />
<use xlink:href="#f0_j" transform="matrix(11.8,0,0,11.8,909.2,33.6)" />
</g>
</g>
<text x="1117" y="201" dx="0,-0.1,0.1,-0.1,-0.1,-0.1,0,0.8,-0.1,0,-0.1,0,0,-0.1,0,-0.1,0" class="s2_1">double maxHeight;</text>
<g clip-path="url(#c0_1)">
<g fill="#000000" >
<use xlink:href="#f0_a8" transform="matrix(11.8,0,0,11.8,918.8,33.6)" />
<use xlink:href="#f0_am" transform="matrix(11.8,0,0,11.8,922.8,33.6)" />
<use xlink:href="#f0_c6" transform="matrix(11.8,0,0,11.8,932.3,33.6)" />
<use xlink:href="#f0_7v" transform="matrix(11.8,0,0,11.8,941.7,33.6)" />
<use xlink:href="#f0_2t" transform="matrix(11.8,0,0,11.8,955.6,33.6)" />
<use xlink:href="#f0_co" transform="matrix(11.8,0,0,11.8,964.3,33.6)" />
<use xlink:href="#f0_ay" transform="matrix(11.8,0,0,11.8,972.5,33.6)" />
<use xlink:href="#f0_7z" transform="matrix(11.8,0,0,11.8,981.8,33.6)" />
<use xlink:href="#f0_b5" transform="matrix(11.8,0,0,11.8,990.7,33.6)" />
</g>
</g>
<text x="909" y="33" dx="0,0,-0.1,0.1,-0.1,-0.1,0.5,0,0,-0.1,0" class="s2_1">Cloud Types</text>
<path d="M872.5,234.3h156.6V48.8H872.5V234.3Z" class="g5_1" />
<g clip-path="url(#c0_1)">
<g fill="#000000" >
<use xlink:href="#f0_j" transform="matrix(11.8,0,0,11.8,883.6,71.2)" />
<use xlink:href="#f0_2x" transform="matrix(11.8,0,0,11.8,893.1,71.2)" />
<use xlink:href="#f0_1x" transform="matrix(11.8,0,0,11.8,904.7,71.2)" />
<use xlink:href="#f0_2x" transform="matrix(11.8,0,0,11.8,920,71.2)" />
<use xlink:href="#f0_1r" transform="matrix(11.8,0,0,11.8,931.6,71.2)" />
<use xlink:href="#f0_2x" transform="matrix(11.8,0,0,11.8,939.1,71.2)" />
<use xlink:href="#f0_2n" transform="matrix(11.8,0,0,11.8,950.6,71.2)" />
<use xlink:href="#f0_2n" transform="matrix(11.8,0,0,11.8,883.6,92.8)" />
</g>
</g>
<text x="883" y="71" class="s2_1">CUMULUS</text>
<g clip-path="url(#c0_1)">
<g fill="#000000" >
<use xlink:href="#f0_2t" transform="matrix(11.8,0,0,11.8,891.8,92.8)" />
<use xlink:href="#f0_2j" transform="matrix(11.8,0,0,11.8,900.6,92.8)" />
<use xlink:href="#f0_5" transform="matrix(11.8,0,0,11.8,910.4,92.8)" />
<use xlink:href="#f0_2t" transform="matrix(11.8,0,0,11.8,920.8,92.8)" />
<use xlink:href="#f0_24" transform="matrix(11.8,0,0,11.8,929.6,92.8)" />
<use xlink:href="#f0_j" transform="matrix(11.8,0,0,11.8,941.5,92.8)" />
<use xlink:href="#f0_2x" transform="matrix(11.8,0,0,11.8,951.1,92.8)" />
<use xlink:href="#f0_1x" transform="matrix(11.8,0,0,11.8,962.6,92.8)" />
<use xlink:href="#f0_2x" transform="matrix(11.8,0,0,11.8,978,92.8)" />
<use xlink:href="#f0_1r" transform="matrix(11.8,0,0,11.8,989.5,92.8)" />
<use xlink:href="#f0_2x" transform="matrix(11.8,0,0,11.8,997.1,92.8)" />
<use xlink:href="#f0_2n" transform="matrix(11.8,0,0,11.8,1008.6,92.8)" />
<use xlink:href="#f0_1y" transform="matrix(11.8,0,0,11.8,883.6,114.3)" />
</g>
</g>
<text x="883" y="92" dx="0,0,0,0,0,0,0,0,0,0,-0.1,0,0" class="s1_1">STRATOCUMULUS</text>
<g clip-path="url(#c0_1)">
<g fill="#000000" >
<use xlink:href="#f0_1c" transform="matrix(11.8,0,0,11.8,895.1,114.3)" />
<use xlink:href="#f0_1x" transform="matrix(11.8,0,0,11.8,899.7,114.3)" />
<use xlink:href="#f0_i" transform="matrix(11.8,0,0,11.8,915,114.3)" />
<use xlink:href="#f0_24" transform="matrix(11.8,0,0,11.8,924.8,114.3)" />
<use xlink:href="#f0_2n" transform="matrix(11.8,0,0,11.8,936.7,114.3)" />
<use xlink:href="#f0_2t" transform="matrix(11.8,0,0,11.8,945,114.3)" />
<use xlink:href="#f0_2j" transform="matrix(11.8,0,0,11.8,953.7,114.3)" />
<use xlink:href="#f0_5" transform="matrix(11.8,0,0,11.8,963.5,114.3)" />
<use xlink:href="#f0_2t" transform="matrix(11.8,0,0,11.8,973.9,114.3)" />
<use xlink:href="#f0_2x" transform="matrix(11.8,0,0,11.8,982.7,114.3)" />
<use xlink:href="#f0_2n" transform="matrix(11.8,0,0,11.8,994.2,114.3)" />
<use xlink:href="#f0_5" transform="matrix(11.8,0,0,11.8,883.6,135.9)" />
</g>
</g>
<text x="883" y="114" dx="0,-0.1,0,0,0,0,0,0,0,0,0,0" class="s2_1">NIMBOSTRATUS</text>
<g clip-path="url(#c0_1)">
<g fill="#000000" >
<use xlink:href="#f0_1r" transform="matrix(11.8,0,0,11.8,894,135.9)" />
<use xlink:href="#f0_2t" transform="matrix(11.8,0,0,11.8,901.5,135.9)" />
<use xlink:href="#f0_24" transform="matrix(11.8,0,0,11.8,910.3,135.9)" />
<use xlink:href="#f0_j" transform="matrix(11.8,0,0,11.8,922.2,135.9)" />
<use xlink:href="#f0_2x" transform="matrix(11.8,0,0,11.8,931.8,135.9)" />
<use xlink:href="#f0_1x" transform="matrix(11.8,0,0,11.8,943.3,135.9)" />
<use xlink:href="#f0_2x" transform="matrix(11.8,0,0,11.8,958.7,135.9)" />
<use xlink:href="#f0_1r" transform="matrix(11.8,0,0,11.8,970.3,135.9)" />
<use xlink:href="#f0_2x" transform="matrix(11.8,0,0,11.8,977.8,135.9)" />
<use xlink:href="#f0_2n" transform="matrix(11.8,0,0,11.8,989.4,135.9)" />
<use xlink:href="#f0_5" transform="matrix(11.8,0,0,11.8,883.6,157.6)" />
</g>
</g>
<text x="883" y="135" dx="0,0,0,0,0,0,-0.1,0,0,0,0,-0.1" class="s1_1">ALTOCUMULUS </text>
<g clip-path="url(#c0_1)">
<g fill="#000000" >
<use xlink:href="#f0_1r" transform="matrix(11.8,0,0,11.8,894,157.6)" />
<use xlink:href="#f0_2t" transform="matrix(11.8,0,0,11.8,901.5,157.6)" />
<use xlink:href="#f0_24" transform="matrix(11.8,0,0,11.8,910.3,157.6)" />
<use xlink:href="#f0_2n" transform="matrix(11.8,0,0,11.8,922.2,157.6)" />
<use xlink:href="#f0_2t" transform="matrix(11.8,0,0,11.8,930.5,157.6)" />
<use xlink:href="#f0_2j" transform="matrix(11.8,0,0,11.8,939.3,157.6)" />
<use xlink:href="#f0_5" transform="matrix(11.8,0,0,11.8,949,157.6)" />
<use xlink:href="#f0_2t" transform="matrix(11.8,0,0,11.8,959.4,157.6)" />
<use xlink:href="#f0_2x" transform="matrix(11.8,0,0,11.8,968.2,157.6)" />
<use xlink:href="#f0_2n" transform="matrix(11.8,0,0,11.8,979.7,157.6)" />
<use xlink:href="#f0_j" transform="matrix(11.8,0,0,11.8,883.6,179.2)" />
</g>
</g>
<text x="883" y="157" dx="0,0,0,0.1,0,0,0.1,0,0,0,0" class="s2_1">ALTOSTRATUS</text>
<g clip-path="url(#c0_1)">
<g fill="#000000" >
<use xlink:href="#f0_1c" transform="matrix(11.8,0,0,11.8,893.1,179.2)" />
<use xlink:href="#f0_2j" transform="matrix(11.8,0,0,11.8,897.7,179.2)" />
<use xlink:href="#f0_2j" transform="matrix(11.8,0,0,11.8,907.4,179.2)" />
<use xlink:href="#f0_2x" transform="matrix(11.8,0,0,11.8,917.1,179.2)" />
<use xlink:href="#f0_2n" transform="matrix(11.8,0,0,11.8,928.6,179.2)" />
<use xlink:href="#f0_j" transform="matrix(11.8,0,0,11.8,883.6,200.9)" />
</g>
</g>
<text x="883" y="179" dx="0,0,0,0,-0.1,0" class="s2_1">CIRRUS</text>
<g clip-path="url(#c0_1)">
<g fill="#000000" >
<use xlink:href="#f0_1c" transform="matrix(11.8,0,0,11.8,893.1,200.9)" />
<use xlink:href="#f0_2j" transform="matrix(11.8,0,0,11.8,897.6,200.9)" />
<use xlink:href="#f0_2j" transform="matrix(11.8,0,0,11.8,907.4,200.9)" />
<use xlink:href="#f0_24" transform="matrix(11.8,0,0,11.8,917.1,200.9)" />
<use xlink:href="#f0_j" transform="matrix(11.8,0,0,11.8,929,200.9)" />
<use xlink:href="#f0_2x" transform="matrix(11.8,0,0,11.8,938.6,200.9)" />
<use xlink:href="#f0_1x" transform="matrix(11.8,0,0,11.8,950.1,200.9)" />
<use xlink:href="#f0_2x" transform="matrix(11.8,0,0,11.8,965.5,200.9)" />
<use xlink:href="#f0_1r" transform="matrix(11.8,0,0,11.8,977.1,200.9)" />
<use xlink:href="#f0_2x" transform="matrix(11.8,0,0,11.8,984.6,200.9)" />
<use xlink:href="#f0_2n" transform="matrix(11.8,0,0,11.8,996.1,200.9)" />
<use xlink:href="#f0_j" transform="matrix(11.8,0,0,11.8,883.6,222.3)" />
</g>
</g>
<text x="883" y="200" dx="0,-0.1,0,0,-0.1,0,-0.1,0,0,0,0,-0.1" class="s1_1">CIRROCUMULUS</text>
<g clip-path="url(#c0_1)">
<g fill="#000000" >
<use xlink:href="#f0_2x" transform="matrix(11.8,0,0,11.8,893.1,222.3)" />
<use xlink:href="#f0_1x" transform="matrix(11.8,0,0,11.8,904.7,222.3)" />
<use xlink:href="#f0_2x" transform="matrix(11.8,0,0,11.8,920,222.3)" />
<use xlink:href="#f0_1r" transform="matrix(11.8,0,0,11.8,931.6,222.3)" />
<use xlink:href="#f0_24" transform="matrix(11.8,0,0,11.8,939.1,222.3)" />
<use xlink:href="#f0_1y" transform="matrix(11.8,0,0,11.8,951,222.3)" />
<use xlink:href="#f0_1c" transform="matrix(11.8,0,0,11.8,962.6,222.3)" />
<use xlink:href="#f0_1x" transform="matrix(11.8,0,0,11.8,967.1,222.3)" />
<use xlink:href="#f0_i" transform="matrix(11.8,0,0,11.8,982.5,222.3)" />
<use xlink:href="#f0_2x" transform="matrix(11.8,0,0,11.8,992.3,222.3)" />
<use xlink:href="#f0_2n" transform="matrix(11.8,0,0,11.8,1003.8,222.3)" />
</g>
</g>
<text x="883" y="222" dx="0,0,0,0,0,0,0,0,0,0,-0.1,0" class="s2_1">CUMULONIMBUS</text>
<path fill-rule="evenodd" d="M134.6,284.7H276.5V53.5H134.6V284.7Z" class="g6_1" />
<path d="M134.6,284.7H276.5V53.5H134.6V284.7Z" class="g7_1" />
<g clip-path="url(#c0_1)">
<g fill="#000000" >
<use xlink:href="#f1_j" transform="matrix(11.8,0,0,11.8,143.2,167.9)" />
<use xlink:href="#f1_c6" transform="matrix(11.8,0,0,11.8,152.6,167.9)" />
<use xlink:href="#f1_ae" transform="matrix(11.8,0,0,11.8,161.7,167.9)" />
<use xlink:href="#f1_c6" transform="matrix(11.8,0,0,11.8,176,167.9)" />
<use xlink:href="#f1_a8" transform="matrix(11.8,0,0,11.8,185.2,167.9)" />
<use xlink:href="#f1_am" transform="matrix(11.8,0,0,11.8,189.2,167.9)" />
<use xlink:href="#f1_af" transform="matrix(11.8,0,0,11.8,198.4,167.9)" />
<use xlink:href="#f1_9q" transform="matrix(11.8,0,0,11.8,207.5,167.9)" />
<use xlink:href="#f1_ae" transform="matrix(11.8,0,0,11.8,211.5,167.9)" />
<use xlink:href="#f1_7k" transform="matrix(11.8,0,0,11.8,225.8,167.9)" />
<use xlink:href="#f1_c6" transform="matrix(11.8,0,0,11.8,235,167.9)" />
<use xlink:href="#f1_b5" transform="matrix(11.8,0,0,11.8,244.1,167.9)" />
<use xlink:href="#f1_7l" transform="matrix(11.8,0,0,11.8,174.2,189.5)" />
</g>
</g>
<text x="143" y="167" dx="0,0,-0.1,0.1,-0.1,-0.1,0,-0.1,-0.1,0.1,-0.1,-0.1" class="s3_1">Cumulonimbus</text>
<g clip-path="url(#c0_1)">
<g fill="#000000" >
<use xlink:href="#f1_a8" transform="matrix(11.8,0,0,11.8,181.6,189.5)" />
<use xlink:href="#f1_am" transform="matrix(11.8,0,0,11.8,185.7,189.5)" />
<use xlink:href="#f1_c6" transform="matrix(11.8,0,0,11.8,194.9,189.5)" />
<use xlink:href="#f1_7v" transform="matrix(11.8,0,0,11.8,204,189.5)" />
<use xlink:href="#f1_b5" transform="matrix(11.8,0,0,11.8,213.2,189.5)" />
</g>
</g>
<text x="174" y="189" dx="0,0,-0.1,0,-0.1,-0.1" class="s3_1">clouds</text>

<defs>
<path d="M128,0c0,0,-11,0,-19,3c0,0,-8,2,-13,8c0,0,-6,6,-8,17c0,0,-3,11,-3,28c0,0,0,15,1,26c0,0,1,11,5,20c0,0,4,8,9,17c0,0,6,8,15,18L302,336c0,0,65,68,104,123c0,0,39,54,61,99c0,0,21,45,28,81c0,0,6,37,6,69c0,0,0,32,-10,61c0,0,-11,29,-30,50c0,0,-20,22,-50,35c0,0,-30,12,-69,12c0,0,-45,0,-81,-12c0,0,-37,-13,-64,-28c0,0,-27,-15,-45,-27c0,0,-19,-13,-28,-13c0,0,-5,0,-9,3c0,0,-4,3,-7,10c0,0,-2,6,-4,18c0,0,-1,11,-1,26c0,0,0,12,0,20c0,0,1,8,3,14c0,0,2,6,5,11c0,0,3,5,12,13c0,0,9,8,31,21c0,0,22,14,55,27c0,0,33,13,73,22c0,0,40,9,84,9c0,0,70,0,123,-20c0,0,53,-20,87,-54c0,0,35,-34,52,-80c0,0,17,-46,17,-97c0,0,0,-46,-8,-92c0,0,-8,-46,-35,-99c0,0,-26,-54,-76,-119c0,0,-50,-65,-133,-151L240,109H660c0,0,6,0,12,-4c0,0,5,-3,9,-10c0,0,5,-7,6,-17c0,0,2,-10,2,-23c0,0,0,-13,-2,-24c0,0,-1,-10,-5,-17c0,0,-3,-7,-9,-11c0,0,-5,-3,-12,-3Z" 
id="f0_rz"
transform="scale(0.001,-0.001)" />

<path d="M385,92c0,0,42,0,74,13c0,0,31,14,54,39c0,0,23,25,38,60c0,0,15,35,24,77c0,0,9,43,12,92c0,0,3,50,3,103c0,0,0,73,-5,130c0,0,-5,57,-15,101c0,0,-10,44,-26,76c0,0,-16,32,-39,52c0,0,-22,21,-51,30c0,0,-29,9,-64,9c0,0,-64,0,-103,-30c0,0,-40,-29,-63,-82c0,0,-23,-52,-31,-122c0,0,-8,-70,-8,-150c0,0,0,-108,11,-184c0,0,11,-76,36,-123c0,0,24,-48,62,-69c0,0,37,-22,91,-22ZM378,-13c0,0,-91,0,-154,32c0,0,-62,32,-100,95c0,0,-38,63,-54,155c0,0,-16,92,-16,212c0,0,0,110,18,202c0,0,18,92,58,158c0,0,40,66,106,103c0,0,66,36,161,36c0,0,92,0,154,-33c0,0,62,-32,100,-95c0,0,39,-63,55,-155c0,0,16,-92,16,-212c0,0,0,-111,-18,-203c0,0,-17,-91,-58,-157C646,125,605,59,540,22c0,0,-66,-35,-162,-35Z" 
id="f0_rx"
transform="scale(0.001,-0.001)" />

<path d="M176,-4c0,0,-18,0,-30,2c0,0,-12,1,-19,3c0,0,-7,3,-10,7c0,0,-3,4,-3,10V690c0,0,0,6,3,10c0,0,2,4,9,7c0,0,6,4,17,5c0,0,10,1,27,1c0,0,17,0,28,-1c0,0,10,-1,16,-5c0,0,6,-3,9,-7c0,0,3,-4,3,-10V601c0,0,56,64,110,94c0,0,53,30,108,30c0,0,42,0,75,-10c0,0,33,-10,58,-28c0,0,26,-17,44,-42c0,0,18,-24,30,-55c0,0,33,37,63,63c0,0,31,26,59,41c0,0,28,16,54,23c0,0,27,8,53,8c0,0,65,0,109,-23c0,0,44,-23,71,-61c0,0,28,-38,39,-89c0,0,12,-52,12,-108V18c0,0,0,-6,-3,-10c0,0,-3,-4,-10,-7c0,0,-7,-2,-19,-3c0,0,-12,-2,-29,-2c0,0,-19,0,-31,2c0,0,-12,1,-19,3c0,0,-7,3,-10,7c0,0,-3,4,-3,10V427c0,0,0,43,-8,78c0,0,-7,35,-23,61c0,0,-17,25,-42,38c0,0,-25,14,-60,14c0,0,-42,0,-85,-33c0,0,-43,-33,-94,-96V18c0,0,0,-6,-3,-10c0,0,-3,-4,-11,-7c0,0,-7,-2,-19,-3c0,0,-11,-2,-29,-2c0,0,-18,0,-30,2c0,0,-12,1,-19,3c0,0,-7,3,-10,7c0,0,-3,4,-3,10V427c0,0,0,43,-8,78c0,0,-8,35,-24,61c0,0,-17,25,-42,38c0,0,-25,14,-59,14c0,0,-43,0,-86,-33c0,0,-44,-33,-95,-96V18c0,0,0,-6,-3,-10c0,0,-2,-4,-9,-7c0,0,-7,-2,-19,-3c0,0,-12,-2,-30,-2Z" 
id="f0_ae"
transform="scale(0.001,-0.001)" />

<path d="M176,0c0,0,-17,0,-33,12c0,0,-15,11,-15,40V946c0,0,0,6,3,11c0,0,3,4,11,7c0,0,7,2,20,4c0,0,12,2,30,2c0,0,19,0,31,-2c0,0,13,-2,20,-4c0,0,7,-3,10,-7c0,0,3,-5,3,-11V111H603c0,0,6,0,11,-3c0,0,5,-3,8,-10c0,0,4,-6,5,-16c0,0,2,-11,2,-26c0,0,0,-15,-2,-25c0,0,-1,-10,-5,-17c0,0,-3,-7,-8,-11c0,0,-5,-3,-11,-3Z" 
id="f0_1r"
transform="scale(0.001,-0.001)" />

<path d="M401,90c0,0,54,0,93,19c0,0,40,20,65,55c0,0,26,35,37,84c0,0,12,48,12,106c0,0,0,55,-10,104c0,0,-10,48,-33,85c0,0,-23,36,-62,58c0,0,-40,21,-99,21c0,0,-54,0,-93,-20c0,0,-39,-19,-65,-54c0,0,-25,-36,-37,-85c0,0,-12,-48,-12,-106c0,0,0,-55,10,-103c0,0,10,-49,33,-85c0,0,24,-36,63,-58c0,0,39,-21,98,-21ZM395,-13c0,0,-82,0,-144,24c0,0,-61,25,-102,72c0,0,-41,47,-61,114c0,0,-21,67,-21,152c0,0,0,82,22,151c0,0,21,69,64,119c0,0,43,50,107,78c0,0,64,28,150,28c0,0,82,0,144,-25c0,0,61,-25,102,-72c0,0,41,-47,62,-114c0,0,20,-67,20,-151c0,0,0,-83,-21,-152c0,0,-22,-69,-65,-119C652,92,609,42,545,14c0,0,-65,-27,-150,-27Z" 
id="f0_am"
transform="scale(0.001,-0.001)" />

<path d="M324,-4c0,0,-23,0,-37,2c0,0,-15,1,-24,3c0,0,-9,3,-14,8c0,0,-4,6,-7,13L46,660c0,0,-4,11,-5,18c0,0,-2,8,-2,13c0,0,0,7,3,11c0,0,3,4,10,7c0,0,8,2,19,3c0,0,12,1,30,1c0,0,20,0,33,-1c0,0,13,-1,20,-4c0,0,6,-3,9,-8c0,0,3,-4,5,-11L330,136l2,-7l1,7L482,689c0,0,1,7,5,11c0,0,3,5,10,8c0,0,6,3,18,4c0,0,12,1,31,1c0,0,18,0,29,-1c0,0,12,-1,18,-4c0,0,7,-3,10,-7c0,0,3,-5,5,-11L768,136l1,-7l1,7L930,689c0,0,1,7,5,11c0,0,3,5,10,8c0,0,7,3,20,4c0,0,12,1,31,1c0,0,18,0,29,-1c0,0,11,-1,17,-4c0,0,6,-3,9,-6c0,0,3,-4,3,-11c0,0,0,-5,-2,-13c0,0,-1,-7,-5,-18L849,22c0,0,-2,-8,-7,-13c0,0,-5,-6,-13,-9c0,0,-9,-2,-24,-3c0,0,-15,-1,-37,-1c0,0,-23,0,-39,2c0,0,-15,1,-25,3c0,0,-9,3,-14,8c0,0,-4,6,-6,13L543,510l-2,6l-2,-6L409,22c0,0,-3,-8,-7,-13c0,0,-5,-6,-15,-9c0,0,-10,-2,-25,-3c0,0,-15,-1,-38,-1Z" 
id="f0_ci"
transform="scale(0.001,-0.001)" />

<path d="M321,82c0,0,48,0,90,25c0,0,41,24,87,75V325H392c0,0,-50,0,-88,-9c0,0,-37,-9,-62,-25c0,0,-24,-17,-36,-41c0,0,-11,-23,-11,-54c0,0,0,-52,33,-83c0,0,33,-31,93,-31ZM301,-13c0,0,-53,0,-96,13c0,0,-43,14,-73,40c0,0,-30,26,-47,64c0,0,-17,38,-17,87c0,0,0,56,24,98c0,0,23,42,66,69c0,0,43,28,106,42c0,0,63,14,141,14h93v52c0,0,0,39,-9,69c0,0,-8,30,-26,50c0,0,-18,20,-47,30c0,0,-30,10,-72,10c0,0,-46,0,-82,-11c0,0,-36,-11,-63,-24c0,0,-27,-13,-46,-24c0,0,-18,-11,-27,-11c0,0,-6,0,-10,3c0,0,-5,3,-8,9c0,0,-3,6,-5,16c0,0,-1,9,-1,20c0,0,0,19,2,30c0,0,3,11,13,20c0,0,10,10,35,23c0,0,24,13,56,24c0,0,32,10,70,17c0,0,38,8,77,8c0,0,73,0,123,-17c0,0,51,-16,82,-48c0,0,32,-32,46,-79c0,0,14,-47,14,-110V18c0,0,0,-9,-6,-14c0,0,-6,-4,-16,-6c0,0,-11,-2,-31,-2c0,0,-19,0,-31,2c0,0,-12,2,-17,6c0,0,-5,5,-5,13V85c0,0,-44,-47,-98,-73c0,0,-54,-25,-115,-25Z" 
id="f0_77"
transform="scale(0.001,-0.001)" />

<path d="M252,-271c0,0,-19,0,-31,2c0,0,-12,2,-18,6c0,0,-7,5,-8,12c0,0,0,8,4,18L292,0c0,0,-7,3,-13,10c0,0,-6,6,-8,14L31,665c0,0,-6,16,-6,25c0,0,0,9,6,14c0,0,6,5,20,7c0,0,13,2,36,2c0,0,22,0,35,-1c0,0,12,-1,20,-4c0,0,7,-3,11,-9c0,0,3,-6,7,-15L351,145h3L539,687c0,0,4,14,10,18c0,0,7,4,19,6c0,0,13,2,37,2c0,0,21,0,34,-2c0,0,14,-2,20,-7c0,0,6,-5,6,-14c0,0,0,-9,-4,-23L420,0L330,-246c0,0,-4,-12,-22,-18c0,0,-19,-7,-56,-7Z" 
id="f0_co"
transform="scale(0.001,-0.001)" />

<path d="M564,420c0,0,2,98,-43,153c0,0,-46,56,-134,56c0,0,-46,0,-80,-18c0,0,-35,-17,-58,-45c0,0,-23,-29,-36,-67c0,0,-12,-37,-14,-79ZM405,-13c0,0,-83,0,-145,22c0,0,-62,24,-105,69c0,0,-42,46,-64,114c0,0,-22,69,-22,160c0,0,0,87,23,156c0,0,22,69,64,117c0,0,43,48,102,74c0,0,60,26,134,26c0,0,79,0,135,-26c0,0,55,-25,91,-68c0,0,36,-43,53,-101c0,0,16,-58,16,-123V384c0,0,0,-29,-14,-41c0,0,-15,-13,-33,-13H199c0,0,0,-56,11,-100c0,0,12,-45,38,-77c0,0,26,-33,68,-50c0,0,41,-17,102,-17c0,0,48,0,85,8c0,0,37,8,65,17c0,0,27,10,44,18c0,0,18,8,27,8c0,0,5,0,9,-3c0,0,4,-2,7,-8c0,0,2,-5,3,-14c0,0,1,-9,1,-23c0,0,0,-9,-1,-16c0,0,0,-8,-2,-13c0,0,-1,-6,-3,-10c0,0,-3,-5,-7,-9c0,0,-4,-4,-24,-13c0,0,-20,-10,-53,-18c0,0,-32,-9,-74,-16c0,0,-42,-7,-90,-7Z" 
id="f0_7z"
transform="scale(0.001,-0.001)" />

<path d="M176,-4c0,0,-18,0,-30,2c0,0,-12,1,-19,3c0,0,-7,3,-10,7c0,0,-3,4,-3,10V690c0,0,0,6,3,10c0,0,2,4,9,7c0,0,6,4,17,5c0,0,10,1,27,1c0,0,17,0,28,-1c0,0,10,-1,16,-5c0,0,6,-3,9,-7c0,0,3,-4,3,-10V592c0,0,27,41,51,66c0,0,25,26,46,41c0,0,22,14,43,20c0,0,21,6,43,6c0,0,10,0,22,-2c0,0,12,-1,26,-4c0,0,13,-3,24,-6c0,0,11,-4,15,-8c0,0,5,-4,6,-7c0,0,2,-3,3,-9c0,0,1,-5,1,-15c0,0,0,-10,0,-27c0,0,0,-16,0,-28c0,0,-1,-11,-3,-17c0,0,-2,-6,-6,-10c0,0,-3,-3,-9,-3c0,0,-6,0,-15,3c0,0,-8,4,-19,7c0,0,-11,3,-24,6c0,0,-14,3,-29,3c0,0,-19,0,-37,-7c0,0,-18,-8,-37,-25c0,0,-20,-18,-42,-46c0,0,-21,-29,-48,-70V18c0,0,0,-6,-3,-10c0,0,-2,-4,-9,-7c0,0,-7,-2,-19,-3c0,0,-12,-2,-30,-2Z" 
id="f0_b1"
transform="scale(0.001,-0.001)" />

<path d="M469,327V857h-2L153,327ZM530,-4c0,0,-18,0,-30,2c0,0,-12,1,-19,3c0,0,-7,3,-9,7c0,0,-3,4,-3,10V221H71c0,0,-9,0,-15,2c0,0,-6,2,-11,8c0,0,-5,6,-7,17c0,0,-2,12,-2,30c0,0,0,14,1,25c0,0,1,11,3,20c0,0,2,10,6,18c0,0,4,9,9,18L403,947c0,0,3,6,10,10c0,0,7,5,19,8c0,0,11,3,27,4c0,0,17,1,39,1c0,0,25,0,43,-2c0,0,18,-2,29,-5c0,0,12,-3,18,-8c0,0,6,-4,6,-11V327H702c0,0,13,0,21,-13c0,0,8,-13,8,-40c0,0,0,-25,-8,-39c0,0,-7,-14,-21,-14H594V18c0,0,0,-6,-3,-10c0,0,-3,-4,-11,-7c0,0,-7,-2,-19,-3c0,0,-12,-2,-31,-2Z" 
id="f0_s1"
transform="scale(0.001,-0.001)" />

<path d="M324,-13c0,0,-44,0,-85,7c0,0,-40,6,-71,14c0,0,-32,10,-52,18c0,0,-20,9,-25,15c0,0,-6,5,-8,9c0,0,-3,5,-4,11c0,0,-2,6,-3,16c0,0,-1,10,-1,23c0,0,0,13,1,23c0,0,1,10,4,16c0,0,3,7,8,10c0,0,4,3,9,3c0,0,7,0,23,-10c0,0,16,-9,42,-20c0,0,27,-11,66,-20c0,0,39,-10,93,-10c0,0,49,0,91,12c0,0,42,12,72,37c0,0,30,26,47,64c0,0,18,38,18,94c0,0,0,46,-15,81c0,0,-14,36,-45,59c0,0,-30,24,-76,35c0,0,-46,12,-111,12c0,0,-45,0,-78,-5c0,0,-33,-4,-61,-4c0,0,-21,0,-30,10c0,0,-9,9,-9,37V917c0,0,0,24,12,36c0,0,11,12,33,12H596c0,0,6,0,12,-3c0,0,6,-4,9,-10c0,0,4,-7,6,-17c0,0,2,-11,2,-25c0,0,0,-27,-8,-42c0,0,-7,-14,-21,-14H236V583c0,0,26,4,53,5c0,0,28,1,63,1c0,0,83,0,145,-20c0,0,62,-20,103,-56c0,0,42,-36,63,-88c0,0,21,-51,21,-114c0,0,0,-78,-26,-138c0,0,-26,-61,-74,-102C584,71,537,30,471,8c0,0,-66,-21,-147,-21Z" 
id="f0_s2"
transform="scale(0.001,-0.001)" />

<path d="M189,-4c0,0,-18,0,-30,2c0,0,-12,2,-19,3c0,0,-7,3,-9,8c0,0,-3,4,-3,10V907c0,0,0,31,16,45c0,0,17,13,37,13h78c0,0,24,0,41,-4c0,0,18,-5,32,-15c0,0,13,-9,22,-24c0,0,9,-15,16,-35L649,188h4L944,884c0,0,8,23,18,39c0,0,9,15,21,25c0,0,11,9,26,13c0,0,14,4,32,4h82c0,0,11,0,21,-3c0,0,10,-4,17,-11c0,0,7,-7,12,-18c0,0,4,-10,4,-26V19c0,0,0,-6,-3,-10c0,0,-3,-5,-10,-8c0,0,-8,-1,-19,-3c0,0,-12,-2,-30,-2c0,0,-18,0,-30,2c0,0,-12,2,-19,3c0,0,-7,3,-10,8c0,0,-3,4,-3,10V860h-2L707,15c0,0,-2,-5,-6,-9c0,0,-4,-3,-12,-6c0,0,-8,-2,-18,-3c0,0,-11,-1,-26,-1c0,0,-16,0,-27,2c0,0,-11,1,-19,3c0,0,-7,2,-11,6c0,0,-4,4,-6,8L253,860V19c0,0,0,-6,-3,-10c0,0,-3,-5,-11,-8c0,0,-7,-1,-19,-3c0,0,-12,-2,-31,-2Z" 
id="f0_1x"
transform="scale(0.001,-0.001)" />

<path d="M176,-4c0,0,-18,0,-30,2c0,0,-12,1,-19,3c0,0,-7,3,-10,7c0,0,-3,4,-3,10V690c0,0,0,5,3,9c0,0,3,5,10,8c0,0,7,3,19,4c0,0,12,2,30,2c0,0,18,0,30,-2c0,0,12,-1,19,-4c0,0,7,-3,9,-8c0,0,3,-4,3,-9V18c0,0,0,-6,-3,-10c0,0,-2,-4,-9,-7c0,0,-7,-2,-19,-3c0,0,-12,-2,-30,-2Zm-1,846c0,0,-43,0,-59,15c0,0,-16,15,-16,58c0,0,0,43,16,59c0,0,17,16,61,16c0,0,43,0,59,-16c0,0,16,-15,16,-58c0,0,0,-43,-16,-58c0,0,-17,-16,-61,-16Z" 
id="f0_9q"
transform="scale(0.001,-0.001)" />

<path d="M366,92c0,0,25,0,48,7c0,0,22,6,46,22c0,0,24,16,50,41c0,0,26,24,56,61V492c0,0,-51,62,-97,94c0,0,-47,33,-98,33c0,0,-47,0,-79,-22c0,0,-33,-23,-54,-59c0,0,-20,-37,-30,-83c0,0,-9,-47,-9,-94c0,0,0,-51,8,-100c0,0,8,-48,27,-86c0,0,19,-38,52,-60c0,0,32,-23,80,-23ZM345,-13c0,0,-74,0,-127,28c0,0,-52,29,-84,78c0,0,-33,49,-48,115c0,0,-15,66,-15,139c0,0,0,86,19,156c0,0,19,70,55,119c0,0,37,50,91,76c0,0,54,27,125,27c0,0,59,0,108,-26c0,0,49,-26,97,-76v390c0,0,0,5,2,10c0,0,3,4,10,7c0,0,8,3,19,5c0,0,12,1,30,1c0,0,18,0,30,-1c0,0,12,-2,19,-5c0,0,7,-3,10,-7c0,0,3,-5,3,-10V18c0,0,0,-6,-2,-10c0,0,-3,-5,-9,-7c0,0,-7,-2,-17,-3c0,0,-10,-2,-25,-2c0,0,-16,0,-26,2c0,0,-11,1,-18,3c0,0,-6,2,-9,7c0,0,-3,4,-3,10v90c0,0,-53,-58,-110,-90c0,0,-58,-31,-125,-31Z" 
id="f0_7v"
transform="scale(0.001,-0.001)" />

<path d="M176,-4c0,0,-18,0,-30,2c0,0,-12,1,-19,3c0,0,-7,3,-10,7c0,0,-3,4,-3,10v997c0,0,0,6,3,11c0,0,3,4,10,7c0,0,7,3,19,5c0,0,12,1,30,1c0,0,18,0,30,-1c0,0,12,-2,19,-5c0,0,7,-3,9,-7c0,0,3,-5,3,-11V18c0,0,0,-6,-3,-10c0,0,-2,-4,-9,-7c0,0,-7,-2,-19,-3c0,0,-12,-2,-30,-2Z" 
id="f0_a8"
transform="scale(0.001,-0.001)" />

<path d="M161,0c0,0,-5,0,-10,3c0,0,-4,2,-8,8c0,0,-5,6,-7,16c0,0,-2,9,-2,24c0,0,0,13,2,23c0,0,2,9,6,16c0,0,3,6,8,9c0,0,5,4,11,4H362V837L176,726c0,0,-15,-8,-23,-9c0,0,-1,-1,-3,-1c-3,0,-8,1,-11,4c0,0,-5,5,-7,16c0,0,-2,11,-2,28c0,0,0,13,1,22c0,0,1,9,4,15c0,0,2,6,6,10c0,0,4,5,11,9L374,963c0,0,3,2,7,4c0,0,5,1,11,3c0,0,7,1,16,2c0,0,9,0,22,0c0,0,18,0,30,-2c0,0,12,-1,19,-4c0,0,7,-2,9,-6c0,0,2,-5,2,-9V103H665c0,0,6,0,11,-4c0,0,5,-3,8,-9c0,0,4,-7,6,-16c0,0,2,-10,2,-23c0,0,0,-15,-3,-24c0,0,-2,-10,-6,-16c0,0,-3,-6,-8,-8c0,0,-5,-3,-10,-3Z" 
id="f0_ry"
transform="scale(0.001,-0.001)" />

<path d="M192,-4c0,0,-18,0,-30,2c0,0,-13,2,-20,3c0,0,-8,3,-11,8c0,0,-3,4,-3,10V946c0,0,0,6,3,11c0,0,3,4,11,7c0,0,7,2,20,4c0,0,12,2,30,2c0,0,19,0,31,-2c0,0,13,-2,20,-4c0,0,7,-3,10,-7c0,0,3,-5,3,-11V559H696V946c0,0,0,6,3,10c0,0,3,5,10,8c0,0,8,2,20,4c0,0,11,2,31,2c0,0,18,0,30,-2c0,0,12,-2,20,-4c0,0,7,-3,10,-7c0,0,3,-5,3,-11V19c0,0,0,-6,-3,-10c0,0,-3,-5,-10,-8c0,0,-8,-1,-20,-3c0,0,-12,-2,-30,-2c0,0,-20,0,-31,2c0,0,-12,2,-20,3c0,0,-7,3,-10,8c0,0,-3,4,-3,10V448H256V19c0,0,0,-6,-3,-10c0,0,-3,-5,-10,-8c0,0,-7,-1,-20,-3c0,0,-12,-2,-31,-2Z" 
id="f0_19"
transform="scale(0.001,-0.001)" />

<path d="M346,-177c0,0,56,0,94,11c0,0,37,11,60,28c0,0,24,18,34,41c0,0,10,23,10,49c0,0,0,43,-36,65c0,0,-35,23,-95,25L239,48c0,0,-24,-19,-39,-35c0,0,-15,-16,-24,-31c0,0,-9,-16,-12,-30c0,0,-4,-15,-4,-31c0,0,0,-48,49,-73c0,0,50,-25,137,-25Zm-6,512c0,0,36,0,63,12c0,0,27,12,44,32c0,0,18,21,26,48c0,0,9,27,9,56c0,0,0,69,-38,107c0,0,-37,39,-107,39c0,0,-35,0,-62,-12c0,0,-26,-12,-44,-33c0,0,-17,-21,-26,-48c0,0,-8,-28,-8,-58c0,0,0,-66,37,-104c0,0,38,-39,106,-39Zm0,-606c0,0,-81,0,-138,14c0,0,-57,14,-94,38c0,0,-36,24,-52,57c0,0,-17,33,-17,72c0,0,0,24,6,47c0,0,6,24,18,43c0,0,13,21,31,40c0,0,18,19,42,38c0,0,-36,19,-54,47c0,0,-17,28,-17,61c0,0,0,45,18,81c0,0,19,36,46,64c0,0,-23,28,-36,62c0,0,-14,35,-14,84c0,0,0,58,20,104c0,0,19,45,53,77c0,0,35,31,83,48c0,0,48,17,105,17c0,0,30,0,57,-4c0,0,26,-3,49,-9H649c0,0,13,0,19,-12c0,0,7,-13,7,-38c0,0,0,-26,-7,-37c0,0,-7,-12,-19,-12H553c0,0,26,-27,37,-60c0,0,10,-32,10,-68c0,0,0,-58,-18,-103c0,0,-19,-45,-54,-76c0,0,-34,-31,-82,-47c0,0,-48,-16,-106,-16c0,0,-41,0,-78,10c0,0,-37,11,-57,28c0,0,-14,-14,-22,-31c0,0,-9,-17,-9,-39c0,0,0,-27,24,-44c0,0,25,-17,65,-18l175,-8c0,0,50,-1,92,-14c0,0,41,-12,72,-35c0,0,31,-22,48,-55c0,0,17,-34,17,-76c0,0,0,-47,-20,-88c0,0,-19,-42,-59,-74c0,0,-40,-31,-102,-50c0,0,-61,-18,-146,-18Z" 
id="f0_9d"
transform="scale(0.001,-0.001)" />

<path d="M176,-4c0,0,-18,0,-30,2c0,0,-12,1,-19,3c0,0,-7,3,-10,7c0,0,-3,4,-3,10v997c0,0,0,6,3,11c0,0,3,4,10,7c0,0,7,3,19,5c0,0,12,1,30,1c0,0,18,0,30,-1c0,0,12,-2,19,-5c0,0,7,-3,9,-7c0,0,3,-5,3,-10V614c0,0,53,56,107,83c0,0,54,28,108,28c0,0,67,0,113,-23c0,0,46,-23,74,-61c0,0,29,-38,41,-89c0,0,12,-52,12,-124V18c0,0,0,-6,-3,-10c0,0,-3,-4,-9,-7c0,0,-7,-2,-19,-3c0,0,-12,-2,-30,-2c0,0,-19,0,-30,2c0,0,-12,1,-19,3c0,0,-7,3,-10,7c0,0,-3,4,-3,10V412c0,0,0,58,-9,93c0,0,-9,35,-26,61c0,0,-17,25,-44,38c0,0,-27,14,-63,14c0,0,-46,0,-93,-33c0,0,-46,-33,-97,-96V18c0,0,0,-6,-3,-10c0,0,-2,-4,-9,-7c0,0,-7,-2,-19,-3c0,0,-12,-2,-30,-2Z" 
id="f0_9n"
transform="scale(0.001,-0.001)" />

<path d="M604,356L436,837h-1L269,356ZM87,-4c0,0,-22,0,-36,2C51,-2,37,0,32,4c0,0,-6,5,-6,15c0,0,1,10,7,27L357,943c0,0,3,8,7,13c0,0,5,6,15,9c0,0,9,3,23,4c0,0,15,1,37,1c0,0,24,0,40,-1c0,0,16,-1,25,-4c0,0,10,-3,15,-9c0,0,5,-5,8,-14L851,45c0,0,6,-16,7,-26c0,0,0,-10,-6,-16c0,0,-6,-4,-20,-5c0,0,-14,-2,-37,-2c0,0,-23,0,-37,1c0,0,-14,1,-21,3c0,0,-7,3,-10,7c0,0,-3,5,-6,11L638,253H236L157,21c0,0,-2,-6,-6,-11c0,0,-3,-5,-10,-9c0,0,-7,-2,-21,-3c0,0,-13,-2,-33,-2Z" 
id="f0_5"
transform="scale(0.001,-0.001)" />

<path d="M339,-13c0,0,-52,0,-90,13c0,0,-37,14,-61,42c0,0,-24,28,-34,71c0,0,-11,43,-11,101V607H49c0,0,-11,0,-18,12c0,0,-7,12,-7,39c0,0,0,14,2,24c0,0,2,10,5,16c0,0,3,7,8,9c0,0,5,3,11,3h93V870c0,0,0,5,2,9c0,0,3,5,10,8c0,0,7,4,19,5c0,0,12,2,30,2c0,0,19,0,31,-2c0,0,11,-1,18,-5c0,0,7,-3,10,-8c0,0,3,-4,3,-9V710H438c0,0,6,0,10,-3c0,0,5,-2,8,-9c0,0,4,-6,5,-16c0,0,1,-10,1,-24c0,0,0,-27,-6,-39c0,0,-7,-12,-18,-12H266V232c0,0,0,-69,20,-105c0,0,21,-35,74,-35c0,0,17,0,30,3c0,0,14,4,24,7c0,0,10,4,18,7c0,0,7,4,13,4c0,0,4,0,7,-2c0,0,4,-2,6,-7c0,0,2,-5,3,-14c0,0,1,-9,1,-23c0,0,0,-22,-2,-34c0,0,-3,-13,-9,-19c0,0,-6,-6,-18,-11c0,0,-12,-4,-28,-8c0,0,-15,-3,-32,-5c0,0,-17,-3,-34,-3Z" 
id="f0_bf"
transform="scale(0.001,-0.001)" />

<path d="M272,-13c0,0,-35,0,-68,6c0,0,-32,6,-58,13c0,0,-26,9,-44,18c0,0,-17,10,-26,17c0,0,-8,8,-12,21c0,0,-3,14,-3,37c0,0,0,14,1,24c0,0,2,9,4,15c0,0,2,6,6,9c0,0,4,3,10,3c0,0,8,0,24,-11c0,0,16,-10,39,-22c0,0,24,-12,56,-22c0,0,32,-10,74,-10c0,0,31,0,56,7c0,0,26,6,44,19c0,0,19,14,29,34c0,0,10,20,10,47c0,0,0,29,-14,48c0,0,-15,19,-39,34c0,0,-24,15,-53,27c0,0,-30,11,-62,24c0,0,-32,13,-62,29c0,0,-30,16,-54,39c0,0,-24,23,-38,55c0,0,-15,32,-15,77c0,0,0,40,16,76c0,0,15,36,45,63c0,0,31,28,77,44c0,0,46,17,107,17c0,0,27,0,54,-5c0,0,26,-5,48,-11c0,0,22,-7,37,-15c0,0,15,-8,23,-14c0,0,8,-6,11,-11c0,0,2,-4,3,-10c0,0,1,-5,2,-14c0,0,2,-8,2,-20c0,0,0,-12,-2,-22c0,0,-1,-9,-3,-15c0,0,-3,-6,-7,-8c0,0,-3,-3,-8,-3c0,0,-7,0,-19,8c0,0,-13,8,-33,18c0,0,-20,9,-47,17c0,0,-28,9,-63,9c0,0,-31,0,-55,-7c0,0,-24,-7,-39,-20c0,0,-15,-13,-23,-31c0,0,-8,-18,-8,-39c0,0,0,-29,15,-49c0,0,15,-20,39,-35c0,0,24,-15,54,-27c0,0,31,-11,62,-24c0,0,32,-13,63,-29c0,0,31,-15,55,-38c0,0,24,-22,38,-53c0,0,15,-32,15,-75c0,0,0,-51,-19,-92c0,0,-19,-40,-54,-68C463,42,428,15,379,1c0,0,-48,-14,-107,-14Z" 
id="f0_b5"
transform="scale(0.001,-0.001)" />

<path d="M429,92c0,0,47,0,80,22c0,0,33,23,54,60c0,0,20,38,30,84c0,0,10,46,10,93c0,0,0,52,-8,100c0,0,-8,48,-27,86c0,0,-19,37,-51,60c0,0,-32,22,-80,22c0,0,-24,0,-47,-7c0,0,-23,-7,-47,-23c0,0,-24,-15,-50,-40c0,0,-26,-25,-56,-62V220c0,0,51,-62,97,-95c0,0,45,-33,95,-33ZM176,-271c0,0,-18,0,-30,2c0,0,-12,1,-19,4c0,0,-7,3,-10,8c0,0,-3,4,-3,10V690c0,0,0,6,3,10c0,0,2,5,9,8c0,0,6,3,17,4c0,0,10,1,25,1c0,0,16,0,26,-1c0,0,10,-1,17,-4c0,0,6,-3,9,-7c0,0,3,-4,3,-11V601c0,0,30,31,59,54c0,0,28,23,57,39c0,0,28,15,59,23c0,0,30,8,63,8c0,0,74,0,125,-29c0,0,52,-28,84,-77c0,0,32,-50,47,-115c0,0,15,-65,15,-139c0,0,0,-88,-19,-158c0,0,-19,-70,-56,-119c0,0,-37,-49,-91,-75c0,0,-55,-26,-125,-26c0,0,-30,0,-55,6c0,0,-25,6,-50,18c0,0,-24,13,-48,32c0,0,-24,19,-51,46V-247c0,0,0,-6,-3,-10c0,0,-2,-5,-9,-8c0,0,-7,-3,-19,-4c0,0,-12,-2,-30,-2Z" 
id="f0_ay"
transform="scale(0.001,-0.001)" />

<path d="M79,326c0,0,-14,0,-20,11c0,0,-7,12,-7,40c0,0,0,29,7,40c0,0,6,11,20,11H390c0,0,6,0,11,-2c0,0,5,-2,8,-9c0,0,4,-6,6,-16c0,0,2,-9,2,-24c0,0,0,-29,-7,-40c0,0,-7,-11,-20,-11Z" 
id="f0_oj"
transform="scale(0.001,-0.001)" />

<path d="M417,-11c0,0,-76,0,-137,22c0,0,-61,23,-104,67c0,0,-43,44,-66,110c0,0,-24,66,-24,152c0,0,0,71,15,146c0,0,15,75,44,146c0,0,29,70,73,133c0,0,43,63,101,110c0,0,58,47,130,75c0,0,72,27,159,27c0,0,54,0,102,-12c0,0,47,-13,81,-31c0,0,34,-19,49,-33c0,0,15,-15,15,-34c0,0,0,-16,-6,-39c0,0,-5,-23,-14,-36c0,0,-8,-14,-18,-14c0,0,-11,0,-25,14c0,0,-14,14,-38,30c0,0,-24,16,-61,30c0,0,-38,13,-95,13c0,0,-62,0,-114,-23c0,0,-51,-24,-92,-64c0,0,-42,-39,-73,-92c0,0,-31,-52,-52,-109c0,0,-20,-57,-31,-115c0,0,-10,-58,-10,-110c0,0,0,-60,15,-107c0,0,15,-46,43,-78c0,0,28,-32,69,-49c0,0,41,-16,93,-16c0,0,58,0,100,13c0,0,43,13,73,29c0,0,30,16,50,29c0,0,20,13,33,13c0,0,8,0,12,-6c0,0,4,-6,4,-18c0,0,0,-4,-1,-11c0,0,-2,-7,-3,-15c0,0,-2,-8,-3,-18c0,0,-2,-10,-5,-18c0,0,-3,-9,-7,-16c0,0,-3,-7,-11,-15c0,0,-8,-7,-33,-21c0,0,-25,-15,-61,-28C594,20,558,7,513,-1c0,0,-45,-10,-96,-10Z" 
id="f1_j"
transform="scale(0.001,-0.001)" />

<path d="M265,-13c0,0,-51,0,-85,13c0,0,-35,14,-56,38c0,0,-21,24,-31,57c0,0,-9,33,-9,73c0,0,0,24,3,50c0,0,4,26,9,52l83,420c0,0,1,6,5,10c0,0,4,5,12,8c0,0,7,3,19,4c0,0,13,1,30,1c0,0,18,0,30,-1c0,0,12,-1,18,-4c0,0,7,-3,9,-8c0,0,1,-4,1,-10L220,274c0,0,-4,-19,-6,-40c0,0,-3,-21,-3,-42c0,0,0,-22,4,-40c0,0,5,-19,15,-32c0,0,10,-13,26,-21c0,0,16,-7,39,-7c0,0,39,0,81,23c0,0,41,22,77,62c0,0,36,40,64,96c0,0,28,55,41,120l59,297c0,0,1,6,5,10c0,0,4,5,12,8c0,0,8,3,20,4c0,0,12,1,30,1c0,0,18,0,29,-1c0,0,12,-1,18,-4c0,0,7,-3,9,-8c0,0,1,-4,1,-10L606,18c0,0,-1,-6,-5,-10c0,0,-3,-5,-10,-7c0,0,-7,-2,-18,-3c0,0,-11,-2,-26,-2c0,0,-15,0,-25,2c0,0,-10,1,-16,3c0,0,-5,2,-7,7c0,0,-2,4,-1,10l25,126c0,0,-12,-25,-38,-53c0,0,-25,-28,-60,-51C425,40,390,16,349,1c0,0,-42,-14,-84,-14Z" 
id="f1_c6"
transform="scale(0.001,-0.001)" />

<path d="M105,-4c0,0,-18,0,-30,2c0,0,-11,1,-18,3c0,0,-6,3,-8,7c0,0,-2,4,0,10L184,690c0,0,1,6,4,10c0,0,3,5,10,8c0,0,7,3,18,4c0,0,11,1,26,1c0,0,15,0,26,-1c0,0,10,-1,15,-4c0,0,6,-3,7,-8c0,0,2,-4,1,-10L266,562c0,0,11,26,37,54c0,0,25,29,60,53c0,0,34,24,75,40c0,0,40,16,83,16c0,0,45,0,77,-13c0,0,32,-12,52,-34c0,0,21,-21,30,-51c0,0,10,-30,12,-65c0,0,15,26,41,55c0,0,27,29,61,52c0,0,34,24,74,40c0,0,41,16,83,16c0,0,49,0,83,-15c0,0,34,-14,54,-39c0,0,21,-24,30,-57c0,0,9,-33,9,-72c0,0,0,-27,-3,-52c0,0,-3,-26,-8,-52L1032,18c0,0,0,-6,-4,-10c0,0,-4,-4,-12,-7c0,0,-8,-2,-20,-3c0,0,-13,-2,-31,-2c0,0,-17,0,-29,2c0,0,-11,1,-17,3c0,0,-7,3,-9,7c0,0,-2,4,-1,10l82,415c0,0,4,22,7,41c0,0,2,20,2,40c0,0,0,48,-18,76c0,0,-18,29,-63,29c0,0,-38,0,-78,-23c0,0,-40,-23,-75,-63c0,0,-36,-40,-64,-95c0,0,-27,-55,-40,-120L602,18c0,0,-2,-6,-5,-10c0,0,-4,-4,-12,-7c0,0,-8,-2,-20,-3c0,0,-12,-2,-30,-2c0,0,-18,0,-30,2c0,0,-11,1,-17,3c0,0,-6,3,-8,7c0,0,-3,4,-2,10l83,415c0,0,5,23,7,44c0,0,2,22,2,41c0,0,0,46,-18,73c0,0,-19,28,-64,28c0,0,-38,0,-77,-23c0,0,-40,-23,-76,-63c0,0,-36,-40,-63,-95c0,0,-28,-55,-41,-120L172,18c0,0,-2,-6,-5,-10c0,0,-4,-4,-12,-7c0,0,-7,-2,-20,-3c0,0,-12,-2,-30,-2Z" 
id="f1_ae"
transform="scale(0.001,-0.001)" />

<path d="M105,-4c0,0,-18,0,-30,2c0,0,-11,1,-18,3c0,0,-6,3,-8,7c0,0,-2,4,0,10l198,997c0,0,2,6,5,11c0,0,4,4,11,7c0,0,8,3,20,5c0,0,13,1,31,1c0,0,18,0,30,-1c0,0,11,-2,18,-5c0,0,6,-3,8,-7c0,0,1,-5,1,-11L172,18c0,0,-2,-6,-5,-10c0,0,-4,-4,-12,-7c0,0,-7,-2,-20,-3c0,0,-12,-2,-30,-2Z" 
id="f1_a8"
transform="scale(0.001,-0.001)" />

<path d="M210,-13c0,0,-35,0,-66,6c0,0,-30,5,-55,12C89,5,64,14,46,24C46,24,28,34,18,43c0,0,-6,6,-9,12C9,55,7,62,7,71c0,0,0,6,1,14c0,0,0,8,3,17c0,0,2,9,4,17c0,0,3,8,7,15c0,0,4,6,7,11c0,0,4,4,9,4c0,0,9,0,22,-10c0,0,13,-11,33,-22c0,0,21,-12,51,-22c0,0,31,-10,76,-10c0,0,41,0,71,10c0,0,29,10,48,27c0,0,20,17,29,39c0,0,9,22,9,47c0,0,0,31,-19,51c0,0,-19,20,-49,36c0,0,-29,16,-64,32c0,0,-34,15,-64,37c0,0,-29,21,-49,52c0,0,-20,31,-20,79c0,0,0,49,20,91c0,0,19,42,55,73c0,0,35,31,85,48c0,0,50,18,110,18c0,0,28,0,55,-5c0,0,26,-4,49,-11c0,0,22,-7,39,-15c0,0,16,-8,24,-16c0,0,8,-8,8,-24c0,0,0,-7,-2,-19c0,0,-2,-13,-6,-25c0,0,-4,-12,-10,-20c0,0,-5,-8,-12,-8c0,0,-9,0,-21,7c0,0,-13,7,-31,16c0,0,-18,9,-43,16c0,0,-25,8,-59,8c0,0,-33,0,-58,-10c0,0,-26,-9,-43,-25c0,0,-17,-16,-26,-36c0,0,-9,-21,-9,-43c0,0,0,-30,19,-50c0,0,20,-20,50,-35c0,0,30,-16,65,-31c0,0,35,-16,64,-38c0,0,30,-22,50,-53c0,0,20,-31,20,-78c0,0,0,-52,-21,-97c0,0,-21,-45,-59,-78C425,55,387,23,332,5c0,0,-54,-18,-122,-18Z" 
id="f1_b5"
transform="scale(0.001,-0.001)" />

<path d="M296,-13c0,0,-121,0,-180,60c0,0,-59,62,-59,182c0,0,0,46,8,100c0,0,7,54,26,109c0,0,19,54,48,106c0,0,29,51,71,91c0,0,43,40,99,64c0,0,56,24,128,24c0,0,30,0,58,-5c0,0,27,-5,51,-13c0,0,25,-8,44,-20c0,0,20,-13,31,-22c0,0,11,-10,14,-17c0,0,3,-6,3,-14c0,0,0,-14,-3,-28c0,0,-3,-14,-8,-27c0,0,-5,-12,-12,-20c0,0,-8,-8,-17,-8c0,0,-10,0,-21,10c0,0,-12,11,-30,24c0,0,-18,14,-46,25c0,0,-28,11,-71,11c0,0,-48,0,-85,-20c0,0,-37,-20,-64,-51c0,0,-27,-32,-45,-72c0,0,-18,-40,-29,-81c0,0,-12,-41,-16,-80c0,0,-5,-38,-5,-66c0,0,0,-77,33,-117c0,0,34,-39,100,-39c0,0,49,0,84,12c0,0,34,12,58,27c0,0,25,15,40,27c0,0,16,12,28,12c0,0,6,0,9,-5c0,0,4,-6,4,-17c0,0,0,-8,-2,-21c0,0,-1,-12,-5,-25c0,0,-3,-13,-8,-24c0,0,-5,-12,-14,-21c0,0,-9,-9,-31,-23c0,0,-22,-13,-52,-24C430,11,401,0,366,-6c0,0,-34,-7,-70,-7Z" 
id="f1_7l"
transform="scale(0.001,-0.001)" />

<path d="M340,89c0,0,46,0,82,16c0,0,36,16,65,44c0,0,29,27,50,64c0,0,21,36,35,78c0,0,14,42,21,85c0,0,6,44,6,85c0,0,0,38,-7,68c0,0,-8,29,-27,50c0,0,-18,20,-47,32c0,0,-30,11,-72,11c0,0,-44,0,-81,-16c0,0,-36,-16,-65,-43c0,0,-29,-28,-50,-64c0,0,-21,-37,-35,-78c0,0,-14,-42,-21,-85c0,0,-6,-44,-6,-86c0,0,0,-37,8,-67c0,0,8,-30,26,-51c0,0,19,-21,48,-32c0,0,29,-11,70,-11ZM329,-13c0,0,-71,0,-122,16c0,0,-52,18,-84,50c0,0,-33,33,-49,81c0,0,-15,48,-15,108c0,0,0,56,10,113c0,0,10,58,31,111c0,0,22,53,54,100c0,0,33,47,77,82c0,0,45,35,101,56c0,0,56,21,125,21c0,0,72,0,123,-18c0,0,52,-18,85,-50c0,0,33,-33,49,-81c0,0,15,-48,15,-108c0,0,0,-55,-10,-112c0,0,-10,-58,-32,-111c0,0,-21,-53,-54,-100c0,0,-33,-47,-77,-83C556,62,511,27,455,7c0,0,-56,-20,-126,-20Z" 
id="f1_am"
transform="scale(0.001,-0.001)" />

<path d="M293,92c0,0,41,0,83,22c0,0,41,23,77,62c0,0,36,40,63,94c0,0,28,55,41,119l25,124c0,0,-35,52,-75,79c0,0,-41,27,-91,27c0,0,-40,0,-71,-18c0,0,-32,-19,-58,-49c0,0,-25,-31,-43,-70c0,0,-18,-40,-30,-82c0,0,-12,-42,-18,-83c0,0,-6,-41,-6,-76c0,0,0,-72,24,-111c0,0,25,-38,79,-38ZM262,-13c0,0,-44,0,-76,12c0,0,-33,10,-55,30c0,0,-22,19,-36,45c0,0,-14,26,-21,53c0,0,-8,27,-11,55c0,0,-2,27,-2,51c0,0,0,43,8,97c0,0,8,53,26,108c0,0,18,54,46,106c0,0,28,51,67,91c0,0,40,40,92,65c0,0,52,25,117,25c0,0,32,0,60,-8c0,0,29,-7,52,-19c0,0,23,-12,42,-29c0,0,20,-18,35,-36l76,380c0,0,1,5,5,10c0,0,4,4,11,7c0,0,8,3,20,5c0,0,12,1,30,1c0,0,18,0,30,-1c0,0,11,-2,18,-5c0,0,7,-3,8,-7c0,0,2,-5,1,-10L607,19C607,19,604,6,591,1c0,0,-14,-5,-45,-5c0,0,-16,0,-25,2c0,0,-10,1,-16,3c0,0,-6,3,-8,7c0,0,-2,4,0,11l24,126c0,0,-10,-25,-35,-53c0,0,-26,-28,-60,-52C426,40,391,17,348,2c0,0,-42,-15,-86,-15Z" 
id="f1_7v"
transform="scale(0.001,-0.001)" />

<path d="M611,356L539,837h-1L277,356ZM19,-4c0,0,-21,0,-35,2c0,0,-13,2,-18,6c0,0,-6,5,-3,15c0,0,2,10,10,27L475,943c0,0,5,8,11,13c0,0,6,6,16,9c0,0,10,3,25,4c0,0,15,1,36,1c0,0,25,0,40,-1c0,0,15,-1,25,-4c0,0,9,-3,13,-9c0,0,3,-5,5,-14L791,45c0,0,2,-16,1,-26c0,0,-1,-10,-8,-16c0,0,-7,-4,-22,-5c0,0,-15,-2,-41,-2c0,0,-16,0,-28,1c0,0,-12,1,-18,3c0,0,-7,3,-10,7c0,0,-3,5,-3,11L626,253H223L97,20C97,20,94,13,89,8C89,8,84,3,75,0C75,0,67,-2,53,-3C53,-3,39,-4,19,-4Z" 
id="f1_5"
transform="scale(0.001,-0.001)" />

<path d="M273,-13c0,0,-42,0,-73,9c0,0,-30,8,-51,27c0,0,-21,19,-31,48c0,0,-10,29,-10,69c0,0,0,9,1,20c0,0,0,11,2,23c0,0,2,12,4,24c0,0,2,12,4,22l76,378H101c0,0,-8,0,-12,5c0,0,-5,5,-5,19c0,0,0,11,2,25c0,0,3,13,7,25c0,0,4,12,12,21c0,0,7,8,16,8h94l32,160c0,0,1,5,5,9c0,0,4,5,12,8c0,0,7,4,20,5c0,0,12,2,30,2c0,0,18,0,30,-2c0,0,11,-1,17,-5c0,0,7,-3,8,-8c0,0,2,-4,2,-9L339,710H510c0,0,12,0,15,-8c0,0,4,-9,4,-19c0,0,0,-7,-1,-15c0,0,-1,-8,-3,-16c0,0,-2,-8,-6,-16c0,0,-3,-9,-8,-15c0,0,-4,-6,-9,-10c0,0,-5,-4,-12,-4H318L243,232c0,0,-3,-15,-5,-35c0,0,-3,-19,-3,-32c0,0,0,-38,16,-56c0,0,16,-17,53,-17c0,0,20,0,35,3c0,0,15,4,26,7c0,0,10,4,19,7c0,0,8,4,14,4c0,0,6,0,9,-4c0,0,4,-4,4,-16c0,0,0,-9,-2,-21c0,0,-2,-12,-5,-23c0,0,-3,-11,-8,-20c0,0,-4,-9,-9,-14c0,0,-6,-5,-18,-11c0,0,-12,-4,-28,-8c0,0,-16,-4,-33,-6c0,0,-18,-3,-35,-3Z" 
id="f1_bf"
transform="scale(0.001,-0.001)" />

<path d="M105,-4c0,0,-18,0,-30,2c0,0,-11,1,-18,3c0,0,-6,3,-8,7c0,0,-2,4,0,10L183,690c0,0,1,5,4,9c0,0,4,5,11,8c0,0,8,3,20,4c0,0,12,2,30,2c0,0,19,0,30,-2c0,0,12,-1,18,-4c0,0,7,-3,9,-8c0,0,2,-4,1,-9L172,18c0,0,-2,-6,-5,-10c0,0,-4,-4,-12,-7c0,0,-7,-2,-20,-3c0,0,-12,-2,-30,-2ZM274,842c0,0,-22,0,-36,4c0,0,-14,3,-20,12c0,0,-7,8,-8,23c0,0,-1,14,3,35c0,0,5,21,11,34c0,0,7,14,17,23c0,0,10,10,25,13c0,0,16,4,38,4c0,0,22,0,36,-4c0,0,14,-3,21,-13c0,0,8,-9,8,-23c0,0,1,-13,-3,-34c0,0,-4,-21,-10,-35c0,0,-7,-15,-17,-23c0,0,-11,-9,-27,-12c0,0,-16,-4,-38,-4Z" 
id="f1_9q"
transform="scale(0.001,-0.001)" />

<path d="M105,-4c0,0,-18,0,-30,2c0,0,-11,1,-18,3c0,0,-6,3,-8,7c0,0,-2,4,0,10L182,690c0,0,1,6,4,10c0,0,4,5,12,8c0,0,7,3,18,4c0,0,11,1,26,1c0,0,15,0,25,-1c0,0,10,-1,16,-4c0,0,6,-3,7,-8c0,0,2,-4,1,-10L266,568c0,0,17,31,41,59c0,0,23,29,51,51c0,0,28,21,58,34c0,0,30,13,59,13c0,0,13,0,26,-2c0,0,13,-2,24,-5c0,0,11,-2,20,-6c0,0,8,-3,13,-8c0,0,4,-4,4,-14c0,0,0,-3,-1,-11c0,0,-1,-9,-2,-20c0,0,-2,-11,-5,-23c0,0,-3,-12,-7,-22c0,0,-5,-10,-10,-17c0,0,-5,-7,-10,-7c0,0,-6,0,-13,3c0,0,-8,3,-16,6c0,0,-9,4,-20,7c0,0,-11,2,-26,2c0,0,-25,0,-58,-22c0,0,-34,-22,-66,-61c0,0,-32,-39,-58,-92c0,0,-27,-53,-40,-116L172,18c0,0,-2,-6,-5,-10c0,0,-4,-4,-12,-7c0,0,-7,-2,-20,-3c0,0,-12,-2,-30,-2Z" 
id="f1_b1"
transform="scale(0.001,-0.001)" />

<path d="M482,-11c0,0,-94,0,-170,31c0,0,-76,31,-129,92c0,0,-53,61,-82,151c0,0,-29,90,-29,207c0,0,0,120,31,214c0,0,31,94,87,159c0,0,56,65,134,100c0,0,78,34,173,34c0,0,41,0,81,-8c0,0,39,-8,73,-19c0,0,33,-12,60,-28c0,0,26,-15,36,-25c0,0,10,-10,13,-15c0,0,3,-6,5,-13c0,0,1,-7,3,-17c0,0,1,-9,1,-23c0,0,0,-15,-2,-25c0,0,-1,-11,-4,-18c0,0,-3,-7,-7,-10c0,0,-4,-4,-10,-4c0,0,-11,0,-30,15c0,0,-18,14,-48,32c0,0,-29,17,-71,32c0,0,-42,14,-101,14c0,0,-64,0,-117,-25c0,0,-52,-26,-90,-76c0,0,-37,-50,-57,-122c0,0,-21,-72,-21,-164c0,0,0,-92,20,-163c0,0,20,-70,57,-117c0,0,36,-48,90,-72c0,0,54,-24,122,-24c0,0,57,0,100,14c0,0,43,14,73,32c0,0,30,17,50,31c0,0,19,15,30,15c0,0,5,0,9,-3c0,0,4,-2,6,-8c0,0,2,-7,3,-18c0,0,2,-11,2,-28c0,0,0,-12,-1,-21c0,0,-1,-9,-3,-16c0,0,-2,-6,-5,-12c0,0,-3,-5,-10,-12c0,0,-8,-8,-31,-23c0,0,-24,-15,-60,-30C663,23,628,8,582,-1c0,0,-46,-10,-100,-10Z" 
id="f0_j"
transform="scale(0.001,-0.001)" />

<path d="M351,-13c0,0,-67,0,-113,22c0,0,-46,22,-75,60c0,0,-28,39,-40,90c0,0,-13,51,-13,124V690c0,0,0,6,3,10c0,0,3,4,10,7c0,0,8,4,20,5c0,0,11,1,29,1c0,0,18,0,30,-1c0,0,12,-1,19,-5c0,0,7,-3,10,-7c0,0,3,-4,3,-10V299c0,0,0,-59,9,-94c0,0,8,-36,26,-61c0,0,18,-24,44,-38c0,0,27,-14,63,-14c0,0,46,0,92,33c0,0,46,32,98,95V690c0,0,0,6,2,10c0,0,3,4,10,7c0,0,8,4,19,5c0,0,12,1,30,1c0,0,18,0,30,-1c0,0,12,-1,19,-5c0,0,7,-3,10,-7c0,0,3,-4,3,-10V18c0,0,0,-6,-2,-10c0,0,-3,-4,-10,-7c0,0,-6,-2,-17,-3c0,0,-11,-2,-27,-2c0,0,-17,0,-28,2c0,0,-10,1,-17,3c0,0,-6,3,-8,7c0,0,-3,4,-3,10v89c0,0,-57,-63,-113,-92c0,0,-56,-28,-113,-28Z" 
id="f0_c6"
transform="scale(0.001,-0.001)" />

<path d="M372,-4c0,0,-18,0,-30,2c0,0,-13,2,-21,3c0,0,-7,3,-10,8c0,0,-3,4,-3,10V857H36c0,0,-6,0,-11,3c0,0,-5,2,-8,9c0,0,-2,6,-4,17c0,0,-2,10,-2,24c0,0,0,14,2,25c0,0,2,11,4,17c0,0,3,7,8,10c0,0,5,3,11,3H708c0,0,6,0,11,-3c0,0,5,-3,8,-10c0,0,4,-6,5,-17c0,0,2,-11,2,-25c0,0,0,-14,-2,-24c0,0,-1,-11,-5,-17c0,0,-3,-7,-8,-9c0,0,-5,-3,-11,-3H436V19c0,0,0,-6,-3,-10c0,0,-3,-5,-10,-8c0,0,-8,-1,-20,-3c0,0,-12,-2,-31,-2Z" 
id="f0_2t"
transform="scale(0.001,-0.001)" />

<path d="M92,-214c0,0,-13,0,-21,1c0,0,-9,1,-13,4c0,0,-4,3,-4,7c0,0,0,4,3,11L154,11v96c0,0,0,20,5,32c0,0,4,12,13,18c0,0,9,6,22,8c0,0,13,2,32,2c0,0,18,0,31,-2c0,0,14,-2,22,-8c0,0,9,-6,13,-18c0,0,4,-12,4,-32c0,0,0,-23,-2,-43c0,0,-2,-19,-7,-36c0,0,-5,-17,-14,-33c0,0,-8,-17,-21,-35L151,-192c0,0,-4,-6,-9,-10c0,0,-5,-4,-11,-7c0,0,-7,-2,-16,-4c0,0,-10,-1,-23,-1ZM218,512c0,0,-24,0,-39,4c0,0,-15,5,-24,15c0,0,-8,10,-12,26c0,0,-3,16,-3,40c0,0,0,26,3,42c0,0,4,17,12,27c0,0,9,10,24,14c0,0,15,4,39,4c0,0,23,0,38,-4c0,0,15,-4,24,-14c0,0,10,-10,13,-27c0,0,3,-16,3,-42c0,0,0,-24,-3,-40c0,0,-3,-16,-13,-26c0,0,-9,-10,-24,-15c0,0,-15,-4,-38,-4Z" 
id="f0_nr"
transform="scale(0.001,-0.001)" />

<path d="M346,-4c0,0,-23,0,-38,2c0,0,-15,1,-24,3c0,0,-9,3,-15,8c0,0,-5,6,-8,13L33,660c0,0,-3,9,-5,15c0,0,-2,7,-2,11c0,0,0,3,0,5c0,0,0,6,3,11c0,0,3,4,10,7c0,0,7,2,18,3c0,0,12,1,29,1c0,0,22,0,35,-1c0,0,13,-1,20,-4c0,0,7,-3,10,-8c0,0,4,-4,7,-11L347,135l3,-9l2,9L540,689c0,0,1,7,5,11c0,0,3,5,11,8c0,0,7,3,19,4c0,0,12,1,32,1c0,0,18,0,29,-1c0,0,11,-1,17,-4c0,0,7,-3,9,-7c0,0,3,-4,3,-10c0,0,0,-3,-1,-6c0,0,0,-4,-1,-7c0,0,0,-4,-2,-8c0,0,-1,-5,-2,-10L430,22c0,0,-3,-8,-8,-13c0,0,-5,-6,-15,-9c0,0,-9,-2,-24,-3c0,0,-15,-1,-37,-1Z" 
id="f0_ch"
transform="scale(0.001,-0.001)" />

<path d="M367,-13c0,0,-73,0,-129,23c0,0,-56,24,-93,70c0,0,-38,46,-58,112c0,0,-20,67,-20,154c0,0,0,99,25,171c0,0,24,71,66,116c0,0,42,46,99,68c0,0,58,22,124,22c0,0,32,0,62,-6c0,0,31,-6,56,-16c0,0,25,-10,45,-22c0,0,20,-13,29,-22c0,0,9,-9,12,-14c0,0,3,-5,6,-13c0,0,2,-7,3,-16c0,0,0,-9,0,-22c0,0,0,-29,-6,-41c0,0,-7,-11,-17,-11c0,0,-11,0,-25,12c0,0,-15,12,-37,27c0,0,-23,15,-55,28c0,0,-31,12,-75,12c0,0,-88,0,-136,-68c0,0,-47,-68,-47,-198c0,0,0,-65,12,-114c0,0,12,-49,36,-81c0,0,24,-33,59,-49c0,0,35,-16,79,-16c0,0,43,0,75,13c0,0,32,14,56,30c0,0,23,16,39,29c0,0,16,13,25,13c0,0,5,0,9,-3c0,0,4,-3,7,-10c0,0,2,-7,3,-18c0,0,1,-11,1,-26c0,0,0,-12,0,-22c0,0,-1,-9,-3,-15c0,0,-2,-7,-4,-12c0,0,-3,-4,-12,-14c0,0,-10,-9,-32,-23c0,0,-22,-14,-50,-24C496,11,468,0,435,-6c0,0,-33,-7,-68,-7Z" 
id="f0_7l"
transform="scale(0.001,-0.001)" />

<path d="M671,70q-1,0,-1,0c0,0,-6,1,-14,5L68,372c0,0,-8,4,-12,18c0,0,-5,14,-5,41c0,0,0,12,2,23c0,0,1,10,3,17c0,0,3,6,6,11c0,0,4,5,8,7L656,784c0,0,7,4,14,4c3,0,7,-1,9,-5c0,0,7,-9,7,-44c0,0,0,-21,-2,-34c0,0,-1,-13,-3,-21c0,0,-3,-7,-8,-11c0,0,-5,-5,-14,-9L179,429L656,198c0,0,10,-6,16,-10c0,0,5,-4,8,-12c0,0,3,-8,4,-21c0,0,2,-13,2,-34c0,0,0,-19,-2,-30c0,0,-1,-12,-5,-17c0,0,-3,-4,-8,-4Z" 
id="f0_ud"
transform="scale(0.001,-0.001)" />

<path d="M318,-13c0,0,-48,0,-90,8c0,0,-41,8,-73,19c0,0,-33,12,-55,25c0,0,-22,13,-30,22c0,0,-9,8,-13,22c0,0,-4,14,-4,37c0,0,0,17,1,27c0,0,2,11,5,18c0,0,3,7,7,9c0,0,5,3,11,3c0,0,10,0,29,-13c0,0,19,-12,49,-27c0,0,30,-15,72,-28c0,0,42,-13,97,-13c0,0,42,0,77,11c0,0,34,11,59,32c0,0,25,20,39,50c0,0,13,30,13,68c0,0,0,41,-19,70c0,0,-18,29,-49,51c0,0,-30,22,-70,41c0,0,-39,18,-80,37c0,0,-41,19,-80,42c0,0,-39,23,-69,54c0,0,-31,32,-50,74c0,0,-19,42,-19,101c0,0,0,60,22,108c0,0,22,47,61,79c0,0,40,32,94,49c0,0,54,17,116,17c0,0,32,0,65,-6c0,0,32,-5,61,-15c0,0,29,-9,51,-20c0,0,22,-12,30,-19c0,0,7,-7,9,-11c0,0,2,-4,4,-10c0,0,1,-7,2,-16c0,0,1,-9,1,-23c0,0,0,-13,-2,-24c0,0,-1,-10,-3,-17c0,0,-2,-8,-6,-11c0,0,-4,-3,-10,-3c0,0,-8,0,-25,10c0,0,-18,11,-43,24c0,0,-26,13,-60,23c0,0,-35,11,-78,11c0,0,-40,0,-70,-11c0,0,-30,-10,-49,-28c0,0,-20,-18,-29,-43c0,0,-10,-25,-10,-52c0,0,0,-40,18,-70c0,0,19,-29,50,-51c0,0,31,-22,71,-41c0,0,39,-19,80,-38c0,0,41,-19,81,-41c0,0,39,-23,70,-54c0,0,31,-31,50,-73c0,0,19,-42,19,-100c0,0,0,-68,-25,-121c0,0,-25,-53,-69,-89C552,61,508,24,448,5c0,0,-60,-18,-130,-18Z" 
id="f0_2n"
transform="scale(0.001,-0.001)" />

<path d="M91,70c-1,0,-6,1,-9,5c0,0,-4,5,-5,16c0,0,-2,11,-2,28c0,0,0,21,1,34c0,0,1,12,3,20c0,0,3,8,8,12c0,0,6,5,14,9L582,430L104,661c0,0,-10,4,-16,9c0,0,-5,4,-8,12c0,0,-3,8,-4,21c0,0,-1,13,-1,35c0,0,0,19,2,30c0,0,1,10,5,15c0,0,3,5,8,5c0,0,1,-1,1,-1c0,0,6,0,14,-5L693,486c0,0,7,-4,12,-18c0,0,5,-15,5,-40c0,0,0,-13,-1,-23c0,0,-2,-10,-4,-17c0,0,-2,-8,-6,-12c0,0,-4,-4,-8,-6L105,74c0,0,-8,-3,-14,-4Z" 
id="f0_ue"
transform="scale(0.001,-0.001)" />

<path d="M431,92c0,0,46,0,79,22c0,0,33,23,53,60c0,0,21,37,30,83c0,0,10,46,10,93c0,0,0,51,-8,100c0,0,-8,49,-28,86c0,0,-19,37,-51,60c0,0,-32,23,-80,23c0,0,-24,0,-47,-7c0,0,-23,-7,-47,-22c0,0,-24,-16,-50,-41c0,0,-25,-24,-55,-62V219c0,0,51,-62,98,-95c0,0,46,-32,96,-32ZM443,-13c0,0,-32,0,-59,7c0,0,-27,6,-53,19c0,0,-26,14,-52,36c0,0,-27,22,-56,52V18c0,0,0,-6,-3,-10c0,0,-3,-5,-9,-7c0,0,-7,-2,-17,-3c0,0,-10,-2,-26,-2c0,0,-15,0,-25,2c0,0,-11,1,-17,3c0,0,-7,2,-9,7c0,0,-3,4,-3,10v997c0,0,0,6,3,11c0,0,3,4,10,7c0,0,7,3,19,5c0,0,12,1,30,1c0,0,18,0,30,-1c0,0,12,-2,19,-5c0,0,7,-3,9,-7c0,0,3,-5,3,-10V614c0,0,30,31,58,52c0,0,28,20,55,34c0,0,27,13,54,19c0,0,27,6,57,6c0,0,73,0,125,-30c0,0,52,-29,84,-78c0,0,32,-48,47,-114c0,0,15,-66,15,-139c0,0,0,-87,-19,-157c0,0,-19,-70,-56,-119c0,0,-37,-49,-90,-76c0,0,-54,-25,-124,-25Z" 
id="f0_7k"
transform="scale(0.001,-0.001)" />

<path d="M176,-4c0,0,-18,0,-30,2c0,0,-12,1,-19,3c0,0,-7,3,-10,7c0,0,-3,4,-3,10V690c0,0,0,6,3,10c0,0,2,4,9,7c0,0,6,4,17,5c0,0,10,1,27,1c0,0,17,0,28,-1c0,0,10,-1,16,-5c0,0,6,-3,9,-7c0,0,3,-4,3,-10V601c0,0,56,64,112,94c0,0,57,30,114,30c0,0,67,0,113,-23c0,0,46,-23,74,-61c0,0,29,-38,41,-89c0,0,12,-52,12,-123V18c0,0,0,-6,-3,-10c0,0,-3,-4,-9,-7c0,0,-7,-2,-19,-3c0,0,-12,-2,-30,-2c0,0,-19,0,-30,2c0,0,-12,1,-19,3c0,0,-7,3,-10,7c0,0,-3,4,-3,10V412c0,0,0,58,-9,93c0,0,-9,35,-26,61c0,0,-17,25,-44,38c0,0,-27,14,-63,14c0,0,-46,0,-93,-33c0,0,-46,-33,-97,-96V18c0,0,0,-6,-3,-10c0,0,-2,-4,-9,-7c0,0,-7,-2,-19,-3c0,0,-12,-2,-30,-2Z" 
id="f0_af"
transform="scale(0.001,-0.001)" />

<path d="M92,-4c0,0,-22,0,-35,2C57,-2,43,0,37,3c0,0,-7,5,-6,12c0,0,0,7,7,17L247,360L49,675c0,0,-6,11,-6,18c0,0,-1,7,6,12c0,0,7,5,22,6c0,0,14,2,38,2c0,0,22,0,35,-1c0,0,13,-1,20,-4c0,0,8,-2,12,-6c0,0,3,-3,6,-9L335,443L490,693c0,0,3,5,7,9c0,0,4,3,10,6c0,0,7,3,18,4c0,0,12,1,32,1c0,0,21,0,35,-2c0,0,14,-1,21,-5c0,0,7,-4,6,-12c0,0,-1,-7,-8,-19L415,364L622,32c0,0,6,-10,6,-17c0,0,0,-7,-7,-12c0,0,-7,-3,-21,-5c0,0,-15,-2,-38,-2c0,0,-22,0,-35,1c0,0,-13,1,-21,3c0,0,-8,3,-12,7c0,0,-4,4,-7,9L326,282L165,16c0,0,-3,-5,-7,-9c0,0,-4,-4,-12,-7c0,0,-8,-2,-20,-3c0,0,-13,-1,-34,-1Z" 
id="f0_cn"
transform="scale(0.001,-0.001)" />

<path d="M398,-4c0,0,-25,0,-41,2c0,0,-17,1,-27,3c0,0,-11,4,-16,10c0,0,-6,6,-8,17L51,920c0,0,-5,17,-5,27c0,0,0,10,6,15c0,0,6,5,20,6c0,0,15,2,38,2c0,0,24,0,37,-1c0,0,13,-1,20,-4c0,0,8,-3,10,-8c0,0,3,-6,4,-14L398,134h1L605,942c0,0,2,8,6,13c0,0,3,6,10,9c0,0,8,3,22,4c0,0,13,2,36,2c0,0,21,0,33,-2c0,0,12,-1,20,-4c0,0,7,-3,11,-9c0,0,3,-5,5,-13L970,134h1l213,808c0,0,2,8,4,13c0,0,3,6,10,9c0,0,7,3,20,4c0,0,13,2,35,2c0,0,22,0,35,-2c0,0,13,-2,19,-7c0,0,6,-5,6,-15c0,0,-1,-10,-5,-27L1053,28c0,0,-3,-11,-9,-17c0,0,-6,-6,-17,-10c0,0,-10,-2,-26,-3c0,0,-15,-2,-37,-2c0,0,-23,0,-39,2c0,0,-16,1,-27,3c0,0,-10,4,-15,10c0,0,-6,6,-9,17L672,757h-1L484,28c0,0,-2,-11,-7,-17c0,0,-6,-6,-15,-10c0,0,-10,-2,-25,-3c0,0,-16,-2,-39,-2Z" 
id="f0_39"
transform="scale(0.001,-0.001)" />

<path d="M483,-13c0,0,-80,0,-145,22c0,0,-66,24,-113,69c0,0,-47,45,-73,113c0,0,-25,68,-25,156V946c0,0,0,6,3,11c0,0,3,4,11,7c0,0,7,2,19,4c0,0,12,2,31,2c0,0,18,0,31,-2c0,0,13,-2,20,-4c0,0,7,-3,10,-7c0,0,3,-5,3,-11V363c0,0,0,-67,16,-117c0,0,16,-50,47,-83c0,0,31,-34,75,-50c0,0,44,-17,98,-17c0,0,56,0,100,16c0,0,43,17,74,49c0,0,30,33,46,82c0,0,16,48,16,113V946c0,0,0,6,3,11c0,0,3,4,10,7c0,0,8,2,20,4c0,0,13,2,31,2c0,0,18,0,30,-2c0,0,13,-2,20,-4c0,0,7,-3,10,-7c0,0,4,-5,4,-11V357c0,0,0,-88,-26,-157c0,0,-26,-69,-74,-117C755,83,708,36,639,11c0,0,-69,-24,-156,-24Z" 
id="f0_2x"
transform="scale(0.001,-0.001)" />

<path d="M382,534c0,0,51,0,88,12c0,0,37,12,61,35c0,0,25,22,36,51c0,0,12,30,12,65c0,0,0,57,-25,96c0,0,-26,40,-86,57c0,0,-18,5,-42,7c0,0,-23,2,-61,2H256V534ZM192,-4c0,0,-18,0,-31,2c0,0,-12,2,-19,3c0,0,-8,3,-11,8c0,0,-3,4,-3,10V913c0,0,0,29,15,40c0,0,16,12,33,12H381c0,0,37,0,61,-2c0,0,24,-2,44,-4c0,0,56,-10,98,-30c0,0,43,-21,73,-53c0,0,29,-33,43,-74c0,0,15,-41,15,-91c0,0,0,-49,-13,-87c0,0,-13,-39,-38,-68c0,0,-25,-30,-59,-51c0,0,-34,-22,-77,-37c0,0,24,-10,43,-26c0,0,20,-16,37,-39c0,0,16,-22,31,-51c0,0,15,-29,30,-66L756,73c0,0,10,-26,13,-37c0,0,3,-11,3,-17c0,0,0,-6,-2,-10c0,0,-2,-5,-10,-8c0,0,-7,-2,-21,-3c0,0,-13,-2,-36,-2c0,0,-19,0,-31,2c0,0,-13,1,-20,3c0,0,-7,4,-12,10c0,0,-4,6,-7,15L545,253c0,0,-16,39,-33,72c0,0,-17,32,-40,56c0,0,-23,23,-54,36c0,0,-32,13,-76,13H256V19c0,0,0,-6,-3,-10c0,0,-3,-5,-10,-8c0,0,-7,-1,-20,-3c0,0,-12,-2,-31,-2Z" 
id="f0_2j"
transform="scale(0.001,-0.001)" />

<path d="M503,98c0,0,85,0,142,31c0,0,58,31,93,85c0,0,35,53,50,123c0,0,15,70,15,148c0,0,0,83,-15,153c0,0,-14,70,-48,122c0,0,-34,52,-91,81c0,0,-57,29,-140,29c0,0,-84,0,-141,-31c0,0,-56,-31,-92,-84c0,0,-35,-52,-51,-122c0,0,-15,-69,-15,-146c0,0,0,-85,14,-157c0,0,14,-71,48,-123c0,0,34,-52,90,-80c0,0,56,-29,141,-29ZM497,-13c0,0,-109,0,-189,32c0,0,-79,32,-131,94c0,0,-52,62,-77,154c0,0,-26,91,-26,211c0,0,0,114,28,207c0,0,28,93,83,159c0,0,55,65,138,100c0,0,83,36,193,36c0,0,107,0,186,-32c0,0,79,-32,132,-94c0,0,52,-61,78,-152c0,0,26,-91,26,-208c0,0,0,-117,-28,-211c0,0,-28,-94,-82,-160C828,123,773,57,690,22c0,0,-83,-35,-193,-35Z" 
id="f0_24"
transform="scale(0.001,-0.001)" />

<path d="M189,-4c0,0,-18,0,-30,2c0,0,-12,2,-18,3c0,0,-7,3,-10,8c0,0,-3,5,-3,10V910c0,0,0,30,17,42c0,0,16,13,35,13h62c0,0,21,0,36,-4c0,0,14,-3,26,-12c0,0,11,-9,22,-24c0,0,11,-15,24,-38L584,463c0,0,21,-39,42,-76c0,0,20,-37,38,-73c0,0,19,-35,37,-70c0,0,19,-35,36,-70h1c0,0,-1,59,-2,123c0,0,0,64,0,123V944c0,0,0,5,3,10c0,0,3,4,10,8c0,0,7,3,19,5c0,0,11,1,30,1c0,0,16,0,28,-1c0,0,12,-2,19,-5c0,0,7,-4,10,-8c0,0,3,-5,3,-10V53c0,0,0,-15,-5,-25c0,0,-5,-11,-13,-17c0,0,-8,-7,-18,-10c0,0,-9,-2,-19,-2H762c0,0,-19,0,-34,3c0,0,-14,4,-27,15c0,0,-14,11,-27,29c0,0,-13,19,-28,48L342,643c0,0,-24,42,-49,89c0,0,-24,47,-45,91h-1c0,0,1,-54,2,-110c0,0,1,-56,1,-111V19c0,0,0,-5,-3,-10c0,0,-3,-5,-10,-8c0,0,-7,-1,-19,-3c0,0,-12,-2,-29,-2Z" 
id="f0_1y"
transform="scale(0.001,-0.001)" />

<path d="M192,-4c0,0,-18,0,-30,2c0,0,-13,2,-20,3c0,0,-8,3,-11,8c0,0,-3,4,-3,10V946c0,0,0,6,3,11c0,0,4,4,12,7c0,0,7,2,20,4c0,0,12,2,29,2c0,0,19,0,31,-2c0,0,13,-2,20,-4c0,0,7,-3,10,-7c0,0,3,-5,3,-11V19c0,0,0,-6,-3,-10c0,0,-3,-5,-10,-8c0,0,-7,-1,-20,-3c0,0,-12,-2,-31,-2Z" 
id="f0_1c"
transform="scale(0.001,-0.001)" />

<path d="M441,106c0,0,45,0,77,10c0,0,33,10,58,31c0,0,25,21,39,51c0,0,15,31,15,71c0,0,0,43,-14,76c0,0,-14,33,-41,55c0,0,-26,23,-66,34c0,0,-40,12,-100,12H255V106ZM401,549c0,0,50,0,81,13c0,0,30,13,50,35c0,0,20,22,30,51c0,0,9,29,9,61c0,0,0,35,-10,63c0,0,-9,28,-30,48c0,0,-21,20,-55,30c0,0,-33,10,-88,10H255V549ZM176,0c0,0,-17,0,-33,12c0,0,-15,11,-15,40V913c0,0,0,29,15,41c0,0,16,11,33,11H395c0,0,87,0,142,-16c0,0,55,-17,92,-48c0,0,37,-31,55,-77c0,0,19,-45,19,-103c0,0,0,-34,-8,-65c0,0,-8,-32,-24,-58c0,0,-16,-27,-41,-47c0,0,-24,-21,-55,-35c0,0,39,-7,74,-27c0,0,34,-20,60,-50c0,0,26,-31,41,-72c0,0,15,-41,15,-90c0,0,0,-46,-12,-84c0,0,-12,-39,-32,-69c0,0,-21,-31,-51,-54c0,0,-29,-23,-66,-39C604,31,567,16,525,8C525,8,483,0,428,0Z" 
id="f0_i"
transform="scale(0.001,-0.001)" />

<path d="M105,-4c0,0,-18,0,-30,2c0,0,-11,1,-18,3c0,0,-6,3,-8,7c0,0,-2,4,0,10L184,690c0,0,1,6,4,10c0,0,3,5,10,8c0,0,7,3,18,4c0,0,11,1,26,1c0,0,15,0,26,-1c0,0,10,-1,15,-4c0,0,6,-3,7,-8c0,0,2,-4,1,-10L266,562c0,0,11,26,36,54c0,0,26,29,61,53c0,0,35,24,77,40c0,0,42,16,88,16c0,0,50,0,83,-16c0,0,34,-15,55,-40c0,0,21,-25,30,-58c0,0,9,-33,9,-69c0,0,0,-26,-3,-51c0,0,-3,-26,-8,-53L609,18c0,0,-2,-6,-5,-10c0,0,-3,-4,-11,-7c0,0,-8,-2,-20,-3c0,0,-12,-2,-31,-2c0,0,-18,0,-29,2c0,0,-11,1,-18,3c0,0,-6,3,-8,7c0,0,-2,4,-1,10l83,415c0,0,5,23,7,45c0,0,2,22,2,39c0,0,0,45,-19,74c0,0,-20,28,-66,28c0,0,-39,0,-81,-23c0,0,-41,-23,-76,-63c0,0,-36,-40,-64,-95c0,0,-28,-55,-41,-120L172,18c0,0,-2,-6,-5,-10c0,0,-4,-4,-12,-7c0,0,-7,-2,-20,-3c0,0,-12,-2,-30,-2Z" 
id="f1_af"
transform="scale(0.001,-0.001)" />

<path d="M372,92c0,0,39,0,71,18c0,0,31,18,56,48c0,0,26,29,44,68c0,0,19,38,31,81c0,0,13,42,19,84c0,0,6,43,6,80c0,0,0,20,-3,46c0,0,-4,27,-15,49c0,0,-11,22,-31,38c0,0,-21,15,-55,15c0,0,-40,0,-82,-23c0,0,-42,-24,-78,-64c0,0,-35,-41,-63,-97c0,0,-28,-55,-41,-119L206,192c0,0,35,-51,76,-76c0,0,40,-24,90,-24Zm0,-105c0,0,-68,0,-115,25c0,0,-48,25,-85,73L159,18C159,18,157,6,142,0c0,0,-14,-4,-44,-4c0,0,-31,0,-42,5C56,1,46,7,49,18l198,997c0,0,2,6,5,11c0,0,4,4,11,7c0,0,8,3,20,5c0,0,13,1,31,1c0,0,18,0,29,-1c0,0,12,-2,18,-5c0,0,7,-3,9,-7c0,0,1,-5,1,-11L311,715c0,0,-4,-19,-9,-40c0,0,-5,-21,-10,-42c0,0,-6,-20,-12,-38c0,0,-6,-18,-11,-31c0,0,13,25,39,53c0,0,26,29,60,52c0,0,35,24,76,40c0,0,40,16,82,16c0,0,45,0,77,-12c0,0,32,-12,55,-32c0,0,22,-20,36,-45c0,0,14,-26,21,-53c0,0,7,-26,10,-53c0,0,3,-26,3,-49c0,0,0,-45,-8,-99c0,0,-8,-54,-26,-109c0,0,-19,-55,-46,-106c0,0,-28,-52,-68,-92c0,0,-40,-40,-92,-64c0,0,-51,-24,-116,-24Z" 
id="f1_7k"
transform="scale(0.001,-0.001)" />


</defs>

<!-- Any embedded fonts defined here -->
<style type="text/css" ><![CDATA[

@font-face {
	font-family: Calibri_7;
	src: url("fonts/Calibri_7.woff") format("woff");
}

@font-face {
	font-family: Calibri-Italic_9;
	src: url("fonts/Calibri-Italic_9.woff") format("woff");
}

]]></style>

</svg>
