<?xml version="1.0" encoding="UTF-8" standalone="no"?>
<!DOCTYPE svg PUBLIC "-//W3C//DTD SVG 1.1//EN"
"http://www.w3.org/Graphics/SVG/1.1/DTD/svg11.dtd">


<!-- Page 1 -->
<svg x="0" y="0" width="1986" height="435" viewBox="0 0 1986 435" version="1.1" xmlns="http://www.w3.org/2000/svg" xmlns:xlink="http://www.w3.org/1999/xlink"
style="display: block;margin-left: auto;margin-right: auto;">
<defs>
<clipPath id="c0_1"><path d="M0,435.2V0H1986.2V435.2Z" /></clipPath>
<clipPath id="c1_1"><path d="M1986.2,435.2H0V0H1986.2V435.2Z" /></clipPath>

<style type="text/css"><![CDATA[

.g0_1{
fill: #FFFFFF;
}
.g1_1{
fill: #5B9BD5;
}
.g2_1{
fill: #9DC3E6;
}
.g3_1{
fill: none;
stroke: #41719C;
stroke-width: 1.4666667;
stroke-linecap: butt;
stroke-linejoin: miter;
}
.g4_1{
fill: #A6A6A6;
}
.g5_1{
fill: none;
stroke: #A6A6A6;
stroke-width: 1.4666667;
stroke-linecap: butt;
stroke-linejoin: miter;
}
.g6_1{
fill: none;
stroke: #000000;
stroke-width: 1.4666667;
stroke-linecap: butt;
stroke-linejoin: miter;
}
.g7_1{
}
.g8_1{
fill: #F1F1F1;
}
.g9_1{
fill: #A9D18E;
}
.g10_1{
fill: none;
stroke: #A9D18E;
stroke-width: 1.4666667;
stroke-linecap: butt;
stroke-linejoin: miter;
}
.g11_1{
fill: none;
stroke: #A9D18E;
stroke-width: 1.5277778;
stroke-linecap: butt;
stroke-linejoin: miter;
}
.g12_1{
fill: #C55A11;
}
.g13_1{
fill: none;
stroke: #C55A11;
stroke-width: 1.4666667;
stroke-linecap: butt;
stroke-linejoin: miter;
}

.s1_1{
font-size: 32.12px;
font-family: Calibri_7;
fill: TRANSPARENT;
}
.s2_1{
font-size: 32.08px;
font-family: Calibri_7;
fill: TRANSPARENT;
}
.s3_1{
font-size: 19.98px;
font-family: Calibri_7;
fill: TRANSPARENT;
}
.s4_1{
font-size: 20.02px;
font-family: Calibri_7;
fill: TRANSPARENT;
}
text::-moz-selection {
	color: transparent;
	background: rgba(0, 106, 173, 0.4);
}
text::selection {
	color: transparent;
	background: rgba(0, 106, 173, 0.4);
}

]]></style>

</defs>
<path d="M0,0
L0,435
L1986,435
L1986,0 Z " 
fill="#FFFFFF" stroke="none" />
<g clip-path="url(#c0_1)">
<path fill-rule="evenodd" d="M0,435.2H1986.2V0H0V435.2Z" class="g0_1" />
<path fill-rule="evenodd" d="M1349.3,286.5c0,7.3,23.8,13.3,53.2,13.3c29.4,0,53.2,-6,53.2,-13.3V421.9c0,7.4,-23.8,13.3,-53.2,13.3c-29.4,0,-53.2,-5.9,-53.2,-13.3Z" class="g1_1" />
</g>
<path fill-rule="evenodd" d="M1349.3,286.5c0,-7.4,23.8,-13.3,53.2,-13.3c29.4,0,53.2,5.9,53.2,13.3c0,7.3,-23.8,13.3,-53.2,13.3c-29.4,0,-53.2,-6,-53.2,-13.3Z" class="g2_1" />
<g clip-path="url(#c0_1)">
<path d="M1455.7,286.5c0,7.3,-23.8,13.3,-53.2,13.3c-29.4,0,-53.2,-6,-53.2,-13.3c0,-7.4,23.8,-13.3,53.2,-13.3c29.4,0,53.2,5.9,53.2,13.3Zm0,0V421.9c0,7.4,-23.8,13.3,-53.2,13.3c-29.4,0,-53.2,-5.9,-53.2,-13.3V286.5" class="g3_1" />
</g>
<path fill-rule="evenodd" d="M1360.6,330.9c-.6,-4.9,2.6,-9.5,7.2,-10.2c1.9,-.2,3.8,.2,5.4,1.2c1.8,-3.5,5.8,-4.8,9,-3c.6,.4,1.1,.8,1.6,1.3c1.3,-2.9,4.6,-4.1,7.3,-2.6c.7,.3,1.4,.9,1.9,1.6c2.1,-2.7,6,-3,8.5,-.7c1.1,1,1.8,2.3,2.1,3.8c3.5,1,5.6,4.9,4.6,8.7c0,.3,-.2,.7,-.3,1c2.9,3.9,2.2,9.6,-1.5,12.6c-1.2,1,-2.5,1.6,-4,1.8c0,4.3,-3.3,7.7,-7.3,7.7c-1.3,-.1,-2.6,-.5,-3.7,-1.2c-1.4,4.8,-6.1,7.5,-10.5,6c-1.9,-.6,-3.5,-1.9,-4.6,-3.6c-4.6,2.9,-10.5,1.4,-13.2,-3.5c0,-.1,-.1,-.2,-.1,-.2c-3,.3,-5.7,-1.9,-6,-5.1c-.2,-1.7,.3,-3.4,1.4,-4.7c-2.6,-1.6,-3.5,-5.2,-1.9,-7.9c.8,-1.6,2.4,-2.7,4.1,-2.9Z" class="g4_1" />
<path d="M1360.6,330.9c-.6,-4.9,2.6,-9.5,7.2,-10.2c1.9,-.2,3.8,.2,5.4,1.2c1.8,-3.5,5.8,-4.8,9,-3c.6,.4,1.1,.8,1.6,1.3c1.3,-2.9,4.6,-4.1,7.3,-2.6c.7,.3,1.4,.9,1.9,1.6c2.1,-2.7,6,-3,8.5,-.7c1.1,1,1.8,2.3,2.1,3.8c3.5,1,5.6,4.9,4.6,8.7c0,.3,-.2,.7,-.3,1c2.9,3.9,2.2,9.6,-1.5,12.6c-1.2,1,-2.5,1.6,-4,1.8c0,4.3,-3.3,7.7,-7.3,7.7c-1.3,-.1,-2.6,-.5,-3.7,-1.2c-1.4,4.8,-6.1,7.5,-10.5,6c-1.9,-.6,-3.5,-1.9,-4.6,-3.6c-4.6,2.9,-10.5,1.4,-13.2,-3.5c0,-.1,-.1,-.2,-.1,-.2c-3,.3,-5.7,-1.9,-6,-5.1c-.2,-1.7,.3,-3.4,1.4,-4.7c-2.6,-1.6,-3.5,-5.2,-1.9,-7.9c.8,-1.6,2.4,-2.7,4.1,-2.9Zm1,11.6c-1.1,.1,-2.2,-.2,-3.2,-.8m6,9.3c-.4,.2,-.9,.3,-1.4,.4m13.3,3.7c-.3,-.5,-.6,-1.1,-.8,-1.7m16.2,-2.5c0,.6,-.1,1.2,-.3,1.8m6.9,-13.4c2.5,1.3,4.1,4,4.1,7m5.5,-14.4c-.4,1,-1,1.9,-1.8,2.6m-2.5,-12.4c0,.4,.1,.8,.1,1.3M1392,320.7c.3,-.6,.6,-1.1,1,-1.6m-9.6,2.3c.1,-.4,.2,-.9,.4,-1.3m-10.6,1.8c.6,.4,1.2,.8,1.6,1.3m-13.9,9.1c-.1,-.5,-.2,-.9,-.3,-1.4" class="g5_1" />
<path d="M50.6,31.8C50.6,17.8,62,6.4,76,6.4H247.7c14.1,0,25.5,11.4,25.5,25.4V133.5c0,14.1,-11.4,25.5,-25.5,25.5H76C62,159,50.6,147.6,50.6,133.5Z" class="g6_1" />
<g clip-path="url(#c0_1)">
<g fill="#000000" >
<use xlink:href="#f0_2n" transform="matrix(21,0,0,21,99.9,55)" />
<use xlink:href="#f0_a5" transform="matrix(21,0,0,21,114.7,55)" />
<use xlink:href="#f0_7z" transform="matrix(21,0,0,21,128.2,55)" />
<use xlink:href="#f0_bf" transform="matrix(21,0,0,21,143.9,55)" />
<use xlink:href="#f0_7l" transform="matrix(21,0,0,21,154.4,55)" />
<use xlink:href="#f0_9n" transform="matrix(21,0,0,21,167.9,55)" />
<use xlink:href="#f0_9q" transform="matrix(21,0,0,21,184.8,55)" />
<use xlink:href="#f0_af" transform="matrix(21,0,0,21,192.2,55)" />
<use xlink:href="#f0_9d" transform="matrix(21,0,0,21,209.1,55)" />
<use xlink:href="#f0_89" transform="matrix(21,0,0,21,73,93.5)" />
</g>
</g>
<text x="99" y="55" dx="0,0,-1.1,-0.2,-0.3,0,0,0,0,-0.2" class="s1_1">Sketching </text>
<g clip-path="url(#c0_1)">
<g fill="#000000" >
<use xlink:href="#f0_b1" transform="matrix(21,0,0,21,82.8,93.5)" />
<use xlink:href="#f0_am" transform="matrix(21,0,0,21,93.3,93.5)" />
<use xlink:href="#f0_ae" transform="matrix(21,0,0,21,110.2,93.5)" />
<use xlink:href="#f0_ae" transform="matrix(21,0,0,21,143,93.5)" />
<use xlink:href="#f0_c6" transform="matrix(21,0,0,21,168.6,93.5)" />
<use xlink:href="#f0_a8" transform="matrix(21,0,0,21,185.5,93.5)" />
<use xlink:href="#f0_bf" transform="matrix(21,0,0,21,192.9,93.5)" />
<use xlink:href="#f0_9q" transform="matrix(21,0,0,21,203.6,93.5)" />
<use xlink:href="#f0_ay" transform="matrix(21,0,0,21,211,93.5)" />
<use xlink:href="#f0_a8" transform="matrix(21,0,0,21,227.8,93.5)" />
<use xlink:href="#f0_7z" transform="matrix(21,0,0,21,235.2,93.5)" />
<use xlink:href="#f0_ch" transform="matrix(21,0,0,21,125.6,131.8)" />
</g>
</g>
<text x="72" y="93" dx="0,0,-0.6,0,0,-0.1,0,0,0,0,0,0,0,-0.2" class="s2_1">from multiple </text>
<g clip-path="url(#c0_1)">
<g fill="#000000" >
<use xlink:href="#f0_9q" transform="matrix(21,0,0,21,140.1,131.8)" />
<use xlink:href="#f0_7z" transform="matrix(21,0,0,21,147.5,131.8)" />
<use xlink:href="#f0_ci" transform="matrix(21,0,0,21,163.2,131.8)" />
<use xlink:href="#f0_b5" transform="matrix(21,0,0,21,185.7,131.8)" />
</g>
</g>
<text x="125" y="131" dx="0,0,0,-0.3,-0.4" class="s1_1">views</text>
<path d="M376.2,31.8c0,-14,11.4,-25.4,25.4,-25.4H576.8c14.1,0,25.5,11.4,25.5,25.4V133.5c0,14.1,-11.4,25.5,-25.5,25.5H401.6c-14,0,-25.4,-11.4,-25.4,-25.5Z" class="g6_1" />
<g clip-path="url(#c0_1)">
<g fill="#000000" >
<use xlink:href="#f0_2g" transform="matrix(21,0,0,21,422.6,74.2)" />
<use xlink:href="#f0_b1" transform="matrix(21,0,0,21,439.1,74.2)" />
<use xlink:href="#f0_am" transform="matrix(21,0,0,21,449.8,74.2)" />
<use xlink:href="#f0_a2" transform="matrix(21,0,0,21,466.7,74.2)" />
<use xlink:href="#f0_7z" transform="matrix(21,0,0,21,474.4,74.2)" />
<use xlink:href="#f0_7l" transform="matrix(21,0,0,21,490.4,74.2)" />
<use xlink:href="#f0_bf" transform="matrix(21,0,0,21,503.8,74.2)" />
<use xlink:href="#f0_9q" transform="matrix(21,0,0,21,514.6,74.2)" />
<use xlink:href="#f0_am" transform="matrix(21,0,0,21,522,74.2)" />
<use xlink:href="#f0_af" transform="matrix(21,0,0,21,538.9,74.2)" />
<use xlink:href="#f0_am" transform="matrix(21,0,0,21,417.7,112.8)" />
</g>
</g>
<text x="422" y="74" dx="0,-0.1,-0.6,0,0,0,-0.1,0,0,0,0" class="s1_1">Projection </text>
<g clip-path="url(#c0_1)">
<g fill="#000000" >
<use xlink:href="#f0_af" transform="matrix(21,0,0,21,434.6,112.8)" />
<use xlink:href="#f0_bf" transform="matrix(21,0,0,21,451,112.8)" />
<use xlink:href="#f0_am" transform="matrix(21,0,0,21,461.5,112.8)" />
<use xlink:href="#f0_a8" transform="matrix(21,0,0,21,485.5,112.8)" />
<use xlink:href="#f0_77" transform="matrix(21,0,0,21,492.9,112.8)" />
<use xlink:href="#f0_co" transform="matrix(21,0,0,21,507.7,112.8)" />
<use xlink:href="#f0_7z" transform="matrix(21,0,0,21,521.8,112.8)" />
<use xlink:href="#f0_b1" transform="matrix(21,0,0,21,537.8,112.8)" />
<use xlink:href="#f0_b5" transform="matrix(21,0,0,21,548.4,112.8)" />
</g>
</g>
<text x="417" y="112" dx="0,0,-0.4,-0.3,0,-0.1,0,-0.6,-0.4,0,-0.6" class="s2_1">onto layers</text>
<path d="M705.3,31.8c0,-14,11.4,-25.4,25.4,-25.4H905.9c14.1,0,25.4,11.4,25.4,25.4V133.5c0,14.1,-11.3,25.5,-25.4,25.5H730.7c-14,0,-25.4,-11.4,-25.4,-25.5Z" class="g6_1" />
<g clip-path="url(#c0_1)">
<g fill="#000000" >
<use xlink:href="#f0_j" transform="matrix(21,0,0,21,762.3,74.2)" />
<use xlink:href="#f0_am" transform="matrix(21,0,0,21,779.5,74.2)" />
<use xlink:href="#f0_af" transform="matrix(21,0,0,21,796.2,74.2)" />
<use xlink:href="#f0_89" transform="matrix(21,0,0,21,812.9,74.2)" />
<use xlink:href="#f0_a8" transform="matrix(21,0,0,21,822.7,74.2)" />
<use xlink:href="#f0_9q" transform="matrix(21,0,0,21,830,74.2)" />
<use xlink:href="#f0_7l" transform="matrix(21,0,0,21,837.4,74.2)" />
<use xlink:href="#f0_bf" transform="matrix(21,0,0,21,850.9,74.2)" />
<use xlink:href="#f0_b5" transform="matrix(21,0,0,21,861.7,74.2)" />
<use xlink:href="#f0_b1" transform="matrix(21,0,0,21,752.2,112.8)" />
</g>
</g>
<text x="762" y="74" dx="0,0,-0.1,-0.2,0,-0.1,0,0,0" class="s1_1">Conflicts</text>
<g clip-path="url(#c0_1)">
<g fill="#000000" >
<use xlink:href="#f0_7z" transform="matrix(21,0,0,21,763.1,112.8)" />
<use xlink:href="#f0_b5" transform="matrix(21,0,0,21,779,112.8)" />
<use xlink:href="#f0_am" transform="matrix(21,0,0,21,791.5,112.8)" />
<use xlink:href="#f0_a8" transform="matrix(21,0,0,21,808.4,112.8)" />
<use xlink:href="#f0_c6" transform="matrix(21,0,0,21,815.8,112.8)" />
<use xlink:href="#f0_bf" transform="matrix(21,0,0,21,832.6,112.8)" />
<use xlink:href="#f0_9q" transform="matrix(21,0,0,21,843.4,112.8)" />
<use xlink:href="#f0_am" transform="matrix(21,0,0,21,850.7,112.8)" />
<use xlink:href="#f0_af" transform="matrix(21,0,0,21,867.7,112.8)" />
</g>
</g>
<text x="752" y="112" dx="0,-0.4,0,-0.1,0,0,0,0,0,0" class="s2_1">resolution</text>
<path d="M1034.4,31.8c0,-14,11.3,-25.4,25.4,-25.4H1235c14,0,25.4,11.4,25.4,25.4V133.5c0,14.1,-11.4,25.5,-25.4,25.5H1059.8c-14.1,0,-25.4,-11.4,-25.4,-25.5Z" class="g6_1" />
<g clip-path="url(#c0_1)">
<g fill="#000000" >
<use xlink:href="#f0_2g" transform="matrix(21,0,0,21,1095.1,74.2)" />
<use xlink:href="#f0_am" transform="matrix(21,0,0,21,1111,74.2)" />
<use xlink:href="#f0_b5" transform="matrix(21,0,0,21,1128,74.2)" />
<use xlink:href="#f0_9q" transform="matrix(21,0,0,21,1140.4,74.2)" />
<use xlink:href="#f0_bf" transform="matrix(21,0,0,21,1147.8,74.2)" />
<use xlink:href="#f0_9q" transform="matrix(21,0,0,21,1158.5,74.2)" />
<use xlink:href="#f0_am" transform="matrix(21,0,0,21,1165.9,74.2)" />
<use xlink:href="#f0_af" transform="matrix(21,0,0,21,1182.7,74.2)" />
<use xlink:href="#f0_2n" transform="matrix(21,0,0,21,1087.7,112.8)" />
</g>
</g>
<text x="1095" y="74" dx="0,-0.6,0,-0.2,0,0,0,-0.1,0" class="s1_1">Position </text>
<g clip-path="url(#c0_1)">
<g fill="#000000" >
<use xlink:href="#f0_77" transform="matrix(21,0,0,21,1102.5,112.8)" />
<use xlink:href="#f0_ae" transform="matrix(21,0,0,21,1117.8,112.8)" />
<use xlink:href="#f0_ay" transform="matrix(21,0,0,21,1143.5,112.8)" />
<use xlink:href="#f0_a8" transform="matrix(21,0,0,21,1160.3,112.8)" />
<use xlink:href="#f0_9q" transform="matrix(21,0,0,21,1167.7,112.8)" />
<use xlink:href="#f0_af" transform="matrix(21,0,0,21,1175.1,112.8)" />
<use xlink:href="#f0_9d" transform="matrix(21,0,0,21,1191.9,112.8)" />
</g>
</g>
<text x="1087" y="112" class="s2_1">Sampling</text>
<path d="M1363.3,31.8c0,-14,11.3,-25.4,25.4,-25.4h175.4c14,0,25.4,11.4,25.4,25.4V133.5c0,14.1,-11.4,25.5,-25.4,25.5H1388.7c-14.1,0,-25.4,-11.4,-25.4,-25.5Z" class="g6_1" />
<g clip-path="url(#c0_1)">
<g fill="#000000" >
<use xlink:href="#f0_1c" transform="matrix(21,0,0,21,1410.2,93.4)" />
<use xlink:href="#f0_af" transform="matrix(21,0,0,21,1418.3,93.4)" />
<use xlink:href="#f0_b5" transform="matrix(21,0,0,21,1435.2,93.4)" />
<use xlink:href="#f0_bf" transform="matrix(21,0,0,21,1447.3,93.4)" />
<use xlink:href="#f0_77" transform="matrix(21,0,0,21,1457.7,93.4)" />
<use xlink:href="#f0_af" transform="matrix(21,0,0,21,1473.1,93.4)" />
<use xlink:href="#f0_7l" transform="matrix(21,0,0,21,1490,93.4)" />
<use xlink:href="#f0_9q" transform="matrix(21,0,0,21,1503.5,93.4)" />
<use xlink:href="#f0_af" transform="matrix(21,0,0,21,1510.9,93.4)" />
<use xlink:href="#f0_9d" transform="matrix(21,0,0,21,1527.8,93.4)" />
</g>
</g>
<text x="1410" y="93" dx="0,0,0,-0.5,-0.3,0,0,0,0,0" class="s1_1">Instancing</text>
<path d="M1692.3,31.8c0,-14,11.4,-25.4,25.5,-25.4H1893c14,0,25.4,11.4,25.4,25.4V133.5c0,14.1,-11.4,25.5,-25.4,25.5H1717.8c-14.1,0,-25.5,-11.4,-25.5,-25.5Z" class="g6_1" />
<g clip-path="url(#c0_1)">
<g fill="#000000" >
<use xlink:href="#f0_5" transform="matrix(21,0,0,21,1719.1,93.4)" />
<use xlink:href="#f0_ae" transform="matrix(21,0,0,21,1737.7,93.4)" />
<use xlink:href="#f0_ay" transform="matrix(21,0,0,21,1763.4,93.4)" />
<use xlink:href="#f0_a8" transform="matrix(21,0,0,21,1780.3,93.4)" />
<use xlink:href="#f0_9q" transform="matrix(21,0,0,21,1787.5,93.4)" />
<use xlink:href="#f0_89" transform="matrix(21,0,0,21,1794.9,93.4)" />
<use xlink:href="#f0_9q" transform="matrix(21,0,0,21,1804.6,93.4)" />
<use xlink:href="#f0_7l" transform="matrix(21,0,0,21,1812,93.4)" />
<use xlink:href="#f0_77" transform="matrix(21,0,0,21,1825.3,93.4)" />
<use xlink:href="#f0_bf" transform="matrix(21,0,0,21,1840.3,93.4)" />
<use xlink:href="#f0_9q" transform="matrix(21,0,0,21,1851.1,93.4)" />
<use xlink:href="#f0_am" transform="matrix(21,0,0,21,1858.3,93.4)" />
<use xlink:href="#f0_af" transform="matrix(21,0,0,21,1875.2,93.4)" />
</g>
</g>
<text x="1719" y="93" dx="0,0,0,0,-0.1,0,-0.1,0,-0.3,-0.4,0,-0.2,0" class="s1_1">Amplification</text>
<path d="M273.3,84h95.3V81.6H273.3Zm93.8,3.4l9.1,-4.6l-9.1,-4.6Z" class="g7_1" />
<path d="M602.3,84h95.4V81.6H602.3Zm93.9,3.4l9.1,-4.6l-9.1,-4.6Z" class="g7_1" />
<path d="M931.4,84h95.4V81.6H931.4Zm93.8,3.4l9.2,-4.6l-9.2,-4.6Z" class="g7_1" />
<path d="M1260.5,84h95.4V81.6h-95.4Zm93.8,3.4l9.2,-4.6l-9.2,-4.6Z" class="g7_1" />
<path d="M1589.6,84h95.3V81.6h-95.3Zm93.8,3.4l9.2,-4.6l-9.2,-4.6Z" class="g7_1" />
<path fill-rule="evenodd" d="M121.5,235.2h69V173.6h-69v61.6Z" class="g8_1" />
<path d="M121.5,235.2h69V173.6h-69v61.6Z" class="g6_1" />
<path fill-rule="evenodd" d="M108.7,244.8h68.9V183.2H108.7v61.6Z" class="g8_1" />
<path d="M108.7,244.8h68.9V183.2H108.7v61.6Z" class="g6_1" />
<path fill-rule="evenodd" d="M96.8,256.7h69.1V195.3H96.8v61.4Z" class="g8_1" />
<path d="M96.8,256.7h69.1V195.3H96.8v61.4Z" class="g6_1" />
<path fill-rule="evenodd" d="M361.9,283.6H477.6V171.1H361.9V283.6Z" class="g8_1" />
<path d="M361.9,283.6H477.6V171.1H361.9V283.6Z" class="g6_1" />
<path fill-rule="evenodd" d="M493.7,283.6H609.4V171.1H493.7V283.6Z" class="g8_1" />
<path d="M493.7,283.6H609.4V171.1H493.7V283.6Z" class="g6_1" />
<path fill-rule="evenodd" d="M396.6,236.3L395.1,192l53.2,10.5L455,243l-17.2,10.6l-24,7.5L396.6,236.3Z" class="g9_1" />
<path d="M396.6,236.3L395.1,192l53.2,10.5L455,243l-17.2,10.6l-24,7.5L396.6,236.3Z" class="g10_1" />
<g clip-path="url(#c1_1)">
<path fill-rule="evenodd" d="M541.1,196.3l44.1,3.9l-16.9,51.6l-41,1.7l-8.4,-18.4l-4.5,-24.7l26.7,-14.1Z" class="g9_1" />
<path d="M541.1,196.3l44.1,3.9l-16.9,51.6l-41,1.7l-8.4,-18.4l-4.5,-24.7l26.7,-14.1Z" class="g11_1" />
</g>
<g clip-path="url(#c0_1)">
<g fill="#000000" >
<use xlink:href="#f0_j" transform="matrix(13.1,0,0,13.1,355.6,308.5)" />
<use xlink:href="#f0_c6" transform="matrix(13.1,0,0,13.1,366.2,308.5)" />
<use xlink:href="#f0_ae" transform="matrix(13.1,0,0,13.1,376.7,308.5)" />
<use xlink:href="#f0_c6" transform="matrix(13.1,0,0,13.1,392.6,308.5)" />
<use xlink:href="#f0_a8" transform="matrix(13.1,0,0,13.1,403.1,308.5)" />
<use xlink:href="#f0_c6" transform="matrix(13.1,0,0,13.1,407.7,308.5)" />
<use xlink:href="#f0_b5" transform="matrix(13.1,0,0,13.1,418.1,308.5)" />
<use xlink:href="#f0_1r" transform="matrix(13.1,0,0,13.1,430.7,308.5)" />
<use xlink:href="#f0_77" transform="matrix(13.1,0,0,13.1,439.1,308.5)" />
<use xlink:href="#f0_co" transform="matrix(13.1,0,0,13.1,448.3,308.5)" />
<use xlink:href="#f0_7z" transform="matrix(13.1,0,0,13.1,457.1,308.5)" />
<use xlink:href="#f0_b1" transform="matrix(13.1,0,0,13.1,467,308.5)" />
<use xlink:href="#f0_2n" transform="matrix(13.1,0,0,13.1,499.6,307.9)" />
<use xlink:href="#f0_bf" transform="matrix(13.1,0,0,13.1,508.7,307.9)" />
<use xlink:href="#f0_b1" transform="matrix(13.1,0,0,13.1,515.5,307.9)" />
<use xlink:href="#f0_77" transform="matrix(13.1,0,0,13.1,522.1,307.9)" />
<use xlink:href="#f0_bf" transform="matrix(13.1,0,0,13.1,531.4,307.9)" />
<use xlink:href="#f0_c6" transform="matrix(13.1,0,0,13.1,538.2,307.9)" />
<use xlink:href="#f0_b5" transform="matrix(13.1,0,0,13.1,548.7,307.9)" />
<use xlink:href="#f0_1r" transform="matrix(13.1,0,0,13.1,560.9,307.9)" />
<use xlink:href="#f0_77" transform="matrix(13.1,0,0,13.1,569.3,307.9)" />
<use xlink:href="#f0_co" transform="matrix(13.1,0,0,13.1,578.5,307.9)" />
<use xlink:href="#f0_7z" transform="matrix(13.1,0,0,13.1,587.3,307.9)" />
<use xlink:href="#f0_b1" transform="matrix(13.1,0,0,13.1,597.3,307.9)" />
</g>
</g>
<text x="355" y="308" dx="0,0,0,-0.1,0,0,-0.1,0,0.2,0,-0.4,-0.3,0" class="s3_1">Cumulus Layer</text>
<text x="499" y="307" dx="0,0,0.1,-0.4,-0.2,0.1,0,0,-0.1,0,-0.4,-0.3,0" class="s3_1">Stratus Layer</text>
<path fill-rule="evenodd" d="M1025.8,282.2h115.5V169.8H1025.8V282.2Z" class="g8_1" />
<path d="M1025.8,282.2h115.5V169.8H1025.8V282.2Z" class="g6_1" />
<path fill-rule="evenodd" d="M1157.6,282.2h115.5V169.8H1157.6V282.2Z" class="g8_1" />
<path d="M1157.6,282.2h115.5V169.8H1157.6V282.2Z" class="g6_1" />
<path fill-rule="evenodd" d="M1060.2,235l-1.4,-44.3l53.2,10.5l6.7,40.6l-17.2,10.5l-24,7.5L1060.2,235Z" class="g9_1" />
<path d="M1060.2,235l-1.4,-44.3l53.2,10.5l6.7,40.6l-17.2,10.5l-24,7.5L1060.2,235Z" class="g10_1" />
<g clip-path="url(#c1_1)">
<path fill-rule="evenodd" d="M1204.9,195l44.1,3.9l-17,51.6l-41,1.7l-8.3,-18.4l-4.5,-24.7L1204.9,195Z" class="g9_1" />
<path d="M1204.9,195l44.1,3.9l-17,51.6l-41,1.7l-8.3,-18.4l-4.5,-24.7L1204.9,195Z" class="g11_1" />
</g>
<g clip-path="url(#c0_1)">
<g fill="#000000" >
<use xlink:href="#f0_j" transform="matrix(13.1,0,0,13.1,1019.4,307.2)" />
<use xlink:href="#f0_c6" transform="matrix(13.1,0,0,13.1,1030,307.2)" />
<use xlink:href="#f0_ae" transform="matrix(13.1,0,0,13.1,1040.4,307.2)" />
<use xlink:href="#f0_c6" transform="matrix(13.1,0,0,13.1,1056.4,307.2)" />
<use xlink:href="#f0_a8" transform="matrix(13.1,0,0,13.1,1066.9,307.2)" />
<use xlink:href="#f0_c6" transform="matrix(13.1,0,0,13.1,1071.5,307.2)" />
<use xlink:href="#f0_b5" transform="matrix(13.1,0,0,13.1,1081.9,307.2)" />
<use xlink:href="#f0_1r" transform="matrix(13.1,0,0,13.1,1094.5,307.2)" />
<use xlink:href="#f0_77" transform="matrix(13.1,0,0,13.1,1102.9,307.2)" />
<use xlink:href="#f0_co" transform="matrix(13.1,0,0,13.1,1112.1,307.2)" />
<use xlink:href="#f0_7z" transform="matrix(13.1,0,0,13.1,1120.9,307.2)" />
<use xlink:href="#f0_b1" transform="matrix(13.1,0,0,13.1,1130.8,307.2)" />
<use xlink:href="#f0_2n" transform="matrix(13.1,0,0,13.1,1163.4,306.6)" />
</g>
</g>
<text x="1019" y="307" dx="0,0,-0.1,0,-0.1,0,-0.1,0,0.3,0,-0.4,-0.3,-0.1" class="s4_1">Cumulus Layer</text>
<g clip-path="url(#c0_1)">
<g fill="#000000" >
<use xlink:href="#f0_bf" transform="matrix(13.1,0,0,13.1,1172.5,306.6)" />
<use xlink:href="#f0_b1" transform="matrix(13.1,0,0,13.1,1179.3,306.6)" />
<use xlink:href="#f0_77" transform="matrix(13.1,0,0,13.1,1185.9,306.6)" />
<use xlink:href="#f0_bf" transform="matrix(13.1,0,0,13.1,1195.2,306.6)" />
<use xlink:href="#f0_c6" transform="matrix(13.1,0,0,13.1,1202,306.6)" />
<use xlink:href="#f0_b5" transform="matrix(13.1,0,0,13.1,1212.5,306.6)" />
<use xlink:href="#f0_1r" transform="matrix(13.1,0,0,13.1,1224.7,306.6)" />
<use xlink:href="#f0_77" transform="matrix(13.1,0,0,13.1,1233.1,306.6)" />
<use xlink:href="#f0_co" transform="matrix(13.1,0,0,13.1,1242.3,306.6)" />
<use xlink:href="#f0_7z" transform="matrix(13.1,0,0,13.1,1251.1,306.6)" />
<use xlink:href="#f0_b1" transform="matrix(13.1,0,0,13.1,1261.1,306.6)" />
</g>
</g>
<text x="1163" y="306" dx="0,0,0.1,-0.4,-0.2,0.1,0,0,-0.1,0,-0.4,-0.3,0" class="s3_1">Stratus Layer</text>
<path fill-rule="evenodd" d="M1063.3,249.3c0,-2.3,1.9,-4.2,4.3,-4.2c2.3,0,4.2,1.9,4.2,4.2c0,2.4,-1.9,4.3,-4.2,4.3c-2.4,0,-4.3,-1.9,-4.3,-4.3Z" class="g12_1" />
<path d="M1063.3,249.3c0,-2.3,1.9,-4.2,4.3,-4.2c2.3,0,4.2,1.9,4.2,4.2c0,2.4,-1.9,4.3,-4.2,4.3c-2.4,0,-4.3,-1.9,-4.3,-4.3Z" class="g13_1" />
<path fill-rule="evenodd" d="M1082.6,206.3c0,-2.3,1.9,-4.3,4.2,-4.3c2.3,0,4.2,2,4.2,4.3c0,2.4,-1.9,4.4,-4.2,4.4c-2.3,0,-4.2,-2,-4.2,-4.4Z" class="g12_1" />
<path d="M1082.6,206.3c0,-2.3,1.9,-4.3,4.2,-4.3c2.3,0,4.2,2,4.2,4.3c0,2.4,-1.9,4.4,-4.2,4.4c-2.3,0,-4.2,-2,-4.2,-4.4Z" class="g13_1" />
<path fill-rule="evenodd" d="M1067.6,224.5c0,-2.4,1.8,-4.3,4.2,-4.3c2.3,0,4.2,1.9,4.2,4.3c0,2.4,-1.9,4.3,-4.2,4.3c-2.4,0,-4.2,-1.9,-4.2,-4.3Z" class="g12_1" />
<path d="M1067.6,224.5c0,-2.4,1.8,-4.3,4.2,-4.3c2.3,0,4.2,1.9,4.2,4.3c0,2.4,-1.9,4.3,-4.2,4.3c-2.4,0,-4.2,-1.9,-4.2,-4.3Z" class="g13_1" />
<path fill-rule="evenodd" d="M1076,242.6c0,-2.3,1.9,-4.3,4.3,-4.3c2.4,0,4.3,2,4.3,4.3c0,2.4,-1.9,4.4,-4.3,4.4c-2.4,0,-4.3,-2,-4.3,-4.4Z" class="g12_1" />
<path d="M1076,242.6c0,-2.3,1.9,-4.3,4.3,-4.3c2.4,0,4.3,2,4.3,4.3c0,2.4,-1.9,4.4,-4.3,4.4c-2.4,0,-4.3,-2,-4.3,-4.4Z" class="g13_1" />
<path fill-rule="evenodd" d="M1091,228.7c0,-2.4,1.9,-4.3,4.2,-4.3c2.4,0,4.3,1.9,4.3,4.3c0,2.4,-1.9,4.3,-4.3,4.3c-2.3,0,-4.2,-1.9,-4.2,-4.3Z" class="g12_1" />
<path d="M1091,228.7c0,-2.4,1.9,-4.3,4.2,-4.3c2.4,0,4.3,1.9,4.3,4.3c0,2.4,-1.9,4.3,-4.3,4.3c-2.3,0,-4.2,-1.9,-4.2,-4.3Z" class="g13_1" />
<path fill-rule="evenodd" d="M1096.5,242.6c0,-2.3,1.9,-4.3,4.2,-4.3c2.4,0,4.2,2,4.2,4.3c0,2.4,-1.8,4.4,-4.2,4.4c-2.3,0,-4.2,-2,-4.2,-4.4Z" class="g12_1" />
<path d="M1096.5,242.6c0,-2.3,1.9,-4.3,4.2,-4.3c2.4,0,4.2,2,4.2,4.3c0,2.4,-1.8,4.4,-4.2,4.4c-2.3,0,-4.2,-2,-4.2,-4.4Z" class="g13_1" />
<path fill-rule="evenodd" d="M1101.8,214c0,-2.3,1.9,-4.3,4.3,-4.3c2.3,0,4.2,2,4.2,4.3c0,2.4,-1.9,4.3,-4.2,4.3c-2.4,0,-4.3,-1.9,-4.3,-4.3Z" class="g12_1" />
<path d="M1101.8,214c0,-2.3,1.9,-4.3,4.3,-4.3c2.3,0,4.2,2,4.2,4.3c0,2.4,-1.9,4.3,-4.2,4.3c-2.4,0,-4.3,-1.9,-4.3,-4.3Z" class="g13_1" />
<path fill-rule="evenodd" d="M1188,214c0,-2.3,1.9,-4.3,4.3,-4.3c2.4,0,4.3,2,4.3,4.3c0,2.4,-1.9,4.3,-4.3,4.3c-2.4,0,-4.3,-1.9,-4.3,-4.3Z" class="g12_1" />
<path d="M1188,214c0,-2.3,1.9,-4.3,4.3,-4.3c2.4,0,4.3,2,4.3,4.3c0,2.4,-1.9,4.3,-4.3,4.3c-2.4,0,-4.3,-1.9,-4.3,-4.3Z" class="g13_1" />
<path fill-rule="evenodd" d="M1189.1,229.1c0,-2.4,1.9,-4.3,4.2,-4.3c2.3,0,4.2,1.9,4.2,4.3c0,2.4,-1.9,4.3,-4.2,4.3c-2.3,0,-4.2,-1.9,-4.2,-4.3Z" class="g12_1" />
<path d="M1189.1,229.1c0,-2.4,1.9,-4.3,4.2,-4.3c2.3,0,4.2,1.9,4.2,4.3c0,2.4,-1.9,4.3,-4.2,4.3c-2.3,0,-4.2,-1.9,-4.2,-4.3Z" class="g13_1" />
<path fill-rule="evenodd" d="M1205.8,217.7c0,-2.4,1.9,-4.3,4.2,-4.3c2.3,0,4.2,1.9,4.2,4.3c0,2.4,-1.9,4.3,-4.2,4.3c-2.3,0,-4.2,-1.9,-4.2,-4.3Z" class="g12_1" />
<path d="M1205.8,217.7c0,-2.4,1.9,-4.3,4.2,-4.3c2.3,0,4.2,1.9,4.2,4.3c0,2.4,-1.9,4.3,-4.2,4.3c-2.3,0,-4.2,-1.9,-4.2,-4.3Z" class="g13_1" />
<path fill-rule="evenodd" d="M1215.7,235.8c0,-2.4,1.9,-4.3,4.3,-4.3c2.4,0,4.3,1.9,4.3,4.3c0,2.3,-1.9,4.2,-4.3,4.2c-2.4,0,-4.3,-1.9,-4.3,-4.2Z" class="g12_1" />
<path d="M1215.7,235.8c0,-2.4,1.9,-4.3,4.3,-4.3c2.4,0,4.3,1.9,4.3,4.3c0,2.3,-1.9,4.2,-4.3,4.2c-2.4,0,-4.3,-1.9,-4.3,-4.2Z" class="g13_1" />
<path fill-rule="evenodd" d="M1204.5,248.4c0,-2.3,1.9,-4.2,4.2,-4.2c2.3,0,4.2,1.9,4.2,4.2c0,2.3,-1.9,4.2,-4.2,4.2c-2.3,0,-4.2,-1.9,-4.2,-4.2Z" class="g12_1" />
<path d="M1204.5,248.4c0,-2.3,1.9,-4.2,4.2,-4.2c2.3,0,4.2,1.9,4.2,4.2c0,2.3,-1.9,4.2,-4.2,4.2c-2.3,0,-4.2,-1.9,-4.2,-4.2Z" class="g13_1" />
<path fill-rule="evenodd" d="M1200.1,244.3c0,-2.4,1.9,-4.3,4.3,-4.3c2.4,0,4.3,1.9,4.3,4.3c0,2.4,-1.9,4.3,-4.3,4.3c-2.4,0,-4.3,-1.9,-4.3,-4.3Z" class="g12_1" />
<path d="M1200.1,244.3c0,-2.4,1.9,-4.3,4.3,-4.3c2.4,0,4.3,1.9,4.3,4.3c0,2.4,-1.9,4.3,-4.3,4.3c-2.4,0,-4.3,-1.9,-4.3,-4.3Z" class="g13_1" />
<path fill-rule="evenodd" d="M1229.2,207.1c0,-2.4,1.9,-4.3,4.3,-4.3c2.3,0,4.2,1.9,4.2,4.3c0,2.4,-1.9,4.3,-4.2,4.3c-2.4,0,-4.3,-1.9,-4.3,-4.3Z" class="g12_1" />
<path d="M1229.2,207.1c0,-2.4,1.9,-4.3,4.3,-4.3c2.3,0,4.2,1.9,4.2,4.3c0,2.4,-1.9,4.3,-4.2,4.3c-2.4,0,-4.3,-1.9,-4.3,-4.3Z" class="g13_1" />
<path fill-rule="evenodd" d="M1227,224.5c0,-2.4,1.9,-4.3,4.3,-4.3c2.3,0,4.2,1.9,4.2,4.3c0,2.4,-1.9,4.3,-4.2,4.3c-2.4,0,-4.3,-1.9,-4.3,-4.3Z" class="g12_1" />
<path d="M1227,224.5c0,-2.4,1.9,-4.3,4.3,-4.3c2.3,0,4.2,1.9,4.2,4.3c0,2.4,-1.9,4.3,-4.2,4.3c-2.4,0,-4.3,-1.9,-4.3,-4.3Z" class="g13_1" />
<path fill-rule="evenodd" d="M1358.4,383.4c-.6,-4.9,2.6,-9.4,7.2,-10.1c1.9,-.2,3.8,.2,5.4,1.2c1.8,-3.5,5.8,-4.8,9,-2.9c.6,.3,1.1,.7,1.6,1.2c1.3,-2.9,4.6,-4.1,7.3,-2.6c.7,.4,1.4,.9,1.9,1.6c2.1,-2.7,6,-3,8.5,-.7c1.1,1,1.8,2.3,2.1,3.8c3.5,1,5.6,4.9,4.6,8.7c0,.3,-.2,.6,-.3,.9c2.9,3.9,2.2,9.6,-1.5,12.6c-1.2,1,-2.5,1.6,-4,1.8c0,4.2,-3.3,7.6,-7.3,7.6c-1.3,0,-2.6,-.4,-3.7,-1.1c-1.4,4.7,-6.1,7.4,-10.5,6c-1.9,-.7,-3.5,-1.9,-4.6,-3.7c-4.6,3,-10.5,1.4,-13.2,-3.5c0,0,-.1,-.1,-.1,-.2c-3,.4,-5.7,-1.9,-6,-5c-.2,-1.7,.3,-3.4,1.4,-4.6c-2.6,-1.7,-3.5,-5.2,-1.9,-8c.8,-1.6,2.4,-2.6,4.1,-2.8Z" class="g4_1" />
<path d="M1358.4,383.4c-.6,-4.9,2.6,-9.4,7.2,-10.1c1.9,-.2,3.8,.2,5.4,1.2c1.8,-3.5,5.8,-4.8,9,-2.9c.6,.3,1.1,.7,1.6,1.2c1.3,-2.9,4.6,-4.1,7.3,-2.6c.7,.4,1.4,.9,1.9,1.6c2.1,-2.7,6,-3,8.5,-.7c1.1,1,1.8,2.3,2.1,3.8c3.5,1,5.6,4.9,4.6,8.7c0,.3,-.2,.6,-.3,.9c2.9,3.9,2.2,9.6,-1.5,12.6c-1.2,1,-2.5,1.6,-4,1.8c0,4.2,-3.3,7.6,-7.3,7.6c-1.3,0,-2.6,-.4,-3.7,-1.1c-1.4,4.7,-6.1,7.4,-10.5,6c-1.9,-.7,-3.5,-1.9,-4.6,-3.7c-4.6,3,-10.5,1.4,-13.2,-3.5c0,0,-.1,-.1,-.1,-.2c-3,.4,-5.7,-1.9,-6,-5c-.2,-1.7,.3,-3.4,1.4,-4.6c-2.6,-1.7,-3.5,-5.2,-1.9,-8c.8,-1.6,2.4,-2.6,4.1,-2.8Zm1,11.6c-1.1,.1,-2.2,-.2,-3.2,-.8m6,9.3c-.4,.2,-.9,.3,-1.4,.4m13.3,3.7c-.3,-.6,-.6,-1.1,-.8,-1.7m16.2,-2.6c0,.7,-.1,1.3,-.3,1.9m6.9,-13.4c2.5,1.3,4.1,4,4.1,7m5.5,-14.4c-.4,1,-1,1.9,-1.8,2.6m-2.5,-12.3c0,.4,.1,.8,.1,1.2m-11.7,-2.6c.3,-.6,.6,-1.1,1,-1.6m-9.6,2.3c.1,-.4,.2,-.9,.4,-1.3m-10.6,1.8c.6,.4,1.2,.8,1.6,1.3m-13.9,9c-.1,-.4,-.2,-.9,-.3,-1.4" class="g5_1" />
<path fill-rule="evenodd" d="M1417.1,349.1c-.4,-3.5,1.8,-6.8,4.9,-7.3c1.2,-.2,2.5,.1,3.6,.8c1.1,-2.4,3.8,-3.4,6,-2.1c.4,.3,.7,.6,1,.9c.9,-2.1,3.1,-2.9,4.9,-1.9c.5,.3,1,.7,1.3,1.2c1.5,-1.9,4,-2.2,5.7,-.5c.7,.7,1.2,1.6,1.4,2.7c2.4,.8,3.8,3.6,3.1,6.3c0,.2,-.1,.5,-.2,.7c1.9,2.8,1.5,6.9,-1,9.1c-.8,.7,-1.7,1.1,-2.7,1.3c0,3,-2.2,5.5,-4.8,5.5c-.9,0,-1.8,-.3,-2.6,-.9c-.9,3.4,-4,5.4,-7,4.3c-1.2,-.4,-2.3,-1.3,-3.1,-2.6c-3,2.2,-7,1,-8.8,-2.5c0,0,-.1,-.1,-.1,-.1c-2,.2,-3.8,-1.4,-4,-3.7c-.1,-1.2,.2,-2.4,.9,-3.3c-1.7,-1.2,-2.3,-3.8,-1.3,-5.7c.6,-1.2,1.6,-2,2.8,-2.1Z" class="g4_1" />
<path d="M1417.1,349.1c-.4,-3.5,1.8,-6.8,4.9,-7.3c1.2,-.2,2.5,.1,3.6,.8c1.1,-2.4,3.8,-3.4,6,-2.1c.4,.3,.7,.6,1,.9c.9,-2.1,3.1,-2.9,4.9,-1.9c.5,.3,1,.7,1.3,1.2c1.5,-1.9,4,-2.2,5.7,-.5c.7,.7,1.2,1.6,1.4,2.7c2.4,.8,3.8,3.6,3.1,6.3c0,.2,-.1,.5,-.2,.7c1.9,2.8,1.5,6.9,-1,9.1c-.8,.7,-1.7,1.1,-2.7,1.3c0,3,-2.2,5.5,-4.8,5.5c-.9,0,-1.8,-.3,-2.6,-.9c-.9,3.4,-4,5.4,-7,4.3c-1.2,-.4,-2.3,-1.3,-3.1,-2.6c-3,2.2,-7,1,-8.8,-2.5c0,0,-.1,-.1,-.1,-.1c-2,.2,-3.8,-1.4,-4,-3.7c-.1,-1.2,.2,-2.4,.9,-3.3c-1.7,-1.2,-2.3,-3.8,-1.3,-5.7c.6,-1.2,1.6,-2,2.8,-2.1Zm.7,8.3c-.8,.1,-1.5,-.1,-2.1,-.5m4,6.7c-.3,.1,-.7,.2,-1,.2m8.9,2.7c-.2,-.4,-.4,-.8,-.5,-1.2m10.9,-1.8c-.1,.4,-.1,.9,-.3,1.3m4.7,-9.6c1.7,.9,2.7,2.8,2.7,5m3.7,-10.4c-.3,.7,-.7,1.4,-1.2,1.9m-1.7,-8.9c.1,.3,.1,.6,.1,.9m-7.8,-1.9c.1,-.4,.3,-.8,.6,-1.2m-6.4,1.7c0,-.3,.1,-.7,.3,-1m-7.1,1.3c.4,.3,.7,.6,1.1,1m-9.4,6.5c-.1,-.3,-.1,-.7,-.2,-1" class="g5_1" />
<path fill-rule="evenodd" d="M1417.3,392.9c-.4,-3.5,1.8,-6.8,4.8,-7.3c1.3,-.2,2.6,.1,3.7,.9c1.1,-2.5,3.8,-3.5,6,-2.2c.4,.3,.7,.6,1,.9c.9,-2.1,3.1,-2.9,4.9,-1.9c.5,.3,.9,.7,1.3,1.2c1.4,-1.9,4,-2.2,5.7,-.5c.7,.7,1.2,1.7,1.4,2.7c2.4,.8,3.8,3.6,3.1,6.3c0,.2,-.1,.5,-.2,.7c1.9,2.8,1.5,6.9,-1,9.1c-.8,.7,-1.7,1.1,-2.7,1.3c0,3,-2.2,5.5,-4.8,5.5c-1,0,-1.8,-.3,-2.6,-.9c-.9,3.5,-4,5.4,-7,4.4c-1.3,-.5,-2.4,-1.4,-3.1,-2.6c-3,2.1,-7,.9,-8.8,-2.6c0,0,-.1,-.1,-.1,-.1c-2,.3,-3.8,-1.4,-4,-3.7c-.2,-1.2,.2,-2.4,.9,-3.3c-1.7,-1.2,-2.3,-3.7,-1.3,-5.7c.6,-1.2,1.6,-1.9,2.8,-2.1Z" class="g4_1" />
<path d="M1417.3,392.9c-.4,-3.5,1.8,-6.8,4.8,-7.3c1.3,-.2,2.6,.1,3.7,.9c1.1,-2.5,3.8,-3.5,6,-2.2c.4,.3,.7,.6,1,.9c.9,-2.1,3.1,-2.9,4.9,-1.9c.5,.3,.9,.7,1.3,1.2c1.4,-1.9,4,-2.2,5.7,-.5c.7,.7,1.2,1.7,1.4,2.7c2.4,.8,3.8,3.6,3.1,6.3c0,.2,-.1,.5,-.2,.7c1.9,2.8,1.5,6.9,-1,9.1c-.8,.7,-1.7,1.1,-2.7,1.3c0,3,-2.2,5.5,-4.8,5.5c-1,0,-1.8,-.3,-2.6,-.9c-.9,3.5,-4,5.4,-7,4.4c-1.3,-.5,-2.4,-1.4,-3.1,-2.6c-3,2.1,-7,.9,-8.8,-2.6c0,0,-.1,-.1,-.1,-.1c-2,.3,-3.8,-1.4,-4,-3.7c-.2,-1.2,.2,-2.4,.9,-3.3c-1.7,-1.2,-2.3,-3.7,-1.3,-5.7c.6,-1.2,1.6,-1.9,2.8,-2.1Zm.7,8.3c-.8,.1,-1.5,-.1,-2.1,-.5m3.9,6.7c-.3,.1,-.6,.2,-.9,.3m8.9,2.6c-.2,-.3,-.4,-.8,-.5,-1.2m10.8,-1.8c0,.4,-.1,.9,-.2,1.3m4.7,-9.6c1.7,.9,2.7,2.9,2.7,5m3.7,-10.4c-.3,.7,-.7,1.4,-1.2,1.9m-1.7,-8.9c0,.3,.1,.6,0,.9m-7.7,-1.9c.1,-.4,.3,-.8,.6,-1.2m-6.4,1.7c0,-.3,.1,-.6,.3,-1m-7.1,1.4c.3,.2,.7,.5,1,.9m-9.3,6.5c-.1,-.3,-.2,-.6,-.2,-1" class="g5_1" />
<g clip-path="url(#c0_1)">
<g fill="#000000" >
<use xlink:href="#f0_j" transform="matrix(13.1,0,0,13.1,1338.1,260)" />
<use xlink:href="#f0_a8" transform="matrix(13.1,0,0,13.1,1348.8,260)" />
<use xlink:href="#f0_am" transform="matrix(13.1,0,0,13.1,1353.4,260)" />
<use xlink:href="#f0_c6" transform="matrix(13.1,0,0,13.1,1363.8,260)" />
<use xlink:href="#f0_7v" transform="matrix(13.1,0,0,13.1,1374.3,260)" />
<use xlink:href="#f0_p" transform="matrix(13.1,0,0,13.1,1389.5,260)" />
<use xlink:href="#f0_77" transform="matrix(13.1,0,0,13.1,1401.8,260)" />
<use xlink:href="#f0_bf" transform="matrix(13.1,0,0,13.1,1411.1,260)" />
<use xlink:href="#f0_77" transform="matrix(13.1,0,0,13.1,1417.7,260)" />
<use xlink:href="#f0_7k" transform="matrix(13.1,0,0,13.1,1427.3,260)" />
<use xlink:href="#f0_77" transform="matrix(13.1,0,0,13.1,1437.7,260)" />
<use xlink:href="#f0_b5" transform="matrix(13.1,0,0,13.1,1447.3,260)" />
<use xlink:href="#f0_7z" transform="matrix(13.1,0,0,13.1,1455.1,260)" />
</g>
</g>
<text x="1338" y="259" dx="0,0,0,-0.1,0,-0.1,0.3,0,-0.2,-0.1,0,-0.1,0,0" class="s3_1">Cloud Database</text>
<path d="M1583.4,357c0,-10.1,8.2,-18.2,18.2,-18.2c10,0,18.1,8.1,18.1,18.2c0,10,-8.1,18.1,-18.1,18.1c-10,0,-18.2,-8.1,-18.2,-18.1Zm12.7,18.1c0,-10,8.1,-18.1,18.1,-18.1c10.1,0,18.2,8.1,18.2,18.1c0,10,-8.1,18.2,-18.2,18.2c-10,0,-18.1,-8.2,-18.1,-18.2Zm20,-24.9c0,-10.1,8.1,-18.2,18.1,-18.2c10.1,0,18.2,8.1,18.2,18.2c0,10,-8.1,18.1,-18.2,18.1c-10,0,-18.1,-8.1,-18.1,-18.1Zm1.8,29.5c0,-10,8.1,-18.2,18.2,-18.2c10,0,18.1,8.2,18.1,18.2c0,10,-8.1,18.1,-18.1,18.1c-10.1,0,-18.2,-8.1,-18.2,-18.1Zm21.7,-15c0,-10.1,8.1,-18.2,18.1,-18.2c10,0,18.2,8.1,18.2,18.2c0,10,-8.2,18.1,-18.2,18.1c-10,0,-18.1,-8.1,-18.1,-18.1Zm8.9,-24.5c0,-10.1,8.2,-18.3,18.2,-18.3c10,0,18.1,8.2,18.1,18.3c0,10,-8.1,18.2,-18.1,18.2c-10,0,-18.2,-8.2,-18.2,-18.2Zm0,48.5c0,-10.1,8.2,-18.2,18.2,-18.2c10,0,18.1,8.1,18.1,18.2c0,10,-8.1,18.1,-18.1,18.1c-10,0,-18.2,-8.1,-18.2,-18.1Zm-26.9,15.5c0,-10.1,8.1,-18.3,18,-18.3c10,0,18.1,8.2,18.1,18.3c0,10,-8.1,18.2,-18.1,18.2c-9.9,0,-18,-8.2,-18,-18.2Zm42.9,-35.1c0,-10,8.1,-18.2,18.1,-18.2c10.1,0,18.2,8.2,18.2,18.2c0,10.1,-8.1,18.3,-18.2,18.3c-10,0,-18.1,-8.2,-18.1,-18.3Zm-78.7,24c0,-10.1,8.2,-18.2,18.2,-18.2c10,0,18.1,8.1,18.1,18.2c0,10,-8.1,18.1,-18.1,18.1c-10,0,-18.2,-8.1,-18.2,-18.1Z" class="g6_1" />
<g clip-path="url(#c0_1)">
<g fill="#000000" >
<use xlink:href="#f0_2g" transform="matrix(13.1,0,0,13.1,1504.1,262.4)" />
<use xlink:href="#f0_b1" transform="matrix(13.1,0,0,13.1,1514.3,262.4)" />
<use xlink:href="#f0_am" transform="matrix(13.1,0,0,13.1,1520.9,262.4)" />
<use xlink:href="#f0_7l" transform="matrix(13.1,0,0,13.1,1531.4,262.4)" />
<use xlink:href="#f0_7z" transform="matrix(13.1,0,0,13.1,1539.8,262.4)" />
<use xlink:href="#f0_7v" transform="matrix(13.1,0,0,13.1,1549.7,262.4)" />
<use xlink:href="#f0_c6" transform="matrix(13.1,0,0,13.1,1560.2,262.4)" />
<use xlink:href="#f0_b1" transform="matrix(13.1,0,0,13.1,1570.6,262.4)" />
<use xlink:href="#f0_77" transform="matrix(13.1,0,0,13.1,1577.2,262.4)" />
<use xlink:href="#f0_a8" transform="matrix(13.1,0,0,13.1,1586.8,262.4)" />
<use xlink:href="#f0_2g" transform="matrix(13.1,0,0,13.1,1596.2,262.4)" />
<use xlink:href="#f0_b1" transform="matrix(13.1,0,0,13.1,1606.5,262.4)" />
<use xlink:href="#f0_9q" transform="matrix(13.1,0,0,13.1,1613.5,262.4)" />
<use xlink:href="#f0_ae" transform="matrix(13.1,0,0,13.1,1618.1,262.4)" />
<use xlink:href="#f0_9q" transform="matrix(13.1,0,0,13.1,1634.1,262.4)" />
<use xlink:href="#f0_bf" transform="matrix(13.1,0,0,13.1,1638.7,262.4)" />
<use xlink:href="#f0_9q" transform="matrix(13.1,0,0,13.1,1645.3,262.4)" />
<use xlink:href="#f0_ch" transform="matrix(13.1,0,0,13.1,1649.9,262.4)" />
<use xlink:href="#f0_7z" transform="matrix(13.1,0,0,13.1,1658.8,262.4)" />
<use xlink:href="#f0_b5" transform="matrix(13.1,0,0,13.1,1668.7,262.4)" />
</g>
</g>
<text x="1504" y="262" dx="0,-0.1,-0.4,-0.1,0,-0.1,0,-0.1,-0.4,0,0,0.4,-0.1,0,0,0,0,0,0,-0.2,0" class="s3_1">Procedural Primitives</text>
<path d="M1403.1,236.4L1449.3,182l-1.8,-1.6l-46.2,54.5Zm47.8,-51.1l2.5,-9.9l-9.5,4Z" class="g7_1" />
<path d="M1507.9,306.6c0,-10,8.1,-18.2,18.2,-18.2c10,0,18.1,8.2,18.1,18.2c0,10.1,-8.1,18.3,-18.1,18.3c-10.1,0,-18.2,-8.2,-18.2,-18.3Zm12.7,18.2c0,-10.1,8.1,-18.3,18.1,-18.3c10,0,18.2,8.2,18.2,18.3c0,10,-8.2,18.2,-18.2,18.2c-10,0,-18.1,-8.2,-18.1,-18.2Zm20.1,-25c0,-10,8.2,-18.2,18.2,-18.2c10,0,18.1,8.2,18.1,18.2c0,10.1,-8.1,18.3,-18.1,18.3c-10,0,-18.2,-8.2,-18.2,-18.3Zm1.7,29.6c0,-10.1,8.1,-18.3,18.1,-18.3c10.1,0,18.2,8.2,18.2,18.3c0,10,-8.1,18.2,-18.2,18.2c-10,0,-18.1,-8.2,-18.1,-18.2Zm21.8,-15.1c0,-10,8.1,-18.2,18.1,-18.2c10.1,0,18.2,8.2,18.2,18.2c0,10.1,-8.1,18.3,-18.2,18.3c-10,0,-18.1,-8.2,-18.1,-18.3Zm-5.7,-17.8c0,-10,8.1,-18.2,18.2,-18.2c10,0,18.1,8.2,18.1,18.2c0,10.1,-8.1,18.3,-18.1,18.3c-10.1,0,-18.2,-8.2,-18.2,-18.3Zm-48.7,48.8c0,-10.1,8.1,-18.2,18.1,-18.2c10,0,18.2,8.1,18.2,18.2c0,10.1,-8.2,18.3,-18.2,18.3c-10,0,-18.1,-8.2,-18.1,-18.3Z" class="g6_1" />
<path d="M1579.2,239.4l-54,-57.1l1.8,-1.7l54,57.2Zm-55.4,-53.7l-3,-9.8l9.7,3.5Z" class="g7_1" />

<defs>
<path d="M318,-13c0,0,-48,0,-90,8c0,0,-41,8,-73,19c0,0,-33,12,-55,25c0,0,-22,13,-30,22c0,0,-9,8,-13,22c0,0,-4,14,-4,37c0,0,0,17,1,27c0,0,2,11,5,18c0,0,3,7,7,9c0,0,5,3,11,3c0,0,10,0,29,-13c0,0,19,-12,49,-27c0,0,30,-15,72,-28c0,0,42,-13,97,-13c0,0,42,0,77,11c0,0,34,11,59,32c0,0,25,20,39,50c0,0,13,30,13,68c0,0,0,41,-19,70c0,0,-18,29,-49,51c0,0,-30,22,-70,41c0,0,-39,18,-80,37c0,0,-41,19,-80,42c0,0,-39,23,-69,54c0,0,-31,32,-50,74c0,0,-19,42,-19,101c0,0,0,60,22,108c0,0,22,47,61,79c0,0,40,32,94,49c0,0,54,17,116,17c0,0,32,0,65,-6c0,0,32,-5,61,-15c0,0,29,-9,51,-20c0,0,22,-12,30,-19c0,0,7,-7,9,-11c0,0,2,-4,4,-10c0,0,1,-7,2,-16c0,0,1,-9,1,-23c0,0,0,-13,-2,-24c0,0,-1,-10,-3,-17c0,0,-2,-8,-6,-11c0,0,-4,-3,-10,-3c0,0,-8,0,-25,10c0,0,-18,11,-43,24c0,0,-26,13,-60,23c0,0,-35,11,-78,11c0,0,-40,0,-70,-11c0,0,-30,-10,-49,-28c0,0,-20,-18,-29,-43c0,0,-10,-25,-10,-52c0,0,0,-40,18,-70c0,0,19,-29,50,-51c0,0,31,-22,71,-41c0,0,39,-19,80,-38c0,0,41,-19,81,-41c0,0,39,-23,70,-54c0,0,31,-31,50,-73c0,0,19,-42,19,-100c0,0,0,-68,-25,-121c0,0,-25,-53,-69,-89C552,61,508,24,448,5c0,0,-60,-18,-130,-18Z" 
id="f0_2n"
transform="scale(0.001,-0.001)" />

<path d="M176,-4c0,0,-18,0,-30,2c0,0,-12,1,-19,3c0,0,-7,3,-10,7c0,0,-3,4,-3,10v997c0,0,0,6,3,11c0,0,3,4,10,7c0,0,7,3,19,5c0,0,12,1,30,1c0,0,18,0,30,-1c0,0,12,-2,19,-5c0,0,7,-3,9,-7c0,0,3,-5,3,-11V408L492,687c0,0,6,7,12,12c0,0,7,5,16,8c0,0,10,4,22,5c0,0,13,1,31,1c0,0,19,0,31,-1c0,0,13,-1,21,-4c0,0,8,-3,11,-7c0,0,3,-4,3,-11c0,0,0,-9,-4,-18c0,0,-5,-8,-16,-20L375,408L648,54c0,0,10,-13,14,-20c0,0,4,-8,4,-15c0,0,0,-6,-3,-10c0,0,-3,-5,-10,-8c0,0,-7,-2,-20,-3c0,0,-13,-2,-32,-2c0,0,-20,0,-33,1c0,0,-13,1,-22,3c0,0,-9,3,-15,7c0,0,-5,5,-10,12L237,391V18c0,0,0,-6,-3,-10c0,0,-2,-4,-9,-7c0,0,-7,-2,-19,-3c0,0,-12,-2,-30,-2Z" 
id="f0_a5"
transform="scale(0.001,-0.001)" />

<path d="M564,420c0,0,2,98,-43,153c0,0,-46,56,-134,56c0,0,-46,0,-80,-18c0,0,-35,-17,-58,-45c0,0,-23,-29,-36,-67c0,0,-12,-37,-14,-79ZM405,-13c0,0,-83,0,-145,22c0,0,-62,24,-105,69c0,0,-42,46,-64,114c0,0,-22,69,-22,160c0,0,0,87,23,156c0,0,22,69,64,117c0,0,43,48,102,74c0,0,60,26,134,26c0,0,79,0,135,-26c0,0,55,-25,91,-68c0,0,36,-43,53,-101c0,0,16,-58,16,-123V384c0,0,0,-29,-14,-41c0,0,-15,-13,-33,-13H199c0,0,0,-56,11,-100c0,0,12,-45,38,-77c0,0,26,-33,68,-50c0,0,41,-17,102,-17c0,0,48,0,85,8c0,0,37,8,65,17c0,0,27,10,44,18c0,0,18,8,27,8c0,0,5,0,9,-3c0,0,4,-2,7,-8c0,0,2,-5,3,-14c0,0,1,-9,1,-23c0,0,0,-9,-1,-16c0,0,0,-8,-2,-13c0,0,-1,-6,-3,-10c0,0,-3,-5,-7,-9c0,0,-4,-4,-24,-13c0,0,-20,-10,-53,-18c0,0,-32,-9,-74,-16c0,0,-42,-7,-90,-7Z" 
id="f0_7z"
transform="scale(0.001,-0.001)" />

<path d="M339,-13c0,0,-52,0,-90,13c0,0,-37,14,-61,42c0,0,-24,28,-34,71c0,0,-11,43,-11,101V607H49c0,0,-11,0,-18,12c0,0,-7,12,-7,39c0,0,0,14,2,24c0,0,2,10,5,16c0,0,3,7,8,9c0,0,5,3,11,3h93V870c0,0,0,5,2,9c0,0,3,5,10,8c0,0,7,4,19,5c0,0,12,2,30,2c0,0,19,0,31,-2c0,0,11,-1,18,-5c0,0,7,-3,10,-8c0,0,3,-4,3,-9V710H438c0,0,6,0,10,-3c0,0,5,-2,8,-9c0,0,4,-6,5,-16c0,0,1,-10,1,-24c0,0,0,-27,-6,-39c0,0,-7,-12,-18,-12H266V232c0,0,0,-69,20,-105c0,0,21,-35,74,-35c0,0,17,0,30,3c0,0,14,4,24,7c0,0,10,4,18,7c0,0,7,4,13,4c0,0,4,0,7,-2c0,0,4,-2,6,-7c0,0,2,-5,3,-14c0,0,1,-9,1,-23c0,0,0,-22,-2,-34c0,0,-3,-13,-9,-19c0,0,-6,-6,-18,-11c0,0,-12,-4,-28,-8c0,0,-15,-3,-32,-5c0,0,-17,-3,-34,-3Z" 
id="f0_bf"
transform="scale(0.001,-0.001)" />

<path d="M367,-13c0,0,-73,0,-129,23c0,0,-56,24,-93,70c0,0,-38,46,-58,112c0,0,-20,67,-20,154c0,0,0,99,25,171c0,0,24,71,66,116c0,0,42,46,99,68c0,0,58,22,124,22c0,0,32,0,62,-6c0,0,31,-6,56,-16c0,0,25,-10,45,-22c0,0,20,-13,29,-22c0,0,9,-9,12,-14c0,0,3,-5,6,-13c0,0,2,-7,3,-16c0,0,0,-9,0,-22c0,0,0,-29,-6,-41c0,0,-7,-11,-17,-11c0,0,-11,0,-25,12c0,0,-15,12,-37,27c0,0,-23,15,-55,28c0,0,-31,12,-75,12c0,0,-88,0,-136,-68c0,0,-47,-68,-47,-198c0,0,0,-65,12,-114c0,0,12,-49,36,-81c0,0,24,-33,59,-49c0,0,35,-16,79,-16c0,0,43,0,75,13c0,0,32,14,56,30c0,0,23,16,39,29c0,0,16,13,25,13c0,0,5,0,9,-3c0,0,4,-3,7,-10c0,0,2,-7,3,-18c0,0,1,-11,1,-26c0,0,0,-12,0,-22c0,0,-1,-9,-3,-15c0,0,-2,-7,-4,-12c0,0,-3,-4,-12,-14c0,0,-10,-9,-32,-23c0,0,-22,-14,-50,-24C496,11,468,0,435,-6c0,0,-33,-7,-68,-7Z" 
id="f0_7l"
transform="scale(0.001,-0.001)" />

<path d="M176,-4c0,0,-18,0,-30,2c0,0,-12,1,-19,3c0,0,-7,3,-10,7c0,0,-3,4,-3,10v997c0,0,0,6,3,11c0,0,3,4,10,7c0,0,7,3,19,5c0,0,12,1,30,1c0,0,18,0,30,-1c0,0,12,-2,19,-5c0,0,7,-3,9,-7c0,0,3,-5,3,-10V614c0,0,53,56,107,83c0,0,54,28,108,28c0,0,67,0,113,-23c0,0,46,-23,74,-61c0,0,29,-38,41,-89c0,0,12,-52,12,-124V18c0,0,0,-6,-3,-10c0,0,-3,-4,-9,-7c0,0,-7,-2,-19,-3c0,0,-12,-2,-30,-2c0,0,-19,0,-30,2c0,0,-12,1,-19,3c0,0,-7,3,-10,7c0,0,-3,4,-3,10V412c0,0,0,58,-9,93c0,0,-9,35,-26,61c0,0,-17,25,-44,38c0,0,-27,14,-63,14c0,0,-46,0,-93,-33c0,0,-46,-33,-97,-96V18c0,0,0,-6,-3,-10c0,0,-2,-4,-9,-7c0,0,-7,-2,-19,-3c0,0,-12,-2,-30,-2Z" 
id="f0_9n"
transform="scale(0.001,-0.001)" />

<path d="M176,-4c0,0,-18,0,-30,2c0,0,-12,1,-19,3c0,0,-7,3,-10,7c0,0,-3,4,-3,10V690c0,0,0,5,3,9c0,0,3,5,10,8c0,0,7,3,19,4c0,0,12,2,30,2c0,0,18,0,30,-2c0,0,12,-1,19,-4c0,0,7,-3,9,-8c0,0,3,-4,3,-9V18c0,0,0,-6,-3,-10c0,0,-2,-4,-9,-7c0,0,-7,-2,-19,-3c0,0,-12,-2,-30,-2Zm-1,846c0,0,-43,0,-59,15c0,0,-16,15,-16,58c0,0,0,43,16,59c0,0,17,16,61,16c0,0,43,0,59,-16c0,0,16,-15,16,-58c0,0,0,-43,-16,-58c0,0,-17,-16,-61,-16Z" 
id="f0_9q"
transform="scale(0.001,-0.001)" />

<path d="M176,-4c0,0,-18,0,-30,2c0,0,-12,1,-19,3c0,0,-7,3,-10,7c0,0,-3,4,-3,10V690c0,0,0,6,3,10c0,0,2,4,9,7c0,0,6,4,17,5c0,0,10,1,27,1c0,0,17,0,28,-1c0,0,10,-1,16,-5c0,0,6,-3,9,-7c0,0,3,-4,3,-10V601c0,0,56,64,112,94c0,0,57,30,114,30c0,0,67,0,113,-23c0,0,46,-23,74,-61c0,0,29,-38,41,-89c0,0,12,-52,12,-123V18c0,0,0,-6,-3,-10c0,0,-3,-4,-9,-7c0,0,-7,-2,-19,-3c0,0,-12,-2,-30,-2c0,0,-19,0,-30,2c0,0,-12,1,-19,3c0,0,-7,3,-10,7c0,0,-3,4,-3,10V412c0,0,0,58,-9,93c0,0,-9,35,-26,61c0,0,-17,25,-44,38c0,0,-27,14,-63,14c0,0,-46,0,-93,-33c0,0,-46,-33,-97,-96V18c0,0,0,-6,-3,-10c0,0,-2,-4,-9,-7c0,0,-7,-2,-19,-3c0,0,-12,-2,-30,-2Z" 
id="f0_af"
transform="scale(0.001,-0.001)" />

<path d="M346,-177c0,0,56,0,94,11c0,0,37,11,60,28c0,0,24,18,34,41c0,0,10,23,10,49c0,0,0,43,-36,65c0,0,-35,23,-95,25L239,48c0,0,-24,-19,-39,-35c0,0,-15,-16,-24,-31c0,0,-9,-16,-12,-30c0,0,-4,-15,-4,-31c0,0,0,-48,49,-73c0,0,50,-25,137,-25Zm-6,512c0,0,36,0,63,12c0,0,27,12,44,32c0,0,18,21,26,48c0,0,9,27,9,56c0,0,0,69,-38,107c0,0,-37,39,-107,39c0,0,-35,0,-62,-12c0,0,-26,-12,-44,-33c0,0,-17,-21,-26,-48c0,0,-8,-28,-8,-58c0,0,0,-66,37,-104c0,0,38,-39,106,-39Zm0,-606c0,0,-81,0,-138,14c0,0,-57,14,-94,38c0,0,-36,24,-52,57c0,0,-17,33,-17,72c0,0,0,24,6,47c0,0,6,24,18,43c0,0,13,21,31,40c0,0,18,19,42,38c0,0,-36,19,-54,47c0,0,-17,28,-17,61c0,0,0,45,18,81c0,0,19,36,46,64c0,0,-23,28,-36,62c0,0,-14,35,-14,84c0,0,0,58,20,104c0,0,19,45,53,77c0,0,35,31,83,48c0,0,48,17,105,17c0,0,30,0,57,-4c0,0,26,-3,49,-9H649c0,0,13,0,19,-12c0,0,7,-13,7,-38c0,0,0,-26,-7,-37c0,0,-7,-12,-19,-12H553c0,0,26,-27,37,-60c0,0,10,-32,10,-68c0,0,0,-58,-18,-103c0,0,-19,-45,-54,-76c0,0,-34,-31,-82,-47c0,0,-48,-16,-106,-16c0,0,-41,0,-78,10c0,0,-37,11,-57,28c0,0,-14,-14,-22,-31c0,0,-9,-17,-9,-39c0,0,0,-27,24,-44c0,0,25,-17,65,-18l175,-8c0,0,50,-1,92,-14c0,0,41,-12,72,-35c0,0,31,-22,48,-55c0,0,17,-34,17,-76c0,0,0,-47,-20,-88c0,0,-19,-42,-59,-74c0,0,-40,-31,-102,-50c0,0,-61,-18,-146,-18Z" 
id="f0_9d"
transform="scale(0.001,-0.001)" />

<path d="M209,-4c0,0,-18,0,-30,2c0,0,-12,1,-19,3c0,0,-7,3,-10,7c0,0,-3,4,-3,10V607H52c0,0,-12,0,-18,12c0,0,-6,12,-6,39c0,0,0,14,2,24c0,0,1,10,4,16c0,0,3,7,8,9c0,0,4,3,10,3h95v69c0,0,0,71,13,121c0,0,13,50,40,82c0,0,27,33,67,48c0,0,41,15,96,15c0,0,26,0,51,-5c0,0,25,-4,38,-10c0,0,13,-6,18,-10c0,0,4,-5,7,-12c0,0,3,-7,5,-17c0,0,1,-10,1,-24c0,0,0,-15,-2,-23c0,0,-1,-9,-3,-14c0,0,-2,-5,-5,-7c0,0,-3,-2,-8,-2c0,0,-5,0,-13,3c0,0,-7,4,-19,8c0,0,-11,4,-26,7c0,0,-15,4,-36,4c0,0,-27,0,-47,-9c0,0,-19,-9,-31,-28c0,0,-12,-19,-17,-50c0,0,-5,-30,-5,-73V710H421c0,0,6,0,10,-3c0,0,4,-2,7,-9c0,0,4,-6,6,-16c0,0,2,-10,2,-24c0,0,0,-27,-7,-39c0,0,-7,-12,-18,-12H271V18c0,0,0,-6,-3,-10c0,0,-3,-4,-11,-7c0,0,-7,-2,-19,-3c0,0,-12,-2,-29,-2Z" 
id="f0_89"
transform="scale(0.001,-0.001)" />

<path d="M176,-4c0,0,-18,0,-30,2c0,0,-12,1,-19,3c0,0,-7,3,-10,7c0,0,-3,4,-3,10V690c0,0,0,6,3,10c0,0,2,4,9,7c0,0,6,4,17,5c0,0,10,1,27,1c0,0,17,0,28,-1c0,0,10,-1,16,-5c0,0,6,-3,9,-7c0,0,3,-4,3,-10V592c0,0,27,41,51,66c0,0,25,26,46,41c0,0,22,14,43,20c0,0,21,6,43,6c0,0,10,0,22,-2c0,0,12,-1,26,-4c0,0,13,-3,24,-6c0,0,11,-4,15,-8c0,0,5,-4,6,-7c0,0,2,-3,3,-9c0,0,1,-5,1,-15c0,0,0,-10,0,-27c0,0,0,-16,0,-28c0,0,-1,-11,-3,-17c0,0,-2,-6,-6,-10c0,0,-3,-3,-9,-3c0,0,-6,0,-15,3c0,0,-8,4,-19,7c0,0,-11,3,-24,6c0,0,-14,3,-29,3c0,0,-19,0,-37,-7c0,0,-18,-8,-37,-25c0,0,-20,-18,-42,-46c0,0,-21,-29,-48,-70V18c0,0,0,-6,-3,-10c0,0,-2,-4,-9,-7c0,0,-7,-2,-19,-3c0,0,-12,-2,-30,-2Z" 
id="f0_b1"
transform="scale(0.001,-0.001)" />

<path d="M401,90c0,0,54,0,93,19c0,0,40,20,65,55c0,0,26,35,37,84c0,0,12,48,12,106c0,0,0,55,-10,104c0,0,-10,48,-33,85c0,0,-23,36,-62,58c0,0,-40,21,-99,21c0,0,-54,0,-93,-20c0,0,-39,-19,-65,-54c0,0,-25,-36,-37,-85c0,0,-12,-48,-12,-106c0,0,0,-55,10,-103c0,0,10,-49,33,-85c0,0,24,-36,63,-58c0,0,39,-21,98,-21ZM395,-13c0,0,-82,0,-144,24c0,0,-61,25,-102,72c0,0,-41,47,-61,114c0,0,-21,67,-21,152c0,0,0,82,22,151c0,0,21,69,64,119c0,0,43,50,107,78c0,0,64,28,150,28c0,0,82,0,144,-25c0,0,61,-25,102,-72c0,0,41,-47,62,-114c0,0,20,-67,20,-151c0,0,0,-83,-21,-152c0,0,-22,-69,-65,-119C652,92,609,42,545,14c0,0,-65,-27,-150,-27Z" 
id="f0_am"
transform="scale(0.001,-0.001)" />

<path d="M176,-4c0,0,-18,0,-30,2c0,0,-12,1,-19,3c0,0,-7,3,-10,7c0,0,-3,4,-3,10V690c0,0,0,6,3,10c0,0,2,4,9,7c0,0,6,4,17,5c0,0,10,1,27,1c0,0,17,0,28,-1c0,0,10,-1,16,-5c0,0,6,-3,9,-7c0,0,3,-4,3,-10V601c0,0,56,64,110,94c0,0,53,30,108,30c0,0,42,0,75,-10c0,0,33,-10,58,-28c0,0,26,-17,44,-42c0,0,18,-24,30,-55c0,0,33,37,63,63c0,0,31,26,59,41c0,0,28,16,54,23c0,0,27,8,53,8c0,0,65,0,109,-23c0,0,44,-23,71,-61c0,0,28,-38,39,-89c0,0,12,-52,12,-108V18c0,0,0,-6,-3,-10c0,0,-3,-4,-10,-7c0,0,-7,-2,-19,-3c0,0,-12,-2,-29,-2c0,0,-19,0,-31,2c0,0,-12,1,-19,3c0,0,-7,3,-10,7c0,0,-3,4,-3,10V427c0,0,0,43,-8,78c0,0,-7,35,-23,61c0,0,-17,25,-42,38c0,0,-25,14,-60,14c0,0,-42,0,-85,-33c0,0,-43,-33,-94,-96V18c0,0,0,-6,-3,-10c0,0,-3,-4,-11,-7c0,0,-7,-2,-19,-3c0,0,-11,-2,-29,-2c0,0,-18,0,-30,2c0,0,-12,1,-19,3c0,0,-7,3,-10,7c0,0,-3,4,-3,10V427c0,0,0,43,-8,78c0,0,-8,35,-24,61c0,0,-17,25,-42,38c0,0,-25,14,-59,14c0,0,-43,0,-86,-33c0,0,-44,-33,-95,-96V18c0,0,0,-6,-3,-10c0,0,-2,-4,-9,-7c0,0,-7,-2,-19,-3c0,0,-12,-2,-30,-2Z" 
id="f0_ae"
transform="scale(0.001,-0.001)" />

<path d="M351,-13c0,0,-67,0,-113,22c0,0,-46,22,-75,60c0,0,-28,39,-40,90c0,0,-13,51,-13,124V690c0,0,0,6,3,10c0,0,3,4,10,7c0,0,8,4,20,5c0,0,11,1,29,1c0,0,18,0,30,-1c0,0,12,-1,19,-5c0,0,7,-3,10,-7c0,0,3,-4,3,-10V299c0,0,0,-59,9,-94c0,0,8,-36,26,-61c0,0,18,-24,44,-38c0,0,27,-14,63,-14c0,0,46,0,92,33c0,0,46,32,98,95V690c0,0,0,6,2,10c0,0,3,4,10,7c0,0,8,4,19,5c0,0,12,1,30,1c0,0,18,0,30,-1c0,0,12,-1,19,-5c0,0,7,-3,10,-7c0,0,3,-4,3,-10V18c0,0,0,-6,-2,-10c0,0,-3,-4,-10,-7c0,0,-6,-2,-17,-3c0,0,-11,-2,-27,-2c0,0,-17,0,-28,2c0,0,-10,1,-17,3c0,0,-6,3,-8,7c0,0,-3,4,-3,10v89c0,0,-57,-63,-113,-92c0,0,-56,-28,-113,-28Z" 
id="f0_c6"
transform="scale(0.001,-0.001)" />

<path d="M176,-4c0,0,-18,0,-30,2c0,0,-12,1,-19,3c0,0,-7,3,-10,7c0,0,-3,4,-3,10v997c0,0,0,6,3,11c0,0,3,4,10,7c0,0,7,3,19,5c0,0,12,1,30,1c0,0,18,0,30,-1c0,0,12,-2,19,-5c0,0,7,-3,9,-7c0,0,3,-5,3,-11V18c0,0,0,-6,-3,-10c0,0,-2,-4,-9,-7c0,0,-7,-2,-19,-3c0,0,-12,-2,-30,-2Z" 
id="f0_a8"
transform="scale(0.001,-0.001)" />

<path d="M429,92c0,0,47,0,80,22c0,0,33,23,54,60c0,0,20,38,30,84c0,0,10,46,10,93c0,0,0,52,-8,100c0,0,-8,48,-27,86c0,0,-19,37,-51,60c0,0,-32,22,-80,22c0,0,-24,0,-47,-7c0,0,-23,-7,-47,-23c0,0,-24,-15,-50,-40c0,0,-26,-25,-56,-62V220c0,0,51,-62,97,-95c0,0,45,-33,95,-33ZM176,-271c0,0,-18,0,-30,2c0,0,-12,1,-19,4c0,0,-7,3,-10,8c0,0,-3,4,-3,10V690c0,0,0,6,3,10c0,0,2,5,9,8c0,0,6,3,17,4c0,0,10,1,25,1c0,0,16,0,26,-1c0,0,10,-1,17,-4c0,0,6,-3,9,-7c0,0,3,-4,3,-11V601c0,0,30,31,59,54c0,0,28,23,57,39c0,0,28,15,59,23c0,0,30,8,63,8c0,0,74,0,125,-29c0,0,52,-28,84,-77c0,0,32,-50,47,-115c0,0,15,-65,15,-139c0,0,0,-88,-19,-158c0,0,-19,-70,-56,-119c0,0,-37,-49,-91,-75c0,0,-55,-26,-125,-26c0,0,-30,0,-55,6c0,0,-25,6,-50,18c0,0,-24,13,-48,32c0,0,-24,19,-51,46V-247c0,0,0,-6,-3,-10c0,0,-2,-5,-9,-8c0,0,-7,-3,-19,-4c0,0,-12,-2,-30,-2Z" 
id="f0_ay"
transform="scale(0.001,-0.001)" />

<path d="M346,-4c0,0,-23,0,-38,2c0,0,-15,1,-24,3c0,0,-9,3,-15,8c0,0,-5,6,-8,13L33,660c0,0,-3,9,-5,15c0,0,-2,7,-2,11c0,0,0,3,0,5c0,0,0,6,3,11c0,0,3,4,10,7c0,0,7,2,18,3c0,0,12,1,29,1c0,0,22,0,35,-1c0,0,13,-1,20,-4c0,0,7,-3,10,-8c0,0,4,-4,7,-11L347,135l3,-9l2,9L540,689c0,0,1,7,5,11c0,0,3,5,11,8c0,0,7,3,19,4c0,0,12,1,32,1c0,0,18,0,29,-1c0,0,11,-1,17,-4c0,0,7,-3,9,-7c0,0,3,-4,3,-10c0,0,0,-3,-1,-6c0,0,0,-4,-1,-7c0,0,0,-4,-2,-8c0,0,-1,-5,-2,-10L430,22c0,0,-3,-8,-8,-13c0,0,-5,-6,-15,-9c0,0,-9,-2,-24,-3c0,0,-15,-1,-37,-1Z" 
id="f0_ch"
transform="scale(0.001,-0.001)" />

<path d="M324,-4c0,0,-23,0,-37,2c0,0,-15,1,-24,3c0,0,-9,3,-14,8c0,0,-4,6,-7,13L46,660c0,0,-4,11,-5,18c0,0,-2,8,-2,13c0,0,0,7,3,11c0,0,3,4,10,7c0,0,8,2,19,3c0,0,12,1,30,1c0,0,20,0,33,-1c0,0,13,-1,20,-4c0,0,6,-3,9,-8c0,0,3,-4,5,-11L330,136l2,-7l1,7L482,689c0,0,1,7,5,11c0,0,3,5,10,8c0,0,6,3,18,4c0,0,12,1,31,1c0,0,18,0,29,-1c0,0,12,-1,18,-4c0,0,7,-3,10,-7c0,0,3,-5,5,-11L768,136l1,-7l1,7L930,689c0,0,1,7,5,11c0,0,3,5,10,8c0,0,7,3,20,4c0,0,12,1,31,1c0,0,18,0,29,-1c0,0,11,-1,17,-4c0,0,6,-3,9,-6c0,0,3,-4,3,-11c0,0,0,-5,-2,-13c0,0,-1,-7,-5,-18L849,22c0,0,-2,-8,-7,-13c0,0,-5,-6,-13,-9c0,0,-9,-2,-24,-3c0,0,-15,-1,-37,-1c0,0,-23,0,-39,2c0,0,-15,1,-25,3c0,0,-9,3,-14,8c0,0,-4,6,-6,13L543,510l-2,6l-2,-6L409,22c0,0,-3,-8,-7,-13c0,0,-5,-6,-15,-9c0,0,-10,-2,-25,-3c0,0,-15,-1,-38,-1Z" 
id="f0_ci"
transform="scale(0.001,-0.001)" />

<path d="M272,-13c0,0,-35,0,-68,6c0,0,-32,6,-58,13c0,0,-26,9,-44,18c0,0,-17,10,-26,17c0,0,-8,8,-12,21c0,0,-3,14,-3,37c0,0,0,14,1,24c0,0,2,9,4,15c0,0,2,6,6,9c0,0,4,3,10,3c0,0,8,0,24,-11c0,0,16,-10,39,-22c0,0,24,-12,56,-22c0,0,32,-10,74,-10c0,0,31,0,56,7c0,0,26,6,44,19c0,0,19,14,29,34c0,0,10,20,10,47c0,0,0,29,-14,48c0,0,-15,19,-39,34c0,0,-24,15,-53,27c0,0,-30,11,-62,24c0,0,-32,13,-62,29c0,0,-30,16,-54,39c0,0,-24,23,-38,55c0,0,-15,32,-15,77c0,0,0,40,16,76c0,0,15,36,45,63c0,0,31,28,77,44c0,0,46,17,107,17c0,0,27,0,54,-5c0,0,26,-5,48,-11c0,0,22,-7,37,-15c0,0,15,-8,23,-14c0,0,8,-6,11,-11c0,0,2,-4,3,-10c0,0,1,-5,2,-14c0,0,2,-8,2,-20c0,0,0,-12,-2,-22c0,0,-1,-9,-3,-15c0,0,-3,-6,-7,-8c0,0,-3,-3,-8,-3c0,0,-7,0,-19,8c0,0,-13,8,-33,18c0,0,-20,9,-47,17c0,0,-28,9,-63,9c0,0,-31,0,-55,-7c0,0,-24,-7,-39,-20c0,0,-15,-13,-23,-31c0,0,-8,-18,-8,-39c0,0,0,-29,15,-49c0,0,15,-20,39,-35c0,0,24,-15,54,-27c0,0,31,-11,62,-24c0,0,32,-13,63,-29c0,0,31,-15,55,-38c0,0,24,-22,38,-53c0,0,15,-32,15,-75c0,0,0,-51,-19,-92c0,0,-19,-40,-54,-68C463,42,428,15,379,1c0,0,-48,-14,-107,-14Z" 
id="f0_b5"
transform="scale(0.001,-0.001)" />

<path d="M372,472c0,0,58,0,97,15c0,0,38,15,65,42c0,0,26,26,39,63c0,0,14,37,14,80c0,0,0,59,-22,99c0,0,-23,39,-55,59c0,0,-32,19,-67,24c0,0,-35,5,-68,5H256V472ZM192,-4c0,0,-18,0,-31,2c0,0,-12,2,-19,3c0,0,-8,3,-11,8c0,0,-3,4,-3,10V910c0,0,0,30,16,42c0,0,15,13,35,13H386c0,0,31,0,60,-3c0,0,28,-2,68,-11c0,0,39,-8,80,-32c0,0,40,-23,69,-58c0,0,28,-34,43,-79c0,0,16,-45,16,-100c0,0,0,-72,-24,-130c0,0,-24,-58,-69,-100c0,0,-44,-41,-109,-63c0,0,-64,-22,-154,-22H256V19c0,0,0,-6,-3,-10c0,0,-3,-5,-10,-8c0,0,-7,-1,-20,-3c0,0,-12,-2,-31,-2Z" 
id="f0_2g"
transform="scale(0.001,-0.001)" />

<path d="M53,-271c0,0,-23,0,-40,3c0,0,-16,3,-25,7c0,0,-9,4,-12,9c0,0,-4,4,-5,11c0,0,-2,6,-2,13c0,0,0,7,0,16c0,0,0,14,1,24c0,0,1,9,4,15c0,0,2,6,6,9c0,0,3,3,8,3c0,0,5,0,17,-2c0,0,13,-2,30,-2c0,0,24,0,42,7c0,0,17,8,28,24c0,0,12,17,17,44c0,0,5,27,5,81V690c0,0,0,5,3,9c0,0,3,5,10,8c0,0,7,3,19,4c0,0,12,2,30,2c0,0,18,0,30,-2c0,0,12,-1,19,-4c0,0,7,-3,10,-8c0,0,3,-4,3,-9V-10c0,0,0,-74,-11,-120c0,0,-11,-46,-35,-77c0,0,-24,-32,-61,-48c0,0,-38,-16,-91,-16ZM188,842c0,0,-43,0,-59,15c0,0,-16,15,-16,58c0,0,0,43,16,59c0,0,17,16,61,16c0,0,44,0,59,-16c0,0,16,-15,16,-58c0,0,0,-43,-17,-58c0,0,-16,-16,-60,-16Z" 
id="f0_a2"
transform="scale(0.001,-0.001)" />

<path d="M321,82c0,0,48,0,90,25c0,0,41,24,87,75V325H392c0,0,-50,0,-88,-9c0,0,-37,-9,-62,-25c0,0,-24,-17,-36,-41c0,0,-11,-23,-11,-54c0,0,0,-52,33,-83c0,0,33,-31,93,-31ZM301,-13c0,0,-53,0,-96,13c0,0,-43,14,-73,40c0,0,-30,26,-47,64c0,0,-17,38,-17,87c0,0,0,56,24,98c0,0,23,42,66,69c0,0,43,28,106,42c0,0,63,14,141,14h93v52c0,0,0,39,-9,69c0,0,-8,30,-26,50c0,0,-18,20,-47,30c0,0,-30,10,-72,10c0,0,-46,0,-82,-11c0,0,-36,-11,-63,-24c0,0,-27,-13,-46,-24c0,0,-18,-11,-27,-11c0,0,-6,0,-10,3c0,0,-5,3,-8,9c0,0,-3,6,-5,16c0,0,-1,9,-1,20c0,0,0,19,2,30c0,0,3,11,13,20c0,0,10,10,35,23c0,0,24,13,56,24c0,0,32,10,70,17c0,0,38,8,77,8c0,0,73,0,123,-17c0,0,51,-16,82,-48c0,0,32,-32,46,-79c0,0,14,-47,14,-110V18c0,0,0,-9,-6,-14c0,0,-6,-4,-16,-6c0,0,-11,-2,-31,-2c0,0,-19,0,-31,2c0,0,-12,2,-17,6c0,0,-5,5,-5,13V85c0,0,-44,-47,-98,-73c0,0,-54,-25,-115,-25Z" 
id="f0_77"
transform="scale(0.001,-0.001)" />

<path d="M252,-271c0,0,-19,0,-31,2c0,0,-12,2,-18,6c0,0,-7,5,-8,12c0,0,0,8,4,18L292,0c0,0,-7,3,-13,10c0,0,-6,6,-8,14L31,665c0,0,-6,16,-6,25c0,0,0,9,6,14c0,0,6,5,20,7c0,0,13,2,36,2c0,0,22,0,35,-1c0,0,12,-1,20,-4c0,0,7,-3,11,-9c0,0,3,-6,7,-15L351,145h3L539,687c0,0,4,14,10,18c0,0,7,4,19,6c0,0,13,2,37,2c0,0,21,0,34,-2c0,0,14,-2,20,-7c0,0,6,-5,6,-14c0,0,0,-9,-4,-23L420,0L330,-246c0,0,-4,-12,-22,-18c0,0,-19,-7,-56,-7Z" 
id="f0_co"
transform="scale(0.001,-0.001)" />

<path d="M482,-11c0,0,-94,0,-170,31c0,0,-76,31,-129,92c0,0,-53,61,-82,151c0,0,-29,90,-29,207c0,0,0,120,31,214c0,0,31,94,87,159c0,0,56,65,134,100c0,0,78,34,173,34c0,0,41,0,81,-8c0,0,39,-8,73,-19c0,0,33,-12,60,-28c0,0,26,-15,36,-25c0,0,10,-10,13,-15c0,0,3,-6,5,-13c0,0,1,-7,3,-17c0,0,1,-9,1,-23c0,0,0,-15,-2,-25c0,0,-1,-11,-4,-18c0,0,-3,-7,-7,-10c0,0,-4,-4,-10,-4c0,0,-11,0,-30,15c0,0,-18,14,-48,32c0,0,-29,17,-71,32c0,0,-42,14,-101,14c0,0,-64,0,-117,-25c0,0,-52,-26,-90,-76c0,0,-37,-50,-57,-122c0,0,-21,-72,-21,-164c0,0,0,-92,20,-163c0,0,20,-70,57,-117c0,0,36,-48,90,-72c0,0,54,-24,122,-24c0,0,57,0,100,14c0,0,43,14,73,32c0,0,30,17,50,31c0,0,19,15,30,15c0,0,5,0,9,-3c0,0,4,-2,6,-8c0,0,2,-7,3,-18c0,0,2,-11,2,-28c0,0,0,-12,-1,-21c0,0,-1,-9,-3,-16c0,0,-2,-6,-5,-12c0,0,-3,-5,-10,-12c0,0,-8,-8,-31,-23c0,0,-24,-15,-60,-30C663,23,628,8,582,-1c0,0,-46,-10,-100,-10Z" 
id="f0_j"
transform="scale(0.001,-0.001)" />

<path d="M192,-4c0,0,-18,0,-30,2c0,0,-13,2,-20,3c0,0,-8,3,-11,8c0,0,-3,4,-3,10V946c0,0,0,6,3,11c0,0,4,4,12,7c0,0,7,2,20,4c0,0,12,2,29,2c0,0,19,0,31,-2c0,0,13,-2,20,-4c0,0,7,-3,10,-7c0,0,3,-5,3,-11V19c0,0,0,-6,-3,-10c0,0,-3,-5,-10,-8c0,0,-7,-1,-20,-3c0,0,-12,-2,-31,-2Z" 
id="f0_1c"
transform="scale(0.001,-0.001)" />

<path d="M604,356L436,837h-1L269,356ZM87,-4c0,0,-22,0,-36,2C51,-2,37,0,32,4c0,0,-6,5,-6,15c0,0,1,10,7,27L357,943c0,0,3,8,7,13c0,0,5,6,15,9c0,0,9,3,23,4c0,0,15,1,37,1c0,0,24,0,40,-1c0,0,16,-1,25,-4c0,0,10,-3,15,-9c0,0,5,-5,8,-14L851,45c0,0,6,-16,7,-26c0,0,0,-10,-6,-16c0,0,-6,-4,-20,-5c0,0,-14,-2,-37,-2c0,0,-23,0,-37,1c0,0,-14,1,-21,3c0,0,-7,3,-10,7c0,0,-3,5,-6,11L638,253H236L157,21c0,0,-2,-6,-6,-11c0,0,-3,-5,-10,-9c0,0,-7,-2,-21,-3c0,0,-13,-2,-33,-2Z" 
id="f0_5"
transform="scale(0.001,-0.001)" />

<path d="M176,0c0,0,-17,0,-33,12c0,0,-15,11,-15,40V946c0,0,0,6,3,11c0,0,3,4,11,7c0,0,7,2,20,4c0,0,12,2,30,2c0,0,19,0,31,-2c0,0,13,-2,20,-4c0,0,7,-3,10,-7c0,0,3,-5,3,-11V111H603c0,0,6,0,11,-3c0,0,5,-3,8,-10c0,0,4,-6,5,-16c0,0,2,-11,2,-26c0,0,0,-15,-2,-25c0,0,-1,-10,-5,-17c0,0,-3,-7,-8,-11c0,0,-5,-3,-11,-3Z" 
id="f0_1r"
transform="scale(0.001,-0.001)" />

<path d="M366,92c0,0,25,0,48,7c0,0,22,6,46,22c0,0,24,16,50,41c0,0,26,24,56,61V492c0,0,-51,62,-97,94c0,0,-47,33,-98,33c0,0,-47,0,-79,-22c0,0,-33,-23,-54,-59c0,0,-20,-37,-30,-83c0,0,-9,-47,-9,-94c0,0,0,-51,8,-100c0,0,8,-48,27,-86c0,0,19,-38,52,-60c0,0,32,-23,80,-23ZM345,-13c0,0,-74,0,-127,28c0,0,-52,29,-84,78c0,0,-33,49,-48,115c0,0,-15,66,-15,139c0,0,0,86,19,156c0,0,19,70,55,119c0,0,37,50,91,76c0,0,54,27,125,27c0,0,59,0,108,-26c0,0,49,-26,97,-76v390c0,0,0,5,2,10c0,0,3,4,10,7c0,0,8,3,19,5c0,0,12,1,30,1c0,0,18,0,30,-1c0,0,12,-2,19,-5c0,0,7,-3,10,-7c0,0,3,-5,3,-10V18c0,0,0,-6,-2,-10c0,0,-3,-5,-9,-7c0,0,-7,-2,-17,-3c0,0,-10,-2,-25,-2c0,0,-16,0,-26,2c0,0,-11,1,-18,3c0,0,-6,2,-9,7c0,0,-3,4,-3,10v90c0,0,-53,-58,-110,-90c0,0,-58,-31,-125,-31Z" 
id="f0_7v"
transform="scale(0.001,-0.001)" />

<path d="M388,108c0,0,93,0,156,23c0,0,64,23,106,71c0,0,43,47,64,119c0,0,21,72,21,171c0,0,0,78,-19,145c0,0,-20,68,-61,117c0,0,-41,49,-105,77c0,0,-63,28,-163,28H256V108ZM176,0c0,0,-17,0,-33,12c0,0,-15,11,-15,40V913c0,0,0,29,15,41c0,0,16,11,33,11H394c0,0,126,0,212,-32c0,0,87,-33,145,-94c0,0,59,-60,89,-147c0,0,30,-86,30,-195c0,0,0,-126,-32,-219c0,0,-32,-94,-93,-155c0,0,-62,-62,-151,-92C594,31,504,0,380,0Z" 
id="f0_p"
transform="scale(0.001,-0.001)" />

<path d="M431,92c0,0,46,0,79,22c0,0,33,23,53,60c0,0,21,37,30,83c0,0,10,46,10,93c0,0,0,51,-8,100c0,0,-8,49,-28,86c0,0,-19,37,-51,60c0,0,-32,23,-80,23c0,0,-24,0,-47,-7c0,0,-23,-7,-47,-22c0,0,-24,-16,-50,-41c0,0,-25,-24,-55,-62V219c0,0,51,-62,98,-95c0,0,46,-32,96,-32ZM443,-13c0,0,-32,0,-59,7c0,0,-27,6,-53,19c0,0,-26,14,-52,36c0,0,-27,22,-56,52V18c0,0,0,-6,-3,-10c0,0,-3,-5,-9,-7c0,0,-7,-2,-17,-3c0,0,-10,-2,-26,-2c0,0,-15,0,-25,2c0,0,-11,1,-17,3c0,0,-7,2,-9,7c0,0,-3,4,-3,10v997c0,0,0,6,3,11c0,0,3,4,10,7c0,0,7,3,19,5c0,0,12,1,30,1c0,0,18,0,30,-1c0,0,12,-2,19,-5c0,0,7,-3,9,-7c0,0,3,-5,3,-10V614c0,0,30,31,58,52c0,0,28,20,55,34c0,0,27,13,54,19c0,0,27,6,57,6c0,0,73,0,125,-30c0,0,52,-29,84,-78c0,0,32,-48,47,-114c0,0,15,-66,15,-139c0,0,0,-87,-19,-157c0,0,-19,-70,-56,-119c0,0,-37,-49,-90,-76c0,0,-54,-25,-124,-25Z" 
id="f0_7k"
transform="scale(0.001,-0.001)" />


</defs>

<!-- Any embedded fonts defined here -->
<style type="text/css" ><![CDATA[

@font-face {
	font-family: Calibri_7;
	src: url("fonts/Calibri_7.woff") format("woff");
}

]]></style>

</svg>
